{"glyphs":{"0":{"ha":742,"x_min":78,"x_max":664,"o":"m 371 -17 q 208 25 272 -17 q 110 140 143 67 q 78 310 78 214 l 78 808 q 109 981 78 907 q 205 1097 140 1056 q 371 1139 269 1139 q 537 1097 472 1139 q 633 981 601 1056 q 664 808 664 907 l 664 310 q 631 140 664 214 q 534 25 599 67 q 371 -17 469 -17 m 371 149 q 435 175 414 149 q 463 239 456 201 q 469 313 469 276 l 469 806 q 463 883 469 844 q 436 947 457 921 q 371 974 415 974 q 306 947 326 974 q 278 883 285 921 q 272 806 272 844 l 272 313 q 280 239 272 276 q 308 175 288 201 q 371 149 329 149 z "},"1":{"ha":544,"x_min":36,"x_max":401,"o":"m 210 0 l 210 913 q 177 900 201 908 q 124 884 153 892 q 70 869 94 876 q 36 858 46 863 l 36 1001 q 85 1021 56 1008 q 147 1049 114 1033 q 208 1085 179 1065 q 254 1125 236 1104 l 401 1125 l 401 0 l 210 0 z "},"2":{"ha":690,"x_min":57,"x_max":646,"o":"m 57 0 l 57 136 l 335 565 q 392 656 365 613 q 437 745 419 699 q 454 847 454 792 q 432 943 454 910 q 363 976 410 976 q 293 951 318 976 q 259 886 268 926 q 250 797 250 846 l 250 750 l 61 750 l 61 800 q 91 976 61 900 q 186 1094 121 1051 q 357 1138 251 1138 q 574 1060 501 1138 q 646 843 646 982 q 626 717 646 774 q 575 610 607 661 q 506 504 543 558 l 275 154 l 617 154 l 617 0 l 57 0 z "},"3":{"ha":689,"x_min":54,"x_max":640,"o":"m 347 -17 q 177 23 242 -17 q 83 135 113 63 q 54 306 54 208 l 54 344 l 244 344 q 244 331 244 340 q 244 311 244 321 q 254 221 246 258 q 285 164 263 183 q 349 144 308 144 q 413 165 392 144 q 442 226 435 186 q 450 322 450 267 q 423 458 450 408 q 318 511 396 507 q 305 511 315 511 q 286 511 294 511 l 286 665 q 301 665 293 665 q 315 665 308 665 q 421 706 392 667 q 450 833 450 746 q 428 944 450 904 q 346 985 407 985 q 266 940 286 985 q 244 825 246 896 q 244 805 244 815 q 244 783 244 794 l 54 783 l 54 838 q 88 1001 54 933 q 188 1103 122 1068 q 346 1139 253 1139 q 507 1104 442 1139 q 606 1003 572 1069 q 640 842 640 938 q 599 678 640 742 q 492 594 557 614 q 569 547 536 581 q 622 458 603 513 q 640 325 640 403 q 612 147 640 224 q 519 26 583 69 q 347 -17 454 -17 z "},"4":{"ha":700,"x_min":44,"x_max":676,"o":"m 381 0 l 381 276 l 44 276 l 44 440 l 338 1125 l 561 1125 l 561 429 l 676 429 l 676 276 l 561 276 l 561 0 l 381 0 m 206 429 l 381 429 l 381 918 l 206 429 z "},"5":{"ha":685,"x_min":63,"x_max":640,"o":"m 346 -17 q 172 25 233 -17 q 86 143 110 67 q 63 322 63 219 l 250 322 q 258 222 250 265 q 288 153 265 178 q 356 131 311 129 q 424 162 404 131 q 450 249 444 193 q 456 381 456 306 q 448 494 456 446 q 418 570 440 543 q 349 597 396 597 q 282 570 308 597 q 243 499 256 543 l 78 499 l 89 1125 l 594 1125 l 594 953 l 250 953 l 239 682 q 299 722 260 707 q 388 740 339 738 q 532 703 476 744 q 614 582 588 661 q 640 393 640 503 q 628 229 640 304 q 585 99 617 154 q 495 14 553 44 q 346 -17 438 -17 z "},"6":{"ha":724,"x_min":76,"x_max":664,"o":"m 371 -15 q 201 33 267 -15 q 106 166 136 82 q 76 354 76 250 l 76 749 q 101 947 76 858 q 190 1086 126 1035 q 369 1138 254 1138 q 530 1105 468 1138 q 621 1010 592 1072 q 650 856 650 947 q 651 847 650 851 q 651 838 651 842 l 467 838 q 449 950 467 913 q 371 988 431 988 q 313 965 335 988 q 280 892 290 943 q 269 757 269 842 l 269 622 q 328 673 289 654 q 421 692 368 692 q 565 651 513 693 q 641 536 618 610 q 664 368 664 463 q 636 172 664 258 q 544 35 608 85 q 371 -15 481 -15 m 372 133 q 433 158 413 133 q 463 228 454 183 q 471 332 471 272 q 466 441 471 393 q 440 517 461 489 q 371 546 419 546 q 327 537 347 546 q 292 514 307 528 q 269 486 278 500 l 269 310 q 278 222 269 263 q 310 158 288 182 q 372 133 333 133 z "},"7":{"ha":574,"x_min":29,"x_max":522,"o":"m 110 0 l 333 978 l 29 978 l 29 1125 l 522 1125 l 522 1007 l 296 0 l 110 0 z "},"8":{"ha":708,"x_min":61,"x_max":649,"o":"m 354 -15 q 182 28 247 -15 q 89 148 117 71 q 61 326 61 225 q 70 416 61 375 q 97 490 79 457 q 139 549 114 524 q 196 592 164 575 q 112 687 146 626 q 76 840 78 747 q 106 999 76 932 q 199 1102 136 1067 q 354 1138 261 1138 q 510 1101 449 1138 q 601 999 571 1065 q 629 840 631 932 q 595 686 628 746 q 513 592 563 626 q 569 549 544 575 q 612 490 594 524 q 638 416 629 457 q 647 326 647 375 q 620 148 649 225 q 527 28 592 71 q 354 -15 463 -15 m 354 131 q 423 158 400 131 q 453 228 446 186 q 460 315 460 271 q 453 406 461 363 q 422 478 444 450 q 354 506 399 506 q 288 478 311 506 q 256 407 265 450 q 247 315 247 364 q 255 228 247 271 q 286 158 263 185 q 354 131 310 131 m 354 668 q 409 692 389 669 q 438 756 429 715 q 446 847 446 796 q 425 951 446 911 q 354 992 404 992 q 283 951 306 992 q 260 849 260 911 q 269 756 260 797 q 299 692 278 715 q 354 668 319 669 z "},"9":{"ha":724,"x_min":57,"x_max":646,"o":"m 351 -15 q 192 18 254 -15 q 100 115 129 51 q 71 271 71 179 q 71 278 71 274 q 71 286 71 282 l 254 286 q 273 174 254 211 q 353 136 292 136 q 411 158 390 136 q 442 232 432 181 q 451 367 451 283 l 451 501 q 393 451 432 469 q 300 432 354 433 q 156 474 210 431 q 80 593 103 518 q 57 763 57 668 q 86 958 57 874 q 181 1090 115 1042 q 351 1138 246 1138 q 521 1091 456 1138 q 616 963 586 1044 q 646 775 646 881 l 646 376 q 620 178 646 267 q 531 37 594 89 q 351 -15 468 -15 m 353 578 q 415 597 392 578 q 451 639 438 617 l 451 814 q 443 902 451 863 q 413 966 435 942 q 351 990 392 990 q 291 965 313 990 q 261 896 269 940 q 253 792 253 851 q 258 683 253 732 q 283 606 263 635 q 353 578 304 578 z "},"A":{"ha":725,"x_min":28,"x_max":697,"o":"m 28 0 l 253 1125 l 472 1125 l 697 0 l 507 0 l 463 260 l 267 260 l 221 0 l 28 0 m 288 390 l 440 390 l 364 863 l 288 390 z "},"Á":{"ha":725,"x_min":28,"x_max":697,"o":"m 28 0 l 253 1125 l 472 1125 l 697 0 l 507 0 l 463 260 l 267 260 l 221 0 l 28 0 m 288 390 l 440 390 l 364 863 l 288 390 m 306 1203 l 390 1481 l 581 1481 l 415 1203 l 306 1203 z "},"Ă":{"ha":725,"x_min":28,"x_max":697,"o":"m 28 0 l 253 1125 l 472 1125 l 697 0 l 507 0 l 463 260 l 267 260 l 221 0 l 28 0 m 288 390 l 440 390 l 364 863 l 288 390 m 364 1214 q 213 1269 264 1214 q 163 1417 163 1324 l 271 1417 q 292 1340 271 1367 q 364 1314 313 1314 q 435 1341 414 1314 q 456 1417 456 1368 l 564 1417 q 513 1269 564 1324 q 364 1214 463 1214 z "},"Ắ":{"ha":725,"x_min":28,"x_max":697,"o":"m 28 0 l 253 1125 l 472 1125 l 697 0 l 507 0 l 463 260 l 267 260 l 221 0 l 28 0 m 288 390 l 440 390 l 364 863 l 288 390 m 281 1461 l 375 1624 l 542 1624 l 392 1461 l 281 1461 m 364 1199 q 213 1253 264 1199 q 163 1401 163 1308 l 271 1401 q 292 1325 271 1351 q 364 1299 313 1299 q 435 1326 414 1299 q 456 1401 456 1353 l 564 1401 q 513 1253 564 1308 q 364 1199 463 1199 z "},"Ặ":{"ha":725,"x_min":28,"x_max":697,"o":"m 28 0 l 253 1125 l 472 1125 l 697 0 l 507 0 l 463 260 l 267 260 l 221 0 l 28 0 m 288 390 l 440 390 l 364 863 l 288 390 m 276 -268 l 276 -93 l 449 -93 l 449 -268 l 276 -268 m 364 1214 q 213 1269 264 1214 q 163 1417 163 1324 l 271 1417 q 292 1340 271 1367 q 364 1314 313 1314 q 435 1341 414 1314 q 456 1417 456 1368 l 564 1417 q 513 1269 564 1324 q 364 1214 463 1214 z "},"Ằ":{"ha":725,"x_min":28,"x_max":697,"o":"m 28 0 l 253 1125 l 472 1125 l 697 0 l 507 0 l 463 260 l 267 260 l 221 0 l 28 0 m 288 390 l 440 390 l 364 863 l 288 390 m 332 1461 l 182 1624 l 349 1624 l 442 1461 l 332 1461 m 364 1199 q 213 1253 264 1199 q 163 1401 163 1308 l 271 1401 q 292 1325 271 1351 q 364 1299 313 1299 q 435 1326 414 1299 q 456 1401 456 1353 l 564 1401 q 513 1253 564 1308 q 364 1199 463 1199 z "},"Ẳ":{"ha":725,"x_min":28,"x_max":697,"o":"m 28 0 l 253 1125 l 472 1125 l 697 0 l 507 0 l 463 260 l 267 260 l 221 0 l 28 0 m 288 390 l 440 390 l 364 863 l 288 390 m 375 1419 l 319 1482 q 362 1519 346 1501 q 378 1564 378 1538 q 359 1606 378 1592 q 313 1619 340 1619 q 277 1616 294 1619 q 244 1607 260 1613 l 244 1692 q 298 1706 271 1701 q 353 1710 325 1710 q 461 1678 418 1710 q 504 1581 504 1647 q 467 1483 504 1521 q 375 1419 429 1446 m 364 1214 q 213 1269 264 1214 q 163 1417 163 1324 l 271 1417 q 292 1340 271 1367 q 364 1314 313 1314 q 435 1341 414 1314 q 456 1417 456 1368 l 564 1417 q 513 1269 564 1324 q 364 1214 463 1214 z "},"Ẵ":{"ha":725,"x_min":28,"x_max":697,"o":"m 28 0 l 253 1125 l 472 1125 l 697 0 l 507 0 l 463 260 l 267 260 l 221 0 l 28 0 m 288 390 l 440 390 l 364 863 l 288 390 m 363 1214 q 212 1269 263 1214 q 161 1417 161 1324 l 269 1417 q 290 1340 269 1367 q 363 1314 311 1314 q 433 1341 413 1314 q 454 1417 454 1368 l 563 1417 q 512 1269 563 1324 q 363 1214 461 1214 m 472 1488 q 406 1505 435 1488 q 350 1538 376 1522 q 294 1554 324 1554 q 256 1540 267 1554 q 246 1497 246 1525 l 149 1497 q 159 1587 149 1547 q 196 1649 169 1626 q 267 1672 222 1672 q 329 1656 301 1672 q 384 1624 357 1640 q 440 1608 411 1608 q 474 1622 464 1608 q 485 1664 485 1636 l 576 1664 q 569 1581 576 1621 q 540 1514 563 1540 q 472 1488 517 1488 z "},"Ǎ":{"ha":725,"x_min":28,"x_max":697,"o":"m 28 0 l 253 1125 l 472 1125 l 697 0 l 507 0 l 463 260 l 267 260 l 221 0 l 28 0 m 288 390 l 440 390 l 364 863 l 288 390 m 271 1208 l 149 1458 l 288 1458 l 363 1301 l 438 1458 l 576 1458 l 454 1208 l 271 1208 z "},"Â":{"ha":725,"x_min":28,"x_max":697,"o":"m 28 0 l 253 1125 l 472 1125 l 697 0 l 507 0 l 463 260 l 267 260 l 221 0 l 28 0 m 288 390 l 440 390 l 364 863 l 288 390 m 151 1214 l 276 1469 l 446 1469 l 574 1214 l 433 1214 l 361 1381 l 290 1214 l 151 1214 z "},"Ấ":{"ha":725,"x_min":28,"x_max":768,"o":"m 28 0 l 253 1125 l 472 1125 l 697 0 l 507 0 l 463 260 l 267 260 l 221 0 l 28 0 m 288 390 l 440 390 l 364 863 l 288 390 m 151 1214 l 276 1438 l 446 1438 l 574 1214 l 436 1214 l 361 1354 l 288 1214 l 151 1214 m 544 1368 l 618 1535 l 768 1535 l 650 1368 l 544 1368 z "},"Ậ":{"ha":725,"x_min":28,"x_max":697,"o":"m 28 0 l 253 1125 l 472 1125 l 697 0 l 507 0 l 463 260 l 267 260 l 221 0 l 28 0 m 288 390 l 440 390 l 364 863 l 288 390 m 151 1214 l 276 1438 l 446 1438 l 574 1214 l 436 1214 l 361 1354 l 288 1214 l 151 1214 m 276 -268 l 276 -93 l 449 -93 l 449 -268 l 276 -268 z "},"Ầ":{"ha":725,"x_min":28,"x_max":697,"o":"m 28 0 l 253 1125 l 472 1125 l 697 0 l 507 0 l 463 260 l 267 260 l 221 0 l 28 0 m 288 390 l 440 390 l 364 863 l 288 390 m 151 1214 l 276 1438 l 446 1438 l 574 1214 l 436 1214 l 361 1354 l 288 1214 l 151 1214 m 582 1368 l 465 1535 l 615 1535 l 689 1368 l 582 1368 z "},"Ẩ":{"ha":725,"x_min":28,"x_max":719,"o":"m 28 0 l 253 1125 l 472 1125 l 697 0 l 507 0 l 463 260 l 267 260 l 221 0 l 28 0 m 288 390 l 440 390 l 364 863 l 288 390 m 590 1335 l 535 1397 q 577 1435 561 1417 q 593 1479 593 1453 q 574 1521 593 1507 q 528 1535 556 1535 q 491 1531 508 1535 q 460 1522 474 1528 l 460 1607 q 513 1621 486 1617 q 568 1625 539 1625 q 675 1594 632 1625 q 718 1496 718 1563 q 681 1397 718 1432 q 590 1335 643 1361 m 151 1214 l 276 1438 l 446 1438 l 574 1214 l 436 1214 l 361 1354 l 288 1214 l 151 1214 z "},"Ẫ":{"ha":725,"x_min":28,"x_max":697,"o":"m 28 0 l 253 1125 l 472 1125 l 697 0 l 507 0 l 463 260 l 267 260 l 221 0 l 28 0 m 288 390 l 440 390 l 364 863 l 288 390 m 151 1214 l 276 1438 l 446 1438 l 574 1214 l 436 1214 l 361 1354 l 288 1214 l 151 1214 m 472 1503 q 406 1520 435 1503 q 350 1553 376 1538 q 294 1569 324 1569 q 256 1555 267 1569 q 246 1513 246 1540 l 149 1513 q 159 1602 149 1563 q 196 1665 169 1642 q 267 1688 222 1688 q 329 1672 301 1688 q 384 1640 357 1656 q 440 1624 411 1624 q 474 1638 464 1624 q 485 1679 485 1651 l 576 1679 q 569 1596 576 1636 q 540 1529 563 1556 q 472 1503 517 1503 z "},"Ȁ":{"ha":725,"x_min":28,"x_max":697,"o":"m 28 0 l 253 1125 l 472 1125 l 697 0 l 507 0 l 463 260 l 267 260 l 221 0 l 28 0 m 288 390 l 440 390 l 364 863 l 288 390 m 217 1210 l 71 1472 l 232 1472 l 317 1210 l 217 1210 m 429 1210 l 313 1472 l 457 1472 l 526 1210 l 429 1210 z "},"Ä":{"ha":725,"x_min":28,"x_max":697,"o":"m 28 0 l 253 1125 l 472 1125 l 697 0 l 507 0 l 463 260 l 267 260 l 221 0 l 28 0 m 288 390 l 440 390 l 364 863 l 288 390 m 415 1267 l 415 1447 l 582 1447 l 582 1267 l 415 1267 m 143 1267 l 143 1447 l 310 1447 l 310 1267 l 143 1267 z "},"Ạ":{"ha":725,"x_min":28,"x_max":697,"o":"m 28 0 l 253 1125 l 472 1125 l 697 0 l 507 0 l 463 260 l 267 260 l 221 0 l 28 0 m 288 390 l 440 390 l 364 863 l 288 390 m 276 -268 l 276 -93 l 449 -93 l 449 -268 l 276 -268 z "},"À":{"ha":725,"x_min":28,"x_max":697,"o":"m 28 0 l 253 1125 l 472 1125 l 697 0 l 507 0 l 463 260 l 267 260 l 221 0 l 28 0 m 288 390 l 440 390 l 364 863 l 288 390 m 311 1203 l 146 1481 l 338 1481 l 419 1203 l 311 1203 z "},"Ả":{"ha":725,"x_min":28,"x_max":697,"o":"m 28 0 l 253 1125 l 472 1125 l 697 0 l 507 0 l 463 260 l 267 260 l 221 0 l 28 0 m 288 390 l 440 390 l 364 863 l 288 390 m 363 1199 l 301 1264 q 369 1301 342 1282 q 396 1349 396 1319 q 373 1388 396 1376 q 314 1400 350 1400 q 274 1397 294 1400 q 236 1390 254 1394 l 236 1475 q 363 1490 296 1490 q 444 1477 407 1490 q 503 1435 481 1464 q 525 1361 525 1407 q 503 1286 525 1317 q 445 1235 482 1256 q 363 1199 408 1215 z "},"Ȃ":{"ha":725,"x_min":28,"x_max":697,"o":"m 28 0 l 253 1125 l 472 1125 l 697 0 l 507 0 l 463 260 l 267 260 l 221 0 l 28 0 m 288 390 l 440 390 l 364 863 l 288 390 m 161 1232 q 183 1345 163 1297 q 248 1419 203 1393 q 363 1446 293 1446 q 478 1419 433 1446 q 543 1345 522 1393 q 564 1232 564 1297 l 456 1232 q 434 1319 456 1292 q 363 1346 413 1346 q 292 1319 313 1346 q 269 1232 271 1292 l 161 1232 z "},"Ā":{"ha":725,"x_min":28,"x_max":697,"o":"m 28 0 l 253 1125 l 472 1125 l 697 0 l 507 0 l 463 260 l 267 260 l 221 0 l 28 0 m 288 390 l 440 390 l 364 863 l 288 390 m 199 1260 l 199 1358 l 526 1358 l 526 1260 l 199 1260 z "},"Ą":{"ha":725,"x_min":28,"x_max":719,"o":"m 28 0 l 253 1125 l 472 1125 l 697 0 l 507 0 l 463 260 l 267 260 l 221 0 l 28 0 m 288 390 l 440 390 l 364 863 l 288 390 m 647 -342 q 574 -337 611 -342 q 507 -318 538 -332 q 458 -278 476 -304 q 440 -207 440 -251 q 460 -125 440 -165 q 509 -51 479 -85 q 571 0 539 -18 l 660 0 q 622 -52 640 -24 q 590 -112 603 -81 q 576 -174 576 -143 q 608 -233 576 -218 q 676 -249 640 -249 q 699 -248 688 -249 q 719 -246 711 -247 l 696 -337 q 673 -340 686 -339 q 647 -342 660 -342 z "},"Å":{"ha":725,"x_min":28,"x_max":697,"o":"m 28 0 l 253 1125 l 472 1125 l 697 0 l 507 0 l 463 260 l 267 260 l 221 0 l 28 0 m 288 390 l 440 390 l 364 863 l 288 390 m 361 1168 q 249 1208 294 1168 q 203 1322 203 1249 q 249 1435 203 1396 q 361 1475 294 1475 q 476 1435 429 1475 q 522 1322 522 1394 q 476 1208 522 1249 q 361 1168 429 1168 m 361 1246 q 417 1267 397 1246 q 436 1322 436 1289 q 417 1378 436 1357 q 361 1399 397 1399 q 307 1378 326 1399 q 288 1322 288 1357 q 307 1267 288 1289 q 361 1246 326 1246 z "},"Ǻ":{"ha":725,"x_min":28,"x_max":697,"o":"m 28 0 l 253 1125 l 472 1125 l 697 0 l 507 0 l 463 260 l 267 260 l 221 0 l 28 0 m 288 390 l 440 390 l 364 863 l 288 390 m 361 1168 q 249 1208 294 1168 q 203 1322 203 1249 q 249 1435 203 1396 q 361 1475 294 1475 q 476 1435 429 1475 q 522 1322 522 1394 q 476 1208 522 1249 q 361 1168 429 1168 m 361 1246 q 417 1267 397 1246 q 436 1322 436 1289 q 417 1378 436 1357 q 361 1399 397 1399 q 307 1378 326 1399 q 288 1322 288 1357 q 307 1267 288 1289 q 361 1246 326 1246 m 306 1539 l 390 1817 l 581 1817 l 415 1539 l 306 1539 z "},"Ã":{"ha":725,"x_min":28,"x_max":697,"o":"m 28 0 l 253 1125 l 472 1125 l 697 0 l 507 0 l 463 260 l 267 260 l 221 0 l 28 0 m 288 390 l 440 390 l 364 863 l 288 390 m 472 1271 q 406 1288 435 1271 q 350 1322 376 1306 q 294 1338 324 1338 q 256 1323 267 1338 q 246 1281 246 1308 l 149 1281 q 159 1370 149 1331 q 196 1433 169 1410 q 267 1456 222 1456 q 329 1440 301 1456 q 384 1408 357 1424 q 440 1392 411 1392 q 474 1406 464 1392 q 485 1447 485 1419 l 576 1447 q 569 1364 576 1404 q 540 1297 563 1324 q 472 1271 517 1271 z "},"Æ":{"ha":935,"x_min":-43,"x_max":900,"o":"m -43 0 l 439 1117 l 900 1117 l 900 974 l 640 974 l 640 654 l 825 654 l 825 510 l 640 510 l 640 142 l 900 142 l 900 0 l 458 0 l 458 258 l 264 258 l 157 0 l -43 0 m 311 393 l 458 393 l 458 789 l 311 393 z "},"Ǽ":{"ha":935,"x_min":-43,"x_max":900,"o":"m -43 0 l 439 1117 l 900 1117 l 900 974 l 640 974 l 640 654 l 825 654 l 825 510 l 640 510 l 640 142 l 900 142 l 900 0 l 458 0 l 458 258 l 264 258 l 157 0 l -43 0 m 311 393 l 458 393 l 458 789 l 311 393 m 493 1203 l 578 1481 l 768 1481 l 603 1203 l 493 1203 z "},"B":{"ha":774,"x_min":85,"x_max":725,"o":"m 85 0 l 85 1125 l 361 1125 q 497 1111 436 1125 q 601 1065 557 1097 q 668 976 644 1032 q 692 836 692 921 q 673 719 692 768 q 618 642 654 671 q 528 604 582 614 q 638 558 594 593 q 703 465 682 522 q 725 328 725 408 q 705 185 725 247 q 645 83 685 124 q 547 21 606 42 q 408 0 488 0 l 85 0 m 290 144 l 368 144 q 494 190 461 144 q 528 329 528 235 q 512 440 528 397 q 459 503 496 482 q 361 524 422 524 l 290 524 l 290 144 m 290 665 l 360 665 q 454 683 421 665 q 501 739 488 701 q 514 833 514 776 q 494 926 514 893 q 433 970 474 958 q 331 982 393 982 l 290 982 l 290 665 z "},"Ḃ":{"ha":774,"x_min":85,"x_max":725,"o":"m 85 0 l 85 1125 l 361 1125 q 497 1111 436 1125 q 601 1065 557 1097 q 668 976 644 1032 q 692 836 692 921 q 673 719 692 768 q 618 642 654 671 q 528 604 582 614 q 638 558 594 593 q 703 465 682 522 q 725 328 725 408 q 705 185 725 247 q 645 83 685 124 q 547 21 606 42 q 408 0 488 0 l 85 0 m 290 144 l 368 144 q 494 190 461 144 q 528 329 528 235 q 512 440 528 397 q 459 503 496 482 q 361 524 422 524 l 290 524 l 290 144 m 290 665 l 360 665 q 454 683 421 665 q 501 739 488 701 q 514 833 514 776 q 494 926 514 893 q 433 970 474 958 q 331 982 393 982 l 290 982 l 290 665 m 296 1240 l 296 1431 l 479 1431 l 479 1240 l 296 1240 z "},"C":{"ha":750,"x_min":68,"x_max":692,"o":"m 388 -15 q 194 33 264 -15 q 96 166 124 82 q 68 360 68 250 l 68 761 q 96 961 68 876 q 194 1092 124 1046 q 388 1138 264 1138 q 570 1098 504 1138 q 664 985 636 1058 q 692 814 692 911 l 692 719 l 494 719 l 494 817 q 490 903 494 864 q 463 965 485 942 q 389 988 442 988 q 312 963 336 988 q 281 898 288 939 q 274 806 274 857 l 274 317 q 283 216 274 256 q 319 156 293 176 q 389 136 344 136 q 462 160 440 136 q 489 225 483 185 q 494 315 494 265 l 494 417 l 692 417 l 692 326 q 665 149 692 226 q 573 28 639 72 q 388 -15 507 -15 z "},"Ć":{"ha":750,"x_min":68,"x_max":692,"o":"m 388 -15 q 194 33 264 -15 q 96 166 124 82 q 68 360 68 250 l 68 761 q 96 961 68 876 q 194 1092 124 1046 q 388 1138 264 1138 q 570 1098 504 1138 q 664 985 636 1058 q 692 814 692 911 l 692 719 l 494 719 l 494 817 q 490 903 494 864 q 463 965 485 942 q 389 988 442 988 q 312 963 336 988 q 281 898 288 939 q 274 806 274 857 l 274 317 q 283 216 274 256 q 319 156 293 176 q 389 136 344 136 q 462 160 440 136 q 489 225 483 185 q 494 315 494 265 l 494 417 l 692 417 l 692 326 q 665 149 692 226 q 573 28 639 72 q 388 -15 507 -15 m 325 1203 l 410 1481 l 600 1481 l 435 1203 l 325 1203 z "},"Č":{"ha":750,"x_min":68,"x_max":692,"o":"m 388 -15 q 194 33 264 -15 q 96 166 124 82 q 68 360 68 250 l 68 761 q 96 961 68 876 q 194 1092 124 1046 q 388 1138 264 1138 q 570 1098 504 1138 q 664 985 636 1058 q 692 814 692 911 l 692 719 l 494 719 l 494 817 q 490 903 494 864 q 463 965 485 942 q 389 988 442 988 q 312 963 336 988 q 281 898 288 939 q 274 806 274 857 l 274 317 q 283 216 274 256 q 319 156 293 176 q 389 136 344 136 q 462 160 440 136 q 489 225 483 185 q 494 315 494 265 l 494 417 l 692 417 l 692 326 q 665 149 692 226 q 573 28 639 72 q 388 -15 507 -15 m 290 1208 l 168 1458 l 307 1458 l 382 1301 l 457 1458 l 596 1458 l 474 1208 l 290 1208 z "},"Ç":{"ha":750,"x_min":68,"x_max":692,"o":"m 388 -15 q 194 33 264 -15 q 96 166 124 82 q 68 360 68 250 l 68 761 q 96 961 68 876 q 194 1092 124 1046 q 388 1138 264 1138 q 570 1098 504 1138 q 664 985 636 1058 q 692 814 692 911 l 692 719 l 494 719 l 494 817 q 490 903 494 864 q 463 965 485 942 q 389 988 442 988 q 312 963 336 988 q 281 898 288 939 q 274 806 274 857 l 274 317 q 283 216 274 256 q 319 156 293 176 q 389 136 344 136 q 462 160 440 136 q 489 225 483 185 q 494 315 494 265 l 494 417 l 692 417 l 692 326 q 665 149 692 226 q 573 28 639 72 q 388 -15 507 -15 m 399 -357 q 348 -353 374 -357 q 299 -342 322 -349 l 299 -254 q 335 -262 315 -260 q 374 -265 354 -265 q 435 -253 410 -265 q 460 -214 460 -242 q 442 -173 460 -187 q 397 -150 425 -158 q 336 -139 369 -142 l 336 0 l 415 0 l 415 -85 q 540 -119 493 -85 q 588 -217 588 -153 q 562 -297 588 -267 q 493 -342 536 -328 q 399 -357 450 -357 z "},"Ĉ":{"ha":750,"x_min":68,"x_max":692,"o":"m 388 -15 q 194 33 264 -15 q 96 166 124 82 q 68 360 68 250 l 68 761 q 96 961 68 876 q 194 1092 124 1046 q 388 1138 264 1138 q 570 1098 504 1138 q 664 985 636 1058 q 692 814 692 911 l 692 719 l 494 719 l 494 817 q 490 903 494 864 q 463 965 485 942 q 389 988 442 988 q 312 963 336 988 q 281 898 288 939 q 274 806 274 857 l 274 317 q 283 216 274 256 q 319 156 293 176 q 389 136 344 136 q 462 160 440 136 q 489 225 483 185 q 494 315 494 265 l 494 417 l 692 417 l 692 326 q 665 149 692 226 q 573 28 639 72 q 388 -15 507 -15 m 171 1214 l 296 1469 l 465 1469 l 593 1214 l 453 1214 l 381 1381 l 310 1214 l 171 1214 z "},"Ċ":{"ha":750,"x_min":68,"x_max":692,"o":"m 388 -15 q 194 33 264 -15 q 96 166 124 82 q 68 360 68 250 l 68 761 q 96 961 68 876 q 194 1092 124 1046 q 388 1138 264 1138 q 570 1098 504 1138 q 664 985 636 1058 q 692 814 692 911 l 692 719 l 494 719 l 494 817 q 490 903 494 864 q 463 965 485 942 q 389 988 442 988 q 312 963 336 988 q 281 898 288 939 q 274 806 274 857 l 274 317 q 283 216 274 256 q 319 156 293 176 q 389 136 344 136 q 462 160 440 136 q 489 225 483 185 q 494 315 494 265 l 494 417 l 692 417 l 692 326 q 665 149 692 226 q 573 28 639 72 q 388 -15 507 -15 m 290 1240 l 290 1431 l 474 1431 l 474 1240 l 290 1240 z "},"D":{"ha":774,"x_min":85,"x_max":707,"o":"m 85 0 l 85 1125 l 350 1125 q 565 1088 488 1125 q 674 972 642 1050 q 707 775 707 894 l 707 364 q 674 160 707 242 q 566 40 642 79 q 358 0 490 0 l 85 0 m 290 143 l 353 143 q 454 168 424 143 q 492 241 485 193 q 499 358 499 289 l 499 789 q 489 899 499 857 q 449 960 479 940 q 350 979 418 979 l 290 979 l 290 143 z "},"Ǳ":{"ha":1358,"x_min":85,"x_max":1325,"o":"m 85 0 l 85 1125 l 350 1125 q 565 1088 488 1125 q 674 972 642 1050 q 707 775 707 894 l 707 364 q 674 160 707 242 q 566 40 642 79 q 358 0 490 0 l 85 0 m 290 143 l 353 143 q 454 168 424 143 q 492 241 485 193 q 499 358 499 289 l 499 789 q 489 899 499 857 q 449 960 479 940 q 350 979 418 979 l 290 979 l 290 143 m 814 0 l 814 132 l 1117 983 l 831 983 l 831 1125 l 1324 1125 l 1324 1019 l 1010 142 l 1325 142 l 1325 0 l 814 0 z "},"Ǆ":{"ha":1360,"x_min":85,"x_max":1325,"o":"m 85 0 l 85 1125 l 350 1125 q 565 1088 488 1125 q 674 972 642 1050 q 707 775 707 894 l 707 364 q 674 160 707 242 q 566 40 642 79 q 358 0 490 0 l 85 0 m 290 143 l 353 143 q 454 168 424 143 q 492 241 485 193 q 499 358 499 289 l 499 789 q 489 899 499 857 q 449 960 479 940 q 350 979 418 979 l 290 979 l 290 143 m 814 0 l 814 132 l 1117 983 l 831 983 l 831 1125 l 1324 1125 l 1324 1019 l 1010 142 l 1325 142 l 1325 0 l 814 0 m 972 1208 l 850 1458 l 989 1458 l 1064 1301 l 1139 1458 l 1278 1458 l 1156 1208 l 972 1208 z "},"Ð":{"ha":751,"x_min":14,"x_max":701,"o":"m 79 0 l 79 526 l 14 526 l 14 633 l 79 633 l 79 1125 l 344 1125 q 559 1088 482 1125 q 669 972 636 1050 q 701 775 701 894 l 701 364 q 669 160 701 242 q 560 40 636 79 q 353 0 485 0 l 79 0 m 283 143 l 347 143 q 449 168 418 143 q 486 241 479 193 q 493 358 493 289 l 493 789 q 484 899 493 857 q 444 960 475 940 q 344 979 413 979 l 283 979 l 283 633 l 354 633 l 354 526 l 283 526 l 283 143 z "},"Ď":{"ha":774,"x_min":85,"x_max":707,"o":"m 85 0 l 85 1125 l 350 1125 q 565 1088 488 1125 q 674 972 642 1050 q 707 775 707 894 l 707 364 q 674 160 707 242 q 566 40 642 79 q 358 0 490 0 l 85 0 m 290 143 l 353 143 q 454 168 424 143 q 492 241 485 193 q 499 358 499 289 l 499 789 q 489 899 499 857 q 449 960 479 940 q 350 979 418 979 l 290 979 l 290 143 m 296 1208 l 174 1458 l 313 1458 l 388 1301 l 463 1458 l 601 1458 l 479 1208 l 296 1208 z "},"Đ":{"ha":778,"x_min":21,"x_max":710,"o":"m 89 0 l 89 529 l 21 529 l 21 632 l 89 632 l 89 1125 l 356 1125 q 570 1088 493 1125 q 678 972 647 1050 q 710 775 710 894 l 710 364 q 678 160 710 242 q 570 40 646 79 q 363 0 494 0 l 89 0 m 292 143 l 360 143 q 461 168 431 143 q 499 241 492 193 q 506 358 506 289 l 506 789 q 497 899 506 857 q 456 960 488 940 q 358 979 425 979 l 292 979 l 292 632 l 367 632 l 367 529 l 292 529 l 292 143 z "},"Ḋ":{"ha":774,"x_min":85,"x_max":707,"o":"m 85 0 l 85 1125 l 350 1125 q 565 1088 488 1125 q 674 972 642 1050 q 707 775 707 894 l 707 364 q 674 160 707 242 q 566 40 642 79 q 358 0 490 0 l 85 0 m 290 143 l 353 143 q 454 168 424 143 q 492 241 485 193 q 499 358 499 289 l 499 789 q 489 899 499 857 q 449 960 479 940 q 350 979 418 979 l 290 979 l 290 143 m 296 1240 l 296 1431 l 479 1431 l 479 1240 l 296 1240 z "},"ǲ":{"ha":1289,"x_min":85,"x_max":1253,"o":"m 85 0 l 85 1125 l 350 1125 q 565 1088 488 1125 q 674 972 642 1050 q 707 775 707 894 l 707 364 q 674 160 707 242 q 566 40 642 79 q 358 0 490 0 l 85 0 m 290 143 l 353 143 q 454 168 424 143 q 492 241 485 193 q 499 358 499 289 l 499 789 q 489 899 499 857 q 449 960 479 940 q 350 979 418 979 l 290 979 l 290 143 m 821 0 l 821 124 l 1053 664 l 840 664 l 840 803 l 1253 803 l 1253 693 l 1017 140 l 1251 140 l 1251 0 l 821 0 z "},"ǅ":{"ha":1289,"x_min":85,"x_max":1253,"o":"m 85 0 l 85 1125 l 350 1125 q 565 1088 488 1125 q 674 972 642 1050 q 707 775 707 894 l 707 364 q 674 160 707 242 q 566 40 642 79 q 358 0 490 0 l 85 0 m 290 143 l 353 143 q 454 168 424 143 q 492 241 485 193 q 499 358 499 289 l 499 789 q 489 899 499 857 q 449 960 479 940 q 350 979 418 979 l 290 979 l 290 143 m 821 0 l 821 124 l 1053 664 l 840 664 l 840 803 l 1253 803 l 1253 693 l 1017 140 l 1251 140 l 1251 0 l 821 0 m 940 886 l 818 1136 l 957 1136 l 1032 979 l 1107 1136 l 1246 1136 l 1124 886 l 940 886 z "},"E":{"ha":594,"x_min":85,"x_max":560,"o":"m 85 0 l 85 1125 l 557 1125 l 557 981 l 290 981 l 290 657 l 500 657 l 500 514 l 290 514 l 290 142 l 560 142 l 560 0 l 85 0 z "},"É":{"ha":594,"x_min":85,"x_max":560,"o":"m 85 0 l 85 1125 l 557 1125 l 557 981 l 290 981 l 290 657 l 500 657 l 500 514 l 290 514 l 290 142 l 560 142 l 560 0 l 85 0 m 268 1203 l 353 1481 l 543 1481 l 378 1203 l 268 1203 z "},"Ĕ":{"ha":594,"x_min":85,"x_max":560,"o":"m 85 0 l 85 1125 l 557 1125 l 557 981 l 290 981 l 290 657 l 500 657 l 500 514 l 290 514 l 290 142 l 560 142 l 560 0 l 85 0 m 326 1214 q 176 1269 226 1214 q 125 1417 125 1324 l 233 1417 q 254 1340 233 1367 q 326 1314 275 1314 q 397 1341 376 1314 q 418 1417 418 1368 l 526 1417 q 476 1269 526 1324 q 326 1214 425 1214 z "},"Ě":{"ha":594,"x_min":85,"x_max":560,"o":"m 85 0 l 85 1125 l 557 1125 l 557 981 l 290 981 l 290 657 l 500 657 l 500 514 l 290 514 l 290 142 l 560 142 l 560 0 l 85 0 m 233 1208 l 111 1458 l 250 1458 l 325 1301 l 400 1458 l 539 1458 l 417 1208 l 233 1208 z "},"Ê":{"ha":594,"x_min":85,"x_max":560,"o":"m 85 0 l 85 1125 l 557 1125 l 557 981 l 290 981 l 290 657 l 500 657 l 500 514 l 290 514 l 290 142 l 560 142 l 560 0 l 85 0 m 114 1214 l 239 1469 l 408 1469 l 536 1214 l 396 1214 l 324 1381 l 253 1214 l 114 1214 z "},"Ế":{"ha":594,"x_min":85,"x_max":731,"o":"m 85 0 l 85 1125 l 557 1125 l 557 981 l 290 981 l 290 657 l 500 657 l 500 514 l 290 514 l 290 142 l 560 142 l 560 0 l 85 0 m 114 1214 l 239 1438 l 408 1438 l 536 1214 l 399 1214 l 324 1354 l 250 1214 l 114 1214 m 507 1368 l 581 1535 l 731 1535 l 613 1368 l 507 1368 z "},"Ệ":{"ha":594,"x_min":85,"x_max":560,"o":"m 85 0 l 85 1125 l 557 1125 l 557 981 l 290 981 l 290 657 l 500 657 l 500 514 l 290 514 l 290 142 l 560 142 l 560 0 l 85 0 m 114 1214 l 239 1438 l 408 1438 l 536 1214 l 399 1214 l 324 1354 l 250 1214 l 114 1214 m 211 -268 l 211 -93 l 383 -93 l 383 -268 l 211 -268 z "},"Ề":{"ha":594,"x_min":85,"x_max":651,"o":"m 85 0 l 85 1125 l 557 1125 l 557 981 l 290 981 l 290 657 l 500 657 l 500 514 l 290 514 l 290 142 l 560 142 l 560 0 l 85 0 m 114 1214 l 239 1438 l 408 1438 l 536 1214 l 399 1214 l 324 1354 l 250 1214 l 114 1214 m 544 1368 l 428 1535 l 578 1535 l 651 1368 l 544 1368 z "},"Ể":{"ha":594,"x_min":85,"x_max":682,"o":"m 85 0 l 85 1125 l 557 1125 l 557 981 l 290 981 l 290 657 l 500 657 l 500 514 l 290 514 l 290 142 l 560 142 l 560 0 l 85 0 m 553 1335 l 497 1397 q 540 1435 524 1417 q 556 1479 556 1453 q 537 1521 556 1507 q 490 1535 518 1535 q 453 1531 471 1535 q 422 1522 436 1528 l 422 1607 q 475 1621 449 1617 q 531 1625 501 1625 q 638 1594 594 1625 q 681 1496 681 1563 q 643 1397 681 1432 q 553 1335 606 1361 m 114 1214 l 239 1438 l 408 1438 l 536 1214 l 399 1214 l 324 1354 l 250 1214 l 114 1214 z "},"Ễ":{"ha":594,"x_min":85,"x_max":560,"o":"m 85 0 l 85 1125 l 557 1125 l 557 981 l 290 981 l 290 657 l 500 657 l 500 514 l 290 514 l 290 142 l 560 142 l 560 0 l 85 0 m 114 1214 l 239 1438 l 408 1438 l 536 1214 l 399 1214 l 324 1354 l 250 1214 l 114 1214 m 435 1503 q 368 1520 397 1503 q 313 1553 339 1538 q 257 1569 286 1569 q 219 1555 229 1569 q 208 1513 208 1540 l 111 1513 q 122 1602 111 1563 q 158 1665 132 1642 q 229 1688 185 1688 q 292 1672 264 1688 q 347 1640 319 1656 q 403 1624 374 1624 q 437 1638 426 1624 q 447 1679 447 1651 l 539 1679 q 532 1596 539 1636 q 502 1529 525 1556 q 435 1503 479 1503 z "},"Ȅ":{"ha":594,"x_min":33,"x_max":560,"o":"m 85 0 l 85 1125 l 557 1125 l 557 981 l 290 981 l 290 657 l 500 657 l 500 514 l 290 514 l 290 142 l 560 142 l 560 0 l 85 0 m 179 1210 l 33 1472 l 194 1472 l 279 1210 l 179 1210 m 392 1210 l 275 1472 l 419 1472 l 489 1210 l 392 1210 z "},"Ë":{"ha":594,"x_min":85,"x_max":560,"o":"m 85 0 l 85 1125 l 557 1125 l 557 981 l 290 981 l 290 657 l 500 657 l 500 514 l 290 514 l 290 142 l 560 142 l 560 0 l 85 0 m 378 1267 l 378 1447 l 544 1447 l 544 1267 l 378 1267 m 106 1267 l 106 1447 l 272 1447 l 272 1267 l 106 1267 z "},"Ė":{"ha":594,"x_min":85,"x_max":560,"o":"m 85 0 l 85 1125 l 557 1125 l 557 981 l 290 981 l 290 657 l 500 657 l 500 514 l 290 514 l 290 142 l 560 142 l 560 0 l 85 0 m 233 1240 l 233 1431 l 417 1431 l 417 1240 l 233 1240 z "},"Ẹ":{"ha":594,"x_min":85,"x_max":560,"o":"m 85 0 l 85 1125 l 557 1125 l 557 981 l 290 981 l 290 657 l 500 657 l 500 514 l 290 514 l 290 142 l 560 142 l 560 0 l 85 0 m 211 -268 l 211 -93 l 383 -93 l 383 -268 l 211 -268 z "},"È":{"ha":594,"x_min":85,"x_max":560,"o":"m 85 0 l 85 1125 l 557 1125 l 557 981 l 290 981 l 290 657 l 500 657 l 500 514 l 290 514 l 290 142 l 560 142 l 560 0 l 85 0 m 274 1203 l 108 1481 l 300 1481 l 382 1203 l 274 1203 z "},"Ẻ":{"ha":594,"x_min":85,"x_max":560,"o":"m 85 0 l 85 1125 l 557 1125 l 557 981 l 290 981 l 290 657 l 500 657 l 500 514 l 290 514 l 290 142 l 560 142 l 560 0 l 85 0 m 325 1199 l 264 1264 q 331 1301 304 1282 q 358 1349 358 1319 q 335 1388 358 1376 q 276 1400 313 1400 q 237 1397 257 1400 q 199 1390 217 1394 l 199 1475 q 325 1490 258 1490 q 406 1477 369 1490 q 465 1435 443 1464 q 488 1361 488 1407 q 466 1286 488 1317 q 408 1235 444 1256 q 325 1199 371 1215 z "},"Ȇ":{"ha":594,"x_min":85,"x_max":560,"o":"m 85 0 l 85 1125 l 557 1125 l 557 981 l 290 981 l 290 657 l 500 657 l 500 514 l 290 514 l 290 142 l 560 142 l 560 0 l 85 0 m 124 1232 q 145 1345 125 1297 q 210 1419 165 1393 q 325 1446 256 1446 q 440 1419 396 1446 q 506 1345 485 1393 q 526 1232 526 1297 l 418 1232 q 397 1319 418 1292 q 325 1346 375 1346 q 254 1319 275 1346 q 232 1232 233 1292 l 124 1232 z "},"Ē":{"ha":594,"x_min":85,"x_max":560,"o":"m 85 0 l 85 1125 l 557 1125 l 557 981 l 290 981 l 290 657 l 500 657 l 500 514 l 290 514 l 290 142 l 560 142 l 560 0 l 85 0 m 161 1260 l 161 1358 l 489 1358 l 489 1260 l 161 1260 z "},"Ę":{"ha":594,"x_min":85,"x_max":560,"o":"m 85 0 l 85 1125 l 557 1125 l 557 981 l 290 981 l 290 657 l 500 657 l 500 514 l 290 514 l 290 142 l 560 142 l 560 0 l 85 0 m 471 -342 q 398 -337 435 -342 q 331 -318 361 -332 q 282 -278 300 -304 q 264 -207 264 -251 q 283 -125 264 -165 q 333 -51 303 -85 q 394 0 363 -18 l 483 0 q 445 -52 464 -24 q 413 -112 426 -81 q 400 -174 400 -143 q 432 -233 400 -218 q 500 -249 464 -249 q 523 -248 511 -249 q 543 -246 535 -247 l 519 -337 q 497 -340 510 -339 q 471 -342 483 -342 z "},"Ẽ":{"ha":594,"x_min":85,"x_max":560,"o":"m 85 0 l 85 1125 l 557 1125 l 557 981 l 290 981 l 290 657 l 500 657 l 500 514 l 290 514 l 290 142 l 560 142 l 560 0 l 85 0 m 435 1271 q 368 1288 397 1271 q 313 1322 339 1306 q 257 1338 286 1338 q 219 1323 229 1338 q 208 1281 208 1308 l 111 1281 q 122 1370 111 1331 q 158 1433 132 1410 q 229 1456 185 1456 q 292 1440 264 1456 q 347 1408 319 1424 q 403 1392 374 1392 q 437 1406 426 1392 q 447 1447 447 1419 l 539 1447 q 532 1364 539 1404 q 502 1297 525 1324 q 435 1271 479 1271 z "},"Ʒ":{"ha":667,"x_min":36,"x_max":624,"o":"m 331 -17 q 160 23 225 -17 q 66 135 96 63 q 36 306 36 208 l 36 344 l 228 344 q 228 331 228 340 q 228 311 228 321 q 249 180 228 225 q 332 135 271 135 q 383 147 364 135 q 414 183 403 158 q 429 242 425 207 q 433 322 433 278 q 418 467 433 411 q 363 548 403 522 q 250 574 324 574 l 131 574 l 131 682 l 354 983 l 65 983 l 65 1125 l 575 1125 l 575 1019 l 292 635 l 250 688 l 340 688 q 514 642 453 688 q 599 515 575 596 q 624 325 624 433 q 594 147 624 224 q 501 26 565 69 q 331 -17 436 -17 z "},"Ǯ":{"ha":667,"x_min":36,"x_max":624,"o":"m 331 -17 q 160 23 225 -17 q 66 135 96 63 q 36 306 36 208 l 36 344 l 228 344 q 228 331 228 340 q 228 311 228 321 q 249 180 228 225 q 332 135 271 135 q 383 147 364 135 q 414 183 403 158 q 429 242 425 207 q 433 322 433 278 q 418 467 433 411 q 363 548 403 522 q 250 574 324 574 l 131 574 l 131 682 l 354 983 l 65 983 l 65 1125 l 575 1125 l 575 1019 l 292 635 l 250 688 l 340 688 q 514 642 453 688 q 599 515 575 596 q 624 325 624 433 q 594 147 624 224 q 501 26 565 69 q 331 -17 436 -17 m 242 1208 l 119 1458 l 258 1458 l 333 1301 l 408 1458 l 547 1458 l 425 1208 l 242 1208 z "},"F":{"ha":574,"x_min":85,"x_max":547,"o":"m 85 0 l 85 1125 l 547 1125 l 547 983 l 290 983 l 290 656 l 500 656 l 500 513 l 290 513 l 290 0 l 85 0 z "},"Ḟ":{"ha":574,"x_min":85,"x_max":547,"o":"m 85 0 l 85 1125 l 547 1125 l 547 983 l 290 983 l 290 656 l 500 656 l 500 513 l 290 513 l 290 0 l 85 0 m 196 1240 l 196 1431 l 379 1431 l 379 1240 l 196 1240 z "},"G":{"ha":776,"x_min":68,"x_max":704,"o":"m 367 -15 q 190 32 256 -15 q 97 166 125 79 q 68 371 68 253 l 68 749 q 96 957 68 869 q 194 1091 124 1044 q 388 1138 264 1138 q 571 1099 503 1138 q 669 987 639 1060 q 699 810 699 914 l 699 751 l 503 751 l 503 815 q 495 908 503 869 q 465 967 488 947 q 390 988 442 988 q 312 961 336 988 q 281 892 288 935 q 275 797 275 849 l 275 326 q 285 225 275 268 q 321 159 294 182 q 396 136 347 136 q 472 161 446 136 q 509 231 499 186 q 519 336 519 275 l 519 442 l 399 442 l 399 571 l 704 571 l 704 0 l 572 0 l 557 111 q 490 20 535 56 q 367 -15 444 -15 z "},"Ǵ":{"ha":776,"x_min":68,"x_max":704,"o":"m 367 -15 q 190 32 256 -15 q 97 166 125 79 q 68 371 68 253 l 68 749 q 96 957 68 869 q 194 1091 124 1044 q 388 1138 264 1138 q 571 1099 503 1138 q 669 987 639 1060 q 699 810 699 914 l 699 751 l 503 751 l 503 815 q 495 908 503 869 q 465 967 488 947 q 390 988 442 988 q 312 961 336 988 q 281 892 288 935 q 275 797 275 849 l 275 326 q 285 225 275 268 q 321 159 294 182 q 396 136 347 136 q 472 161 446 136 q 509 231 499 186 q 519 336 519 275 l 519 442 l 399 442 l 399 571 l 704 571 l 704 0 l 572 0 l 557 111 q 490 20 535 56 q 367 -15 444 -15 m 332 1203 l 417 1481 l 607 1481 l 442 1203 l 332 1203 z "},"Ğ":{"ha":776,"x_min":68,"x_max":704,"o":"m 367 -15 q 190 32 256 -15 q 97 166 125 79 q 68 371 68 253 l 68 749 q 96 957 68 869 q 194 1091 124 1044 q 388 1138 264 1138 q 571 1099 503 1138 q 669 987 639 1060 q 699 810 699 914 l 699 751 l 503 751 l 503 815 q 495 908 503 869 q 465 967 488 947 q 390 988 442 988 q 312 961 336 988 q 281 892 288 935 q 275 797 275 849 l 275 326 q 285 225 275 268 q 321 159 294 182 q 396 136 347 136 q 472 161 446 136 q 509 231 499 186 q 519 336 519 275 l 519 442 l 399 442 l 399 571 l 704 571 l 704 0 l 572 0 l 557 111 q 490 20 535 56 q 367 -15 444 -15 m 389 1214 q 238 1269 289 1214 q 188 1417 188 1324 l 296 1417 q 317 1340 296 1367 q 389 1314 338 1314 q 460 1341 439 1314 q 481 1417 481 1368 l 589 1417 q 538 1269 589 1324 q 389 1214 488 1214 z "},"Ǧ":{"ha":776,"x_min":68,"x_max":704,"o":"m 367 -15 q 190 32 256 -15 q 97 166 125 79 q 68 371 68 253 l 68 749 q 96 957 68 869 q 194 1091 124 1044 q 388 1138 264 1138 q 571 1099 503 1138 q 669 987 639 1060 q 699 810 699 914 l 699 751 l 503 751 l 503 815 q 495 908 503 869 q 465 967 488 947 q 390 988 442 988 q 312 961 336 988 q 281 892 288 935 q 275 797 275 849 l 275 326 q 285 225 275 268 q 321 159 294 182 q 396 136 347 136 q 472 161 446 136 q 509 231 499 186 q 519 336 519 275 l 519 442 l 399 442 l 399 571 l 704 571 l 704 0 l 572 0 l 557 111 q 490 20 535 56 q 367 -15 444 -15 m 297 1208 l 175 1458 l 314 1458 l 389 1301 l 464 1458 l 603 1458 l 481 1208 l 297 1208 z "},"Ĝ":{"ha":776,"x_min":68,"x_max":704,"o":"m 367 -15 q 190 32 256 -15 q 97 166 125 79 q 68 371 68 253 l 68 749 q 96 957 68 869 q 194 1091 124 1044 q 388 1138 264 1138 q 571 1099 503 1138 q 669 987 639 1060 q 699 810 699 914 l 699 751 l 503 751 l 503 815 q 495 908 503 869 q 465 967 488 947 q 390 988 442 988 q 312 961 336 988 q 281 892 288 935 q 275 797 275 849 l 275 326 q 285 225 275 268 q 321 159 294 182 q 396 136 347 136 q 472 161 446 136 q 509 231 499 186 q 519 336 519 275 l 519 442 l 399 442 l 399 571 l 704 571 l 704 0 l 572 0 l 557 111 q 490 20 535 56 q 367 -15 444 -15 m 178 1214 l 303 1469 l 472 1469 l 600 1214 l 460 1214 l 388 1381 l 317 1214 l 178 1214 z "},"Ģ":{"ha":776,"x_min":68,"x_max":704,"o":"m 367 -15 q 190 32 256 -15 q 97 166 125 79 q 68 371 68 253 l 68 749 q 96 957 68 869 q 194 1091 124 1044 q 388 1138 264 1138 q 571 1099 503 1138 q 669 987 639 1060 q 699 810 699 914 l 699 751 l 503 751 l 503 815 q 495 908 503 869 q 465 967 488 947 q 390 988 442 988 q 312 961 336 988 q 281 892 288 935 q 275 797 275 849 l 275 326 q 285 225 275 268 q 321 159 294 182 q 396 136 347 136 q 472 161 446 136 q 509 231 499 186 q 519 336 519 275 l 519 442 l 399 442 l 399 571 l 704 571 l 704 0 l 572 0 l 557 111 q 490 20 535 56 q 367 -15 444 -15 m 335 -447 l 307 -374 q 372 -346 347 -368 q 396 -274 396 -324 l 297 -274 l 297 -92 l 481 -92 l 479 -254 q 448 -393 479 -342 q 335 -447 417 -444 z "},"Ġ":{"ha":776,"x_min":68,"x_max":704,"o":"m 367 -15 q 190 32 256 -15 q 97 166 125 79 q 68 371 68 253 l 68 749 q 96 957 68 869 q 194 1091 124 1044 q 388 1138 264 1138 q 571 1099 503 1138 q 669 987 639 1060 q 699 810 699 914 l 699 751 l 503 751 l 503 815 q 495 908 503 869 q 465 967 488 947 q 390 988 442 988 q 312 961 336 988 q 281 892 288 935 q 275 797 275 849 l 275 326 q 285 225 275 268 q 321 159 294 182 q 396 136 347 136 q 472 161 446 136 q 509 231 499 186 q 519 336 519 275 l 519 442 l 399 442 l 399 571 l 704 571 l 704 0 l 572 0 l 557 111 q 490 20 535 56 q 367 -15 444 -15 m 297 1240 l 297 1431 l 481 1431 l 481 1240 l 297 1240 z "},"Ǥ":{"ha":776,"x_min":68,"x_max":781,"o":"m 442 275 l 442 383 l 781 383 l 781 275 l 442 275 m 367 -15 q 190 32 256 -15 q 97 166 125 79 q 68 371 68 253 l 68 749 q 96 957 68 869 q 194 1091 124 1044 q 388 1138 264 1138 q 571 1099 503 1138 q 669 987 639 1060 q 699 810 699 914 l 699 751 l 503 751 l 503 815 q 495 908 503 869 q 465 967 488 947 q 390 988 442 988 q 312 961 336 988 q 281 892 288 935 q 275 797 275 849 l 275 326 q 285 225 275 268 q 321 159 294 182 q 396 136 347 136 q 472 161 446 136 q 509 231 499 186 q 519 336 519 275 l 519 442 l 399 442 l 399 571 l 704 571 l 704 0 l 572 0 l 557 111 q 490 20 535 56 q 367 -15 444 -15 z "},"H":{"ha":814,"x_min":88,"x_max":726,"o":"m 88 0 l 88 1125 l 292 1125 l 292 654 l 521 654 l 521 1125 l 726 1125 l 726 0 l 521 0 l 521 508 l 292 508 l 292 0 l 88 0 z "},"Ħ":{"ha":764,"x_min":1,"x_max":763,"o":"m 69 0 l 69 857 l 1 857 l 1 936 l 69 936 l 69 1125 l 274 1125 l 274 936 l 497 936 l 497 1125 l 703 1125 l 703 936 l 763 936 l 763 857 l 703 857 l 703 0 l 497 0 l 497 508 l 274 508 l 274 0 l 69 0 m 274 654 l 497 654 l 497 857 l 274 857 l 274 654 z "},"Ȟ":{"ha":814,"x_min":88,"x_max":726,"o":"m 88 0 l 88 1125 l 292 1125 l 292 654 l 521 654 l 521 1125 l 726 1125 l 726 0 l 521 0 l 521 508 l 292 508 l 292 0 l 88 0 m 315 1208 l 193 1458 l 332 1458 l 407 1301 l 482 1458 l 621 1458 l 499 1208 l 315 1208 z "},"Ĥ":{"ha":814,"x_min":88,"x_max":726,"o":"m 88 0 l 88 1125 l 292 1125 l 292 654 l 521 654 l 521 1125 l 726 1125 l 726 0 l 521 0 l 521 508 l 292 508 l 292 0 l 88 0 m 196 1214 l 321 1469 l 490 1469 l 618 1214 l 478 1214 l 406 1381 l 335 1214 l 196 1214 z "},"I":{"ha":382,"x_min":90,"x_max":293,"o":"m 90 0 l 90 1125 l 293 1125 l 293 0 l 90 0 z "},"Ĳ":{"ha":835,"x_min":90,"x_max":749,"o":"m 90 0 l 90 1125 l 293 1125 l 293 0 l 90 0 m 396 -28 l 396 117 q 469 122 440 117 q 515 142 499 128 q 538 185 531 157 q 544 258 544 214 l 544 1125 l 749 1125 l 749 250 q 726 94 749 156 q 649 2 704 32 q 494 -28 594 -28 l 396 -28 z "},"Í":{"ha":382,"x_min":90,"x_max":410,"o":"m 90 0 l 90 1125 l 293 1125 l 293 0 l 90 0 m 133 1203 l 218 1481 l 408 1481 l 243 1203 l 133 1203 z "},"Ĭ":{"ha":382,"x_min":-10,"x_max":392,"o":"m 90 0 l 90 1125 l 293 1125 l 293 0 l 90 0 m 192 1214 q 41 1269 92 1214 q -10 1417 -10 1324 l 99 1417 q 119 1340 99 1367 q 192 1314 140 1314 q 263 1341 242 1314 q 283 1417 283 1368 l 392 1417 q 341 1269 392 1324 q 192 1214 290 1214 z "},"Î":{"ha":382,"x_min":-21,"x_max":403,"o":"m 90 0 l 90 1125 l 293 1125 l 293 0 l 90 0 m -21 1214 l 104 1469 l 274 1469 l 401 1214 l 261 1214 l 189 1381 l 118 1214 l -21 1214 z "},"Ȉ":{"ha":382,"x_min":-101,"x_max":356,"o":"m 90 0 l 90 1125 l 293 1125 l 293 0 l 90 0 m 44 1210 l -101 1472 l 60 1472 l 144 1210 l 44 1210 m 257 1210 l 140 1472 l 285 1472 l 354 1210 l 257 1210 z "},"Ï":{"ha":382,"x_min":-28,"x_max":410,"o":"m 90 0 l 90 1125 l 293 1125 l 293 0 l 90 0 m 243 1267 l 243 1447 l 410 1447 l 410 1267 l 243 1267 m -29 1267 l -29 1447 l 138 1447 l 138 1267 l -29 1267 z "},"İ":{"ha":382,"x_min":90,"x_max":293,"o":"m 90 0 l 90 1125 l 293 1125 l 293 0 l 90 0 m 99 1240 l 99 1431 l 282 1431 l 282 1240 l 99 1240 z "},"Ị":{"ha":382,"x_min":90,"x_max":293,"o":"m 90 0 l 90 1125 l 293 1125 l 293 0 l 90 0 m 104 -268 l 104 -93 l 276 -93 l 276 -268 l 104 -268 z "},"Ì":{"ha":382,"x_min":-26,"x_max":293,"o":"m 90 0 l 90 1125 l 293 1125 l 293 0 l 90 0 m 139 1203 l -26 1481 l 165 1481 l 247 1203 l 139 1203 z "},"Ỉ":{"ha":382,"x_min":64,"x_max":354,"o":"m 90 0 l 90 1125 l 293 1125 l 293 0 l 90 0 m 190 1199 l 129 1264 q 197 1301 169 1282 q 224 1349 224 1319 q 201 1388 224 1376 q 142 1400 178 1400 q 102 1397 122 1400 q 64 1390 82 1394 l 64 1475 q 190 1490 124 1490 q 272 1477 235 1490 q 331 1435 308 1464 q 353 1361 353 1407 q 331 1286 353 1317 q 273 1235 310 1256 q 190 1199 236 1215 z "},"Ȋ":{"ha":382,"x_min":-10,"x_max":392,"o":"m 90 0 l 90 1125 l 293 1125 l 293 0 l 90 0 m -11 1232 q 10 1345 -10 1297 q 76 1419 31 1393 q 190 1446 121 1446 q 306 1419 261 1446 q 371 1345 350 1393 q 392 1232 392 1297 l 283 1232 q 262 1319 283 1292 q 190 1346 240 1346 q 119 1319 140 1346 q 97 1232 99 1292 l -11 1232 z "},"Ī":{"ha":382,"x_min":28,"x_max":354,"o":"m 90 0 l 90 1125 l 293 1125 l 293 0 l 90 0 m 26 1260 l 26 1358 l 354 1358 l 354 1260 l 26 1260 z "},"Į":{"ha":382,"x_min":18,"x_max":297,"o":"m 90 0 l 90 1125 l 293 1125 l 293 0 l 90 0 m 225 -342 q 152 -337 189 -342 q 85 -318 115 -332 q 36 -278 54 -304 q 18 -207 18 -251 q 38 -125 18 -165 q 87 -51 57 -85 q 149 0 117 -18 l 238 0 q 199 -52 218 -24 q 167 -112 181 -81 q 154 -174 154 -143 q 186 -233 154 -218 q 254 -249 218 -249 q 277 -248 265 -249 q 297 -246 289 -247 l 274 -337 q 251 -340 264 -339 q 225 -342 238 -342 z "},"Ĩ":{"ha":382,"x_min":-24,"x_max":406,"o":"m 90 0 l 90 1125 l 293 1125 l 293 0 l 90 0 m 300 1271 q 233 1288 263 1271 q 178 1322 204 1306 q 122 1338 151 1338 q 84 1323 94 1338 q 74 1281 74 1308 l -24 1281 q -13 1370 -24 1331 q 24 1433 -3 1410 q 94 1456 50 1456 q 157 1440 129 1456 q 212 1408 185 1424 q 268 1392 239 1392 q 302 1406 292 1392 q 313 1447 313 1419 l 404 1447 q 397 1364 404 1404 q 367 1297 390 1324 q 300 1271 344 1271 z "},"J":{"ha":453,"x_min":14,"x_max":367,"o":"m 14 -28 l 14 117 q 88 122 58 117 q 133 142 117 128 q 156 185 149 157 q 163 258 163 214 l 163 1125 l 367 1125 l 367 250 q 344 94 367 156 q 267 2 322 32 q 113 -28 213 -28 l 14 -28 z "},"Ĵ":{"ha":453,"x_min":14,"x_max":476,"o":"m 14 -28 l 14 117 q 88 122 58 117 q 133 142 117 128 q 156 185 149 157 q 163 258 163 214 l 163 1125 l 367 1125 l 367 250 q 344 94 367 156 q 267 2 322 32 q 113 -28 213 -28 l 14 -28 m 54 1214 l 179 1469 l 349 1469 l 476 1214 l 336 1214 l 264 1381 l 193 1214 l 54 1214 z "},"K":{"ha":739,"x_min":85,"x_max":731,"o":"m 85 0 l 85 1125 l 290 1125 l 290 631 l 513 1125 l 708 1125 l 493 622 l 731 0 l 526 0 l 338 513 l 290 426 l 290 0 l 85 0 z "},"Ǩ":{"ha":739,"x_min":85,"x_max":731,"o":"m 85 0 l 85 1125 l 290 1125 l 290 631 l 513 1125 l 708 1125 l 493 622 l 731 0 l 526 0 l 338 513 l 290 426 l 290 0 l 85 0 m 288 1208 l 165 1458 l 304 1458 l 379 1301 l 454 1458 l 593 1458 l 471 1208 l 288 1208 z "},"Ķ":{"ha":739,"x_min":85,"x_max":731,"o":"m 85 0 l 85 1125 l 290 1125 l 290 631 l 513 1125 l 708 1125 l 493 622 l 731 0 l 526 0 l 338 513 l 290 426 l 290 0 l 85 0 m 317 -447 l 289 -374 q 353 -346 329 -368 q 378 -274 378 -324 l 279 -274 l 279 -92 l 463 -92 l 461 -254 q 430 -393 461 -342 q 317 -447 399 -444 z "},"L":{"ha":585,"x_min":85,"x_max":563,"o":"m 85 0 l 85 1125 l 290 1125 l 290 142 l 563 142 l 563 0 l 85 0 z "},"Ǉ":{"ha":1038,"x_min":85,"x_max":951,"o":"m 85 0 l 85 1125 l 290 1125 l 290 142 l 563 142 l 563 0 l 85 0 m 599 -28 l 599 117 q 672 122 643 117 q 717 142 701 128 q 740 185 733 157 q 747 258 747 214 l 747 1125 l 951 1125 l 951 250 q 929 94 951 156 q 852 2 907 32 q 697 -28 797 -28 l 599 -28 z "},"Ĺ":{"ha":585,"x_min":85,"x_max":563,"o":"m 85 0 l 85 1125 l 290 1125 l 290 142 l 563 142 l 563 0 l 85 0 m 131 1203 l 215 1481 l 406 1481 l 240 1203 l 131 1203 z "},"Ľ":{"ha":585,"x_min":85,"x_max":583,"o":"m 85 0 l 85 1125 l 290 1125 l 290 142 l 563 142 l 563 0 l 85 0 m 428 749 l 408 818 q 472 858 446 829 q 499 938 499 886 l 399 938 l 399 1125 l 583 1125 l 583 953 q 544 815 583 865 q 428 749 506 764 z "},"Ļ":{"ha":585,"x_min":85,"x_max":563,"o":"m 85 0 l 85 1125 l 290 1125 l 290 142 l 563 142 l 563 0 l 85 0 m 269 -447 l 242 -374 q 306 -346 282 -368 q 331 -274 331 -324 l 232 -274 l 232 -92 l 415 -92 l 414 -254 q 383 -393 414 -342 q 269 -447 351 -444 z "},"Ŀ":{"ha":585,"x_min":85,"x_max":563,"o":"m 85 0 l 85 1125 l 290 1125 l 290 142 l 563 142 l 563 0 l 85 0 m 414 528 l 414 710 l 546 710 l 546 528 l 414 528 z "},"ǈ":{"ha":936,"x_min":85,"x_max":867,"o":"m 85 0 l 85 1125 l 290 1125 l 290 142 l 563 142 l 563 0 l 85 0 m 665 -228 q 614 -224 640 -228 q 565 -212 588 -219 l 565 -78 q 585 -81 574 -79 q 606 -82 597 -82 q 646 -72 631 -82 q 669 -44 661 -62 q 676 0 676 -26 l 676 803 l 865 803 l 865 -22 q 813 -172 865 -117 q 665 -228 761 -228 m 676 931 l 676 1088 l 867 1088 l 867 931 l 676 931 z "},"Ł":{"ha":589,"x_min":1,"x_max":568,"o":"m 92 0 l 92 510 l 1 464 l 1 593 l 92 639 l 92 1125 l 296 1125 l 296 742 l 436 814 l 436 685 l 296 613 l 296 142 l 568 142 l 568 0 l 92 0 z "},"M":{"ha":949,"x_min":82,"x_max":867,"o":"m 82 0 l 101 1125 l 314 1125 l 474 346 l 640 1125 l 846 1125 l 867 0 l 714 0 l 697 782 l 538 0 l 414 0 l 251 785 l 236 0 l 82 0 z "},"Ṁ":{"ha":949,"x_min":82,"x_max":867,"o":"m 82 0 l 101 1125 l 314 1125 l 474 346 l 640 1125 l 846 1125 l 867 0 l 714 0 l 697 782 l 538 0 l 414 0 l 251 785 l 236 0 l 82 0 m 382 1240 l 382 1431 l 565 1431 l 565 1240 l 382 1240 z "},"N":{"ha":757,"x_min":85,"x_max":671,"o":"m 85 0 l 85 1125 l 228 1125 l 501 483 l 501 1125 l 671 1125 l 671 0 l 535 0 l 260 672 l 260 0 l 85 0 z "},"Ǌ":{"ha":1210,"x_min":85,"x_max":1124,"o":"m 85 0 l 85 1125 l 228 1125 l 501 483 l 501 1125 l 671 1125 l 671 0 l 535 0 l 260 672 l 260 0 l 85 0 m 771 -28 l 771 117 q 844 122 815 117 q 890 142 874 128 q 913 185 906 157 q 919 258 919 214 l 919 1125 l 1124 1125 l 1124 250 q 1101 94 1124 156 q 1024 2 1079 32 q 869 -28 969 -28 l 771 -28 z "},"Ń":{"ha":757,"x_min":85,"x_max":671,"o":"m 85 0 l 85 1125 l 228 1125 l 501 483 l 501 1125 l 671 1125 l 671 0 l 535 0 l 260 672 l 260 0 l 85 0 m 321 1203 l 406 1481 l 596 1481 l 431 1203 l 321 1203 z "},"Ň":{"ha":757,"x_min":85,"x_max":671,"o":"m 85 0 l 85 1125 l 228 1125 l 501 483 l 501 1125 l 671 1125 l 671 0 l 535 0 l 260 672 l 260 0 l 85 0 m 286 1208 l 164 1458 l 303 1458 l 378 1301 l 453 1458 l 592 1458 l 469 1208 l 286 1208 z "},"Ņ":{"ha":757,"x_min":85,"x_max":671,"o":"m 85 0 l 85 1125 l 228 1125 l 501 483 l 501 1125 l 671 1125 l 671 0 l 535 0 l 260 672 l 260 0 l 85 0 m 324 -447 l 296 -374 q 360 -346 336 -368 q 385 -274 385 -324 l 286 -274 l 286 -92 l 469 -92 l 468 -254 q 437 -393 468 -342 q 324 -447 406 -444 z "},"Ŋ":{"ha":764,"x_min":88,"x_max":674,"o":"m 356 -272 l 356 -144 q 456 -132 422 -144 q 501 -88 489 -119 q 514 -4 514 -57 l 514 83 l 257 672 l 257 0 l 88 0 l 88 1125 l 231 1125 l 508 483 l 508 1125 l 674 1125 l 674 0 q 654 -150 674 -89 q 583 -242 635 -211 q 433 -272 531 -272 l 356 -272 z "},"ǋ":{"ha":1110,"x_min":85,"x_max":1039,"o":"m 85 0 l 85 1125 l 228 1125 l 501 483 l 501 1125 l 671 1125 l 671 0 l 535 0 l 260 672 l 260 0 l 85 0 m 838 -228 q 786 -224 813 -228 q 738 -212 760 -219 l 738 -78 q 758 -81 746 -79 q 778 -82 769 -82 q 818 -72 803 -82 q 841 -44 833 -62 q 849 0 849 -26 l 849 803 l 1038 803 l 1038 -22 q 985 -172 1038 -117 q 838 -228 933 -228 m 849 931 l 849 1088 l 1039 1088 l 1039 931 l 849 931 z "},"Ñ":{"ha":757,"x_min":85,"x_max":671,"o":"m 85 0 l 85 1125 l 228 1125 l 501 483 l 501 1125 l 671 1125 l 671 0 l 535 0 l 260 672 l 260 0 l 85 0 m 488 1271 q 421 1288 450 1271 q 365 1322 392 1306 q 310 1338 339 1338 q 272 1323 282 1338 q 261 1281 261 1308 l 164 1281 q 174 1370 164 1331 q 211 1433 185 1410 q 282 1456 238 1456 q 344 1440 317 1456 q 399 1408 372 1424 q 456 1392 426 1392 q 490 1406 479 1392 q 500 1447 500 1419 l 592 1447 q 585 1364 592 1404 q 555 1297 578 1324 q 488 1271 532 1271 z "},"O":{"ha":782,"x_min":68,"x_max":715,"o":"m 390 -15 q 200 29 271 -15 q 99 157 129 74 q 68 354 68 240 l 68 775 q 99 970 68 889 q 200 1094 129 1051 q 390 1138 271 1138 q 583 1094 513 1138 q 684 970 653 1051 q 715 775 715 889 l 715 353 q 684 158 715 240 q 583 30 653 75 q 390 -15 513 -15 m 390 136 q 466 158 442 136 q 499 219 490 181 q 507 304 507 258 l 507 822 q 499 907 507 869 q 466 966 490 944 q 390 988 442 988 q 317 966 342 988 q 283 907 292 944 q 275 822 275 869 l 275 304 q 283 219 275 258 q 315 158 290 181 q 390 136 340 136 z "},"Ó":{"ha":782,"x_min":68,"x_max":715,"o":"m 390 -15 q 200 29 271 -15 q 99 157 129 74 q 68 354 68 240 l 68 775 q 99 970 68 889 q 200 1094 129 1051 q 390 1138 271 1138 q 583 1094 513 1138 q 684 970 653 1051 q 715 775 715 889 l 715 353 q 684 158 715 240 q 583 30 653 75 q 390 -15 513 -15 m 390 136 q 466 158 442 136 q 499 219 490 181 q 507 304 507 258 l 507 822 q 499 907 507 869 q 466 966 490 944 q 390 988 442 988 q 317 966 342 988 q 283 907 292 944 q 275 822 275 869 l 275 304 q 283 219 275 258 q 315 158 290 181 q 390 136 340 136 m 335 1203 l 419 1481 l 610 1481 l 444 1203 l 335 1203 z "},"Ŏ":{"ha":782,"x_min":68,"x_max":715,"o":"m 390 -15 q 200 29 271 -15 q 99 157 129 74 q 68 354 68 240 l 68 775 q 99 970 68 889 q 200 1094 129 1051 q 390 1138 271 1138 q 583 1094 513 1138 q 684 970 653 1051 q 715 775 715 889 l 715 353 q 684 158 715 240 q 583 30 653 75 q 390 -15 513 -15 m 390 136 q 466 158 442 136 q 499 219 490 181 q 507 304 507 258 l 507 822 q 499 907 507 869 q 466 966 490 944 q 390 988 442 988 q 317 966 342 988 q 283 907 292 944 q 275 822 275 869 l 275 304 q 283 219 275 258 q 315 158 290 181 q 390 136 340 136 m 392 1214 q 241 1269 292 1214 q 190 1417 190 1324 l 299 1417 q 319 1340 299 1367 q 392 1314 340 1314 q 463 1341 442 1314 q 483 1417 483 1368 l 592 1417 q 541 1269 592 1324 q 392 1214 490 1214 z "},"Ô":{"ha":782,"x_min":68,"x_max":715,"o":"m 390 -15 q 200 29 271 -15 q 99 157 129 74 q 68 354 68 240 l 68 775 q 99 970 68 889 q 200 1094 129 1051 q 390 1138 271 1138 q 583 1094 513 1138 q 684 970 653 1051 q 715 775 715 889 l 715 353 q 684 158 715 240 q 583 30 653 75 q 390 -15 513 -15 m 390 136 q 466 158 442 136 q 499 219 490 181 q 507 304 507 258 l 507 822 q 499 907 507 869 q 466 966 490 944 q 390 988 442 988 q 317 966 342 988 q 283 907 292 944 q 275 822 275 869 l 275 304 q 283 219 275 258 q 315 158 290 181 q 390 136 340 136 m 181 1214 l 306 1469 l 475 1469 l 603 1214 l 463 1214 l 390 1381 l 319 1214 l 181 1214 z "},"Ố":{"ha":782,"x_min":68,"x_max":796,"o":"m 390 -15 q 200 29 271 -15 q 99 157 129 74 q 68 354 68 240 l 68 775 q 99 970 68 889 q 200 1094 129 1051 q 390 1138 271 1138 q 583 1094 513 1138 q 684 970 653 1051 q 715 775 715 889 l 715 353 q 684 158 715 240 q 583 30 653 75 q 390 -15 513 -15 m 390 136 q 466 158 442 136 q 499 219 490 181 q 507 304 507 258 l 507 822 q 499 907 507 869 q 466 966 490 944 q 390 988 442 988 q 317 966 342 988 q 283 907 292 944 q 275 822 275 869 l 275 304 q 283 219 275 258 q 315 158 290 181 q 390 136 340 136 m 181 1214 l 306 1438 l 475 1438 l 603 1214 l 465 1214 l 390 1354 l 317 1214 l 181 1214 m 574 1368 l 647 1535 l 797 1535 l 679 1368 l 574 1368 z "},"Ộ":{"ha":782,"x_min":68,"x_max":715,"o":"m 390 -15 q 200 29 271 -15 q 99 157 129 74 q 68 354 68 240 l 68 775 q 99 970 68 889 q 200 1094 129 1051 q 390 1138 271 1138 q 583 1094 513 1138 q 684 970 653 1051 q 715 775 715 889 l 715 353 q 684 158 715 240 q 583 30 653 75 q 390 -15 513 -15 m 390 136 q 466 158 442 136 q 499 219 490 181 q 507 304 507 258 l 507 822 q 499 907 507 869 q 466 966 490 944 q 390 988 442 988 q 317 966 342 988 q 283 907 292 944 q 275 822 275 869 l 275 304 q 283 219 275 258 q 315 158 290 181 q 390 136 340 136 m 181 1214 l 306 1438 l 475 1438 l 603 1214 l 465 1214 l 390 1354 l 317 1214 l 181 1214 m 306 -268 l 306 -93 l 478 -93 l 478 -268 l 306 -268 z "},"Ồ":{"ha":782,"x_min":68,"x_max":718,"o":"m 390 -15 q 200 29 271 -15 q 99 157 129 74 q 68 354 68 240 l 68 775 q 99 970 68 889 q 200 1094 129 1051 q 390 1138 271 1138 q 583 1094 513 1138 q 684 970 653 1051 q 715 775 715 889 l 715 353 q 684 158 715 240 q 583 30 653 75 q 390 -15 513 -15 m 390 136 q 466 158 442 136 q 499 219 490 181 q 507 304 507 258 l 507 822 q 499 907 507 869 q 466 966 490 944 q 390 988 442 988 q 317 966 342 988 q 283 907 292 944 q 275 822 275 869 l 275 304 q 283 219 275 258 q 315 158 290 181 q 390 136 340 136 m 181 1214 l 306 1438 l 475 1438 l 603 1214 l 465 1214 l 390 1354 l 317 1214 l 181 1214 m 611 1368 l 494 1535 l 644 1535 l 718 1368 l 611 1368 z "},"Ổ":{"ha":782,"x_min":68,"x_max":747,"o":"m 390 -15 q 200 29 271 -15 q 99 157 129 74 q 68 354 68 240 l 68 775 q 99 970 68 889 q 200 1094 129 1051 q 390 1138 271 1138 q 583 1094 513 1138 q 684 970 653 1051 q 715 775 715 889 l 715 353 q 684 158 715 240 q 583 30 653 75 q 390 -15 513 -15 m 390 136 q 466 158 442 136 q 499 219 490 181 q 507 304 507 258 l 507 822 q 499 907 507 869 q 466 966 490 944 q 390 988 442 988 q 317 966 342 988 q 283 907 292 944 q 275 822 275 869 l 275 304 q 283 219 275 258 q 315 158 290 181 q 390 136 340 136 m 619 1335 l 564 1397 q 606 1435 590 1417 q 622 1479 622 1453 q 603 1521 622 1507 q 557 1535 585 1535 q 520 1531 538 1535 q 489 1522 503 1528 l 489 1607 q 542 1621 515 1617 q 597 1625 568 1625 q 704 1594 661 1625 q 747 1496 747 1563 q 710 1397 747 1432 q 619 1335 672 1361 m 181 1214 l 306 1438 l 475 1438 l 603 1214 l 465 1214 l 390 1354 l 317 1214 l 181 1214 z "},"Ỗ":{"ha":782,"x_min":68,"x_max":715,"o":"m 390 -15 q 200 29 271 -15 q 99 157 129 74 q 68 354 68 240 l 68 775 q 99 970 68 889 q 200 1094 129 1051 q 390 1138 271 1138 q 583 1094 513 1138 q 684 970 653 1051 q 715 775 715 889 l 715 353 q 684 158 715 240 q 583 30 653 75 q 390 -15 513 -15 m 390 136 q 466 158 442 136 q 499 219 490 181 q 507 304 507 258 l 507 822 q 499 907 507 869 q 466 966 490 944 q 390 988 442 988 q 317 966 342 988 q 283 907 292 944 q 275 822 275 869 l 275 304 q 283 219 275 258 q 315 158 290 181 q 390 136 340 136 m 181 1214 l 306 1438 l 475 1438 l 603 1214 l 465 1214 l 390 1354 l 317 1214 l 181 1214 m 501 1503 q 435 1520 464 1503 q 379 1553 406 1538 q 324 1569 353 1569 q 285 1555 296 1569 q 275 1513 275 1540 l 178 1513 q 188 1602 178 1563 q 225 1665 199 1642 q 296 1688 251 1688 q 358 1672 331 1688 q 413 1640 386 1656 q 469 1624 440 1624 q 503 1638 493 1624 q 514 1679 514 1651 l 606 1679 q 599 1596 606 1636 q 569 1529 592 1556 q 501 1503 546 1503 z "},"Ȍ":{"ha":782,"x_min":68,"x_max":715,"o":"m 390 -15 q 200 29 271 -15 q 99 157 129 74 q 68 354 68 240 l 68 775 q 99 970 68 889 q 200 1094 129 1051 q 390 1138 271 1138 q 583 1094 513 1138 q 684 970 653 1051 q 715 775 715 889 l 715 353 q 684 158 715 240 q 583 30 653 75 q 390 -15 513 -15 m 390 136 q 466 158 442 136 q 499 219 490 181 q 507 304 507 258 l 507 822 q 499 907 507 869 q 466 966 490 944 q 390 988 442 988 q 317 966 342 988 q 283 907 292 944 q 275 822 275 869 l 275 304 q 283 219 275 258 q 315 158 290 181 q 390 136 340 136 m 246 1210 l 100 1472 l 261 1472 l 346 1210 l 246 1210 m 458 1210 l 342 1472 l 486 1472 l 556 1210 l 458 1210 z "},"Ö":{"ha":782,"x_min":68,"x_max":715,"o":"m 390 -15 q 200 29 271 -15 q 99 157 129 74 q 68 354 68 240 l 68 775 q 99 970 68 889 q 200 1094 129 1051 q 390 1138 271 1138 q 583 1094 513 1138 q 684 970 653 1051 q 715 775 715 889 l 715 353 q 684 158 715 240 q 583 30 653 75 q 390 -15 513 -15 m 390 136 q 466 158 442 136 q 499 219 490 181 q 507 304 507 258 l 507 822 q 499 907 507 869 q 466 966 490 944 q 390 988 442 988 q 317 966 342 988 q 283 907 292 944 q 275 822 275 869 l 275 304 q 283 219 275 258 q 315 158 290 181 q 390 136 340 136 m 444 1267 l 444 1447 l 611 1447 l 611 1267 l 444 1267 m 172 1267 l 172 1447 l 339 1447 l 339 1267 l 172 1267 z "},"Ȫ":{"ha":782,"x_min":68,"x_max":715,"o":"m 390 -15 q 200 29 271 -15 q 99 157 129 74 q 68 354 68 240 l 68 775 q 99 970 68 889 q 200 1094 129 1051 q 390 1138 271 1138 q 583 1094 513 1138 q 684 970 653 1051 q 715 775 715 889 l 715 353 q 684 158 715 240 q 583 30 653 75 q 390 -15 513 -15 m 390 136 q 466 158 442 136 q 499 219 490 181 q 507 304 507 258 l 507 822 q 499 907 507 869 q 466 966 490 944 q 390 988 442 988 q 317 966 342 988 q 283 907 292 944 q 275 822 275 869 l 275 304 q 283 219 275 258 q 315 158 290 181 q 390 136 340 136 m 444 1267 l 444 1447 l 611 1447 l 611 1267 l 444 1267 m 172 1267 l 172 1447 l 339 1447 l 339 1267 l 172 1267 m 228 1582 l 228 1681 l 556 1681 l 556 1582 l 228 1582 z "},"Ȱ":{"ha":782,"x_min":68,"x_max":715,"o":"m 390 -15 q 200 29 271 -15 q 99 157 129 74 q 68 354 68 240 l 68 775 q 99 970 68 889 q 200 1094 129 1051 q 390 1138 271 1138 q 583 1094 513 1138 q 684 970 653 1051 q 715 775 715 889 l 715 353 q 684 158 715 240 q 583 30 653 75 q 390 -15 513 -15 m 390 136 q 466 158 442 136 q 499 219 490 181 q 507 304 507 258 l 507 822 q 499 907 507 869 q 466 966 490 944 q 390 988 442 988 q 317 966 342 988 q 283 907 292 944 q 275 822 275 869 l 275 304 q 283 219 275 258 q 315 158 290 181 q 390 136 340 136 m 300 1240 l 300 1431 l 483 1431 l 483 1240 l 300 1240 m 228 1565 l 228 1664 l 556 1664 l 556 1565 l 228 1565 z "},"Ọ":{"ha":782,"x_min":68,"x_max":715,"o":"m 390 -15 q 200 29 271 -15 q 99 157 129 74 q 68 354 68 240 l 68 775 q 99 970 68 889 q 200 1094 129 1051 q 390 1138 271 1138 q 583 1094 513 1138 q 684 970 653 1051 q 715 775 715 889 l 715 353 q 684 158 715 240 q 583 30 653 75 q 390 -15 513 -15 m 390 136 q 466 158 442 136 q 499 219 490 181 q 507 304 507 258 l 507 822 q 499 907 507 869 q 466 966 490 944 q 390 988 442 988 q 317 966 342 988 q 283 907 292 944 q 275 822 275 869 l 275 304 q 283 219 275 258 q 315 158 290 181 q 390 136 340 136 m 306 -268 l 306 -93 l 478 -93 l 478 -268 l 306 -268 z "},"Ò":{"ha":782,"x_min":68,"x_max":715,"o":"m 390 -15 q 200 29 271 -15 q 99 157 129 74 q 68 354 68 240 l 68 775 q 99 970 68 889 q 200 1094 129 1051 q 390 1138 271 1138 q 583 1094 513 1138 q 684 970 653 1051 q 715 775 715 889 l 715 353 q 684 158 715 240 q 583 30 653 75 q 390 -15 513 -15 m 390 136 q 466 158 442 136 q 499 219 490 181 q 507 304 507 258 l 507 822 q 499 907 507 869 q 466 966 490 944 q 390 988 442 988 q 317 966 342 988 q 283 907 292 944 q 275 822 275 869 l 275 304 q 283 219 275 258 q 315 158 290 181 q 390 136 340 136 m 340 1203 l 175 1481 l 367 1481 l 449 1203 l 340 1203 z "},"Ỏ":{"ha":782,"x_min":68,"x_max":715,"o":"m 390 -15 q 200 29 271 -15 q 99 157 129 74 q 68 354 68 240 l 68 775 q 99 970 68 889 q 200 1094 129 1051 q 390 1138 271 1138 q 583 1094 513 1138 q 684 970 653 1051 q 715 775 715 889 l 715 353 q 684 158 715 240 q 583 30 653 75 q 390 -15 513 -15 m 390 136 q 466 158 442 136 q 499 219 490 181 q 507 304 507 258 l 507 822 q 499 907 507 869 q 466 966 490 944 q 390 988 442 988 q 317 966 342 988 q 283 907 292 944 q 275 822 275 869 l 275 304 q 283 219 275 258 q 315 158 290 181 q 390 136 340 136 m 392 1199 l 331 1264 q 398 1301 371 1282 q 425 1349 425 1319 q 402 1388 425 1376 q 343 1400 379 1400 q 303 1397 324 1400 q 265 1390 283 1394 l 265 1475 q 392 1490 325 1490 q 473 1477 436 1490 q 532 1435 510 1464 q 554 1361 554 1407 q 533 1286 554 1317 q 474 1235 511 1256 q 392 1199 438 1215 z "},"Ơ":{"ha":782,"x_min":68,"x_max":715,"o":"m 390 -15 q 200 29 271 -15 q 99 157 129 74 q 68 354 68 240 l 68 775 q 99 970 68 889 q 200 1094 129 1051 q 390 1138 271 1138 q 583 1094 513 1138 q 684 970 653 1051 q 715 775 715 889 l 715 353 q 684 158 715 240 q 583 30 653 75 q 390 -15 513 -15 m 390 136 q 466 158 442 136 q 499 219 490 181 q 507 304 507 258 l 507 822 q 499 907 507 869 q 466 966 490 944 q 390 988 442 988 q 317 966 342 988 q 283 907 292 944 q 275 822 275 869 l 275 304 q 283 219 275 258 q 315 158 290 181 q 390 136 340 136 m 457 1040 l 457 1125 l 485 1125 q 543 1153 526 1125 q 560 1236 560 1181 l 697 1236 q 640 1090 697 1139 q 486 1040 583 1040 l 457 1040 z "},"Ớ":{"ha":782,"x_min":68,"x_max":715,"o":"m 390 -15 q 200 29 271 -15 q 99 157 129 74 q 68 354 68 240 l 68 775 q 99 970 68 889 q 200 1094 129 1051 q 390 1138 271 1138 q 583 1094 513 1138 q 684 970 653 1051 q 715 775 715 889 l 715 353 q 684 158 715 240 q 583 30 653 75 q 390 -15 513 -15 m 390 136 q 466 158 442 136 q 499 219 490 181 q 507 304 507 258 l 507 822 q 499 907 507 869 q 466 966 490 944 q 390 988 442 988 q 317 966 342 988 q 283 907 292 944 q 275 822 275 869 l 275 304 q 283 219 275 258 q 315 158 290 181 q 390 136 340 136 m 457 1040 l 457 1125 l 485 1125 q 543 1153 526 1125 q 560 1236 560 1181 l 697 1236 q 640 1090 697 1139 q 486 1040 583 1040 l 457 1040 m 335 1203 l 419 1481 l 610 1481 l 444 1203 l 335 1203 z "},"Ợ":{"ha":782,"x_min":68,"x_max":715,"o":"m 390 -15 q 200 29 271 -15 q 99 157 129 74 q 68 354 68 240 l 68 775 q 99 970 68 889 q 200 1094 129 1051 q 390 1138 271 1138 q 583 1094 513 1138 q 684 970 653 1051 q 715 775 715 889 l 715 353 q 684 158 715 240 q 583 30 653 75 q 390 -15 513 -15 m 390 136 q 466 158 442 136 q 499 219 490 181 q 507 304 507 258 l 507 822 q 499 907 507 869 q 466 966 490 944 q 390 988 442 988 q 317 966 342 988 q 283 907 292 944 q 275 822 275 869 l 275 304 q 283 219 275 258 q 315 158 290 181 q 390 136 340 136 m 457 1040 l 457 1125 l 485 1125 q 543 1153 526 1125 q 560 1236 560 1181 l 697 1236 q 640 1090 697 1139 q 486 1040 583 1040 l 457 1040 m 306 -268 l 306 -93 l 478 -93 l 478 -268 l 306 -268 z "},"Ờ":{"ha":782,"x_min":68,"x_max":715,"o":"m 390 -15 q 200 29 271 -15 q 99 157 129 74 q 68 354 68 240 l 68 775 q 99 970 68 889 q 200 1094 129 1051 q 390 1138 271 1138 q 583 1094 513 1138 q 684 970 653 1051 q 715 775 715 889 l 715 353 q 684 158 715 240 q 583 30 653 75 q 390 -15 513 -15 m 390 136 q 466 158 442 136 q 499 219 490 181 q 507 304 507 258 l 507 822 q 499 907 507 869 q 466 966 490 944 q 390 988 442 988 q 317 966 342 988 q 283 907 292 944 q 275 822 275 869 l 275 304 q 283 219 275 258 q 315 158 290 181 q 390 136 340 136 m 457 1040 l 457 1125 l 485 1125 q 543 1153 526 1125 q 560 1236 560 1181 l 697 1236 q 640 1090 697 1139 q 486 1040 583 1040 l 457 1040 m 340 1203 l 175 1481 l 367 1481 l 449 1203 l 340 1203 z "},"Ở":{"ha":782,"x_min":68,"x_max":715,"o":"m 390 -15 q 200 29 271 -15 q 99 157 129 74 q 68 354 68 240 l 68 775 q 99 970 68 889 q 200 1094 129 1051 q 390 1138 271 1138 q 583 1094 513 1138 q 684 970 653 1051 q 715 775 715 889 l 715 353 q 684 158 715 240 q 583 30 653 75 q 390 -15 513 -15 m 390 136 q 466 158 442 136 q 499 219 490 181 q 507 304 507 258 l 507 822 q 499 907 507 869 q 466 966 490 944 q 390 988 442 988 q 317 966 342 988 q 283 907 292 944 q 275 822 275 869 l 275 304 q 283 219 275 258 q 315 158 290 181 q 390 136 340 136 m 457 1040 l 457 1125 l 485 1125 q 543 1153 526 1125 q 560 1236 560 1181 l 697 1236 q 640 1090 697 1139 q 486 1040 583 1040 l 457 1040 m 392 1199 l 331 1264 q 398 1301 371 1282 q 425 1349 425 1319 q 402 1388 425 1376 q 343 1400 379 1400 q 303 1397 324 1400 q 265 1390 283 1394 l 265 1475 q 392 1490 325 1490 q 473 1477 436 1490 q 532 1435 510 1464 q 554 1361 554 1407 q 533 1286 554 1317 q 474 1235 511 1256 q 392 1199 438 1215 z "},"Ỡ":{"ha":782,"x_min":68,"x_max":715,"o":"m 390 -15 q 200 29 271 -15 q 99 157 129 74 q 68 354 68 240 l 68 775 q 99 970 68 889 q 200 1094 129 1051 q 390 1138 271 1138 q 583 1094 513 1138 q 684 970 653 1051 q 715 775 715 889 l 715 353 q 684 158 715 240 q 583 30 653 75 q 390 -15 513 -15 m 390 136 q 466 158 442 136 q 499 219 490 181 q 507 304 507 258 l 507 822 q 499 907 507 869 q 466 966 490 944 q 390 988 442 988 q 317 966 342 988 q 283 907 292 944 q 275 822 275 869 l 275 304 q 283 219 275 258 q 315 158 290 181 q 390 136 340 136 m 457 1040 l 457 1125 l 485 1125 q 543 1153 526 1125 q 560 1236 560 1181 l 697 1236 q 640 1090 697 1139 q 486 1040 583 1040 l 457 1040 m 501 1271 q 435 1288 464 1271 q 379 1322 406 1306 q 324 1338 353 1338 q 285 1323 296 1338 q 275 1281 275 1308 l 178 1281 q 188 1370 178 1331 q 225 1433 199 1410 q 296 1456 251 1456 q 358 1440 331 1456 q 413 1408 386 1424 q 469 1392 440 1392 q 503 1406 493 1392 q 514 1447 514 1419 l 606 1447 q 599 1364 606 1404 q 569 1297 592 1324 q 501 1271 546 1271 z "},"Ő":{"ha":782,"x_min":68,"x_max":715,"o":"m 390 -15 q 200 29 271 -15 q 99 157 129 74 q 68 354 68 240 l 68 775 q 99 970 68 889 q 200 1094 129 1051 q 390 1138 271 1138 q 583 1094 513 1138 q 684 970 653 1051 q 715 775 715 889 l 715 353 q 684 158 715 240 q 583 30 653 75 q 390 -15 513 -15 m 390 136 q 466 158 442 136 q 499 219 490 181 q 507 304 507 258 l 507 822 q 499 907 507 869 q 466 966 490 944 q 390 988 442 988 q 317 966 342 988 q 283 907 292 944 q 275 822 275 869 l 275 304 q 283 219 275 258 q 315 158 290 181 q 390 136 340 136 m 449 1206 l 533 1476 l 707 1476 l 546 1206 l 449 1206 m 236 1206 l 306 1476 l 460 1476 l 333 1206 l 236 1206 z "},"Ȏ":{"ha":782,"x_min":68,"x_max":715,"o":"m 390 -15 q 200 29 271 -15 q 99 157 129 74 q 68 354 68 240 l 68 775 q 99 970 68 889 q 200 1094 129 1051 q 390 1138 271 1138 q 583 1094 513 1138 q 684 970 653 1051 q 715 775 715 889 l 715 353 q 684 158 715 240 q 583 30 653 75 q 390 -15 513 -15 m 390 136 q 466 158 442 136 q 499 219 490 181 q 507 304 507 258 l 507 822 q 499 907 507 869 q 466 966 490 944 q 390 988 442 988 q 317 966 342 988 q 283 907 292 944 q 275 822 275 869 l 275 304 q 283 219 275 258 q 315 158 290 181 q 390 136 340 136 m 190 1232 q 212 1345 192 1297 q 277 1419 232 1393 q 392 1446 322 1446 q 507 1419 463 1446 q 572 1345 551 1393 q 593 1232 593 1297 l 485 1232 q 463 1319 485 1292 q 392 1346 442 1346 q 321 1319 342 1346 q 299 1232 300 1292 l 190 1232 z "},"Ō":{"ha":782,"x_min":68,"x_max":715,"o":"m 390 -15 q 200 29 271 -15 q 99 157 129 74 q 68 354 68 240 l 68 775 q 99 970 68 889 q 200 1094 129 1051 q 390 1138 271 1138 q 583 1094 513 1138 q 684 970 653 1051 q 715 775 715 889 l 715 353 q 684 158 715 240 q 583 30 653 75 q 390 -15 513 -15 m 390 136 q 466 158 442 136 q 499 219 490 181 q 507 304 507 258 l 507 822 q 499 907 507 869 q 466 966 490 944 q 390 988 442 988 q 317 966 342 988 q 283 907 292 944 q 275 822 275 869 l 275 304 q 283 219 275 258 q 315 158 290 181 q 390 136 340 136 m 228 1260 l 228 1358 l 556 1358 l 556 1260 l 228 1260 z "},"Ǫ":{"ha":782,"x_min":68,"x_max":715,"o":"m 390 -15 q 200 29 271 -15 q 99 157 129 74 q 68 354 68 240 l 68 775 q 99 970 68 889 q 200 1094 129 1051 q 390 1138 271 1138 q 583 1094 513 1138 q 684 970 653 1051 q 715 775 715 889 l 715 353 q 684 158 715 240 q 583 30 653 75 q 390 -15 513 -15 m 390 136 q 466 158 442 136 q 499 219 490 181 q 507 304 507 258 l 507 822 q 499 907 507 869 q 466 966 490 944 q 390 988 442 988 q 317 966 342 988 q 283 907 292 944 q 275 822 275 869 l 275 304 q 283 219 275 258 q 315 158 290 181 q 390 136 340 136 m 469 -342 q 397 -337 433 -342 q 329 -318 360 -332 q 281 -278 299 -304 q 263 -207 263 -251 q 282 -125 263 -165 q 331 -51 301 -85 q 393 0 361 -18 l 482 0 q 444 -52 463 -24 q 412 -112 425 -81 q 399 -174 399 -143 q 431 -233 399 -218 q 499 -249 463 -249 q 522 -248 510 -249 q 542 -246 533 -247 l 518 -337 q 495 -340 508 -339 q 469 -342 482 -342 z "},"Ø":{"ha":774,"x_min":68,"x_max":715,"o":"m 193 -114 l 139 -94 l 567 1225 l 622 1207 l 193 -114 m 390 -15 q 200 29 271 -15 q 99 157 129 74 q 68 354 68 240 l 68 775 q 99 970 68 889 q 200 1094 129 1051 q 390 1138 271 1138 q 583 1094 513 1138 q 684 970 653 1051 q 715 775 715 889 l 715 353 q 684 158 715 240 q 583 30 653 75 q 390 -15 513 -15 m 390 136 q 466 158 442 136 q 499 219 490 181 q 507 304 507 258 l 507 822 q 499 907 507 869 q 466 966 490 944 q 390 988 442 988 q 317 966 342 988 q 283 907 292 944 q 275 822 275 869 l 275 304 q 283 219 275 258 q 315 158 290 181 q 390 136 340 136 z "},"Ǿ":{"ha":774,"x_min":68,"x_max":715,"o":"m 193 -114 l 139 -94 l 567 1225 l 622 1207 l 193 -114 m 390 -15 q 200 29 271 -15 q 99 157 129 74 q 68 354 68 240 l 68 775 q 99 970 68 889 q 200 1094 129 1051 q 390 1138 271 1138 q 583 1094 513 1138 q 684 970 653 1051 q 715 775 715 889 l 715 353 q 684 158 715 240 q 583 30 653 75 q 390 -15 513 -15 m 390 136 q 466 158 442 136 q 499 219 490 181 q 507 304 507 258 l 507 822 q 499 907 507 869 q 466 966 490 944 q 390 988 442 988 q 317 966 342 988 q 283 907 292 944 q 275 822 275 869 l 275 304 q 283 219 275 258 q 315 158 290 181 q 390 136 340 136 m 329 1203 l 414 1481 l 604 1481 l 439 1203 l 329 1203 z "},"Õ":{"ha":782,"x_min":68,"x_max":715,"o":"m 390 -15 q 200 29 271 -15 q 99 157 129 74 q 68 354 68 240 l 68 775 q 99 970 68 889 q 200 1094 129 1051 q 390 1138 271 1138 q 583 1094 513 1138 q 684 970 653 1051 q 715 775 715 889 l 715 353 q 684 158 715 240 q 583 30 653 75 q 390 -15 513 -15 m 390 136 q 466 158 442 136 q 499 219 490 181 q 507 304 507 258 l 507 822 q 499 907 507 869 q 466 966 490 944 q 390 988 442 988 q 317 966 342 988 q 283 907 292 944 q 275 822 275 869 l 275 304 q 283 219 275 258 q 315 158 290 181 q 390 136 340 136 m 501 1271 q 435 1288 464 1271 q 379 1322 406 1306 q 324 1338 353 1338 q 285 1323 296 1338 q 275 1281 275 1308 l 178 1281 q 188 1370 178 1331 q 225 1433 199 1410 q 296 1456 251 1456 q 358 1440 331 1456 q 413 1408 386 1424 q 469 1392 440 1392 q 503 1406 493 1392 q 514 1447 514 1419 l 606 1447 q 599 1364 606 1404 q 569 1297 592 1324 q 501 1271 546 1271 z "},"Ȭ":{"ha":782,"x_min":68,"x_max":715,"o":"m 390 -15 q 200 29 271 -15 q 99 157 129 74 q 68 354 68 240 l 68 775 q 99 970 68 889 q 200 1094 129 1051 q 390 1138 271 1138 q 583 1094 513 1138 q 684 970 653 1051 q 715 775 715 889 l 715 353 q 684 158 715 240 q 583 30 653 75 q 390 -15 513 -15 m 390 136 q 466 158 442 136 q 499 219 490 181 q 507 304 507 258 l 507 822 q 499 907 507 869 q 466 966 490 944 q 390 988 442 988 q 317 966 342 988 q 283 907 292 944 q 275 822 275 869 l 275 304 q 283 219 275 258 q 315 158 290 181 q 390 136 340 136 m 501 1271 q 435 1288 464 1271 q 379 1322 406 1306 q 324 1338 353 1338 q 285 1323 296 1338 q 275 1281 275 1308 l 178 1281 q 188 1370 178 1331 q 225 1433 199 1410 q 296 1456 251 1456 q 358 1440 331 1456 q 413 1408 386 1424 q 469 1392 440 1392 q 503 1406 493 1392 q 514 1447 514 1419 l 606 1447 q 599 1364 606 1404 q 569 1297 592 1324 q 501 1271 546 1271 m 228 1590 l 228 1689 l 556 1689 l 556 1590 l 228 1590 z "},"Œ":{"ha":974,"x_min":68,"x_max":938,"o":"m 406 0 q 205 43 279 0 q 99 168 131 86 q 68 365 68 250 l 68 740 q 99 943 68 857 q 203 1076 131 1029 q 399 1122 275 1122 l 935 1122 l 935 979 l 682 979 l 682 653 l 878 653 l 878 510 l 682 510 l 682 142 l 938 142 l 938 0 l 406 0 m 407 146 l 479 146 l 479 978 l 406 978 q 313 948 342 978 q 278 866 285 918 q 272 749 272 814 l 272 349 q 281 241 272 288 q 317 170 289 194 q 407 146 346 146 z "},"P":{"ha":732,"x_min":85,"x_max":703,"o":"m 85 0 l 85 1125 l 415 1125 q 580 1088 517 1125 q 673 978 643 1050 q 703 806 703 907 q 665 628 703 696 q 560 531 628 561 q 401 500 493 500 l 290 500 l 290 0 l 85 0 m 290 644 l 368 644 q 455 660 424 644 q 498 712 486 676 q 510 807 510 747 q 501 906 510 868 q 462 963 492 944 q 368 981 432 981 l 290 981 l 290 644 z "},"Ṗ":{"ha":732,"x_min":85,"x_max":703,"o":"m 85 0 l 85 1125 l 415 1125 q 580 1088 517 1125 q 673 978 643 1050 q 703 806 703 907 q 665 628 703 696 q 560 531 628 561 q 401 500 493 500 l 290 500 l 290 0 l 85 0 m 290 644 l 368 644 q 455 660 424 644 q 498 712 486 676 q 510 807 510 747 q 501 906 510 868 q 462 963 492 944 q 368 981 432 981 l 290 981 l 290 644 m 275 1240 l 275 1431 l 458 1431 l 458 1240 l 275 1240 z "},"Þ":{"ha":740,"x_min":79,"x_max":718,"o":"m 79 0 l 79 1125 l 283 1125 l 283 976 l 418 976 q 588 941 521 976 q 686 834 654 906 q 718 657 718 763 q 699 503 718 567 q 640 401 679 440 q 541 343 601 361 q 399 325 481 325 l 283 325 l 283 0 l 79 0 m 283 476 l 372 476 q 491 514 454 476 q 528 650 528 551 q 494 781 528 742 q 383 821 461 821 l 283 821 l 283 476 z "},"Q":{"ha":783,"x_min":68,"x_max":715,"o":"m 633 -224 q 559 -174 599 -207 q 481 -98 519 -140 q 415 -14 443 -56 q 403 -15 410 -15 q 390 -15 397 -15 q 200 29 271 -15 q 99 157 129 74 q 68 354 68 240 l 68 775 q 99 970 68 889 q 200 1094 129 1051 q 390 1138 271 1138 q 583 1094 513 1138 q 685 970 654 1051 q 715 775 715 889 l 715 353 q 700 207 715 272 q 650 94 685 142 q 558 19 615 46 q 596 -21 576 0 q 635 -60 615 -42 q 672 -89 654 -78 l 633 -224 m 390 136 q 467 158 442 136 q 500 219 492 181 q 508 304 508 258 l 508 822 q 500 907 508 869 q 467 966 492 944 q 390 988 442 988 q 315 966 340 988 q 283 907 290 944 q 275 822 275 869 l 275 304 q 283 219 275 258 q 315 158 290 181 q 390 136 340 136 z "},"R":{"ha":779,"x_min":85,"x_max":726,"o":"m 85 0 l 85 1125 l 354 1125 q 547 1098 468 1125 q 666 1006 625 1071 q 707 828 707 940 q 694 706 707 760 q 652 613 682 651 q 569 554 622 575 l 726 0 l 521 0 l 385 515 l 290 515 l 290 0 l 85 0 m 290 644 l 354 644 q 449 662 414 644 q 500 717 485 679 q 515 815 515 756 q 484 942 515 900 q 365 985 453 985 l 290 985 l 290 644 z "},"Ŕ":{"ha":779,"x_min":85,"x_max":726,"o":"m 85 0 l 85 1125 l 354 1125 q 547 1098 468 1125 q 666 1006 625 1071 q 707 828 707 940 q 694 706 707 760 q 652 613 682 651 q 569 554 622 575 l 726 0 l 521 0 l 385 515 l 290 515 l 290 0 l 85 0 m 290 644 l 354 644 q 449 662 414 644 q 500 717 485 679 q 515 815 515 756 q 484 942 515 900 q 365 985 453 985 l 290 985 l 290 644 m 333 1203 l 418 1481 l 608 1481 l 443 1203 l 333 1203 z "},"Ř":{"ha":779,"x_min":85,"x_max":726,"o":"m 85 0 l 85 1125 l 354 1125 q 547 1098 468 1125 q 666 1006 625 1071 q 707 828 707 940 q 694 706 707 760 q 652 613 682 651 q 569 554 622 575 l 726 0 l 521 0 l 385 515 l 290 515 l 290 0 l 85 0 m 290 644 l 354 644 q 449 662 414 644 q 500 717 485 679 q 515 815 515 756 q 484 942 515 900 q 365 985 453 985 l 290 985 l 290 644 m 299 1208 l 176 1458 l 315 1458 l 390 1301 l 465 1458 l 604 1458 l 482 1208 l 299 1208 z "},"Ŗ":{"ha":779,"x_min":85,"x_max":726,"o":"m 85 0 l 85 1125 l 354 1125 q 547 1098 468 1125 q 666 1006 625 1071 q 707 828 707 940 q 694 706 707 760 q 652 613 682 651 q 569 554 622 575 l 726 0 l 521 0 l 385 515 l 290 515 l 290 0 l 85 0 m 290 644 l 354 644 q 449 662 414 644 q 500 717 485 679 q 515 815 515 756 q 484 942 515 900 q 365 985 453 985 l 290 985 l 290 644 m 336 -447 l 308 -374 q 373 -346 349 -368 q 397 -274 397 -324 l 299 -274 l 299 -92 l 482 -92 l 481 -254 q 449 -393 481 -342 q 336 -447 418 -444 z "},"Ȑ":{"ha":779,"x_min":85,"x_max":726,"o":"m 85 0 l 85 1125 l 354 1125 q 547 1098 468 1125 q 666 1006 625 1071 q 707 828 707 940 q 694 706 707 760 q 652 613 682 651 q 569 554 622 575 l 726 0 l 521 0 l 385 515 l 290 515 l 290 0 l 85 0 m 290 644 l 354 644 q 449 662 414 644 q 500 717 485 679 q 515 815 515 756 q 484 942 515 900 q 365 985 453 985 l 290 985 l 290 644 m 244 1210 l 99 1472 l 260 1472 l 344 1210 l 244 1210 m 457 1210 l 340 1472 l 485 1472 l 554 1210 l 457 1210 z "},"Ȓ":{"ha":779,"x_min":85,"x_max":726,"o":"m 85 0 l 85 1125 l 354 1125 q 547 1098 468 1125 q 666 1006 625 1071 q 707 828 707 940 q 694 706 707 760 q 652 613 682 651 q 569 554 622 575 l 726 0 l 521 0 l 385 515 l 290 515 l 290 0 l 85 0 m 290 644 l 354 644 q 449 662 414 644 q 500 717 485 679 q 515 815 515 756 q 484 942 515 900 q 365 985 453 985 l 290 985 l 290 644 m 189 1232 q 210 1345 190 1297 q 276 1419 231 1393 q 390 1446 321 1446 q 506 1419 461 1446 q 571 1345 550 1393 q 592 1232 592 1297 l 483 1232 q 462 1319 483 1292 q 390 1346 440 1346 q 319 1319 340 1346 q 297 1232 299 1292 l 189 1232 z "},"S":{"ha":686,"x_min":57,"x_max":650,"o":"m 368 -15 q 199 24 267 -15 q 96 140 131 64 q 57 328 61 217 l 233 363 q 249 247 236 297 q 290 170 263 197 q 361 143 317 143 q 432 173 411 143 q 453 249 453 203 q 419 369 453 322 q 331 464 386 417 l 189 589 q 94 703 129 640 q 58 860 58 767 q 136 1065 58 993 q 349 1138 214 1138 q 481 1113 428 1138 q 565 1046 533 1089 q 611 948 596 1003 q 631 832 626 893 l 456 801 q 444 896 453 854 q 412 961 435 938 q 344 985 389 985 q 274 955 299 985 q 250 881 250 925 q 274 787 250 824 q 342 711 297 750 l 482 588 q 601 451 551 529 q 650 261 650 372 q 615 118 650 181 q 516 20 579 56 q 368 -15 453 -15 z "},"Ś":{"ha":686,"x_min":57,"x_max":650,"o":"m 368 -15 q 199 24 267 -15 q 96 140 131 64 q 57 328 61 217 l 233 363 q 249 247 236 297 q 290 170 263 197 q 361 143 317 143 q 432 173 411 143 q 453 249 453 203 q 419 369 453 322 q 331 464 386 417 l 189 589 q 94 703 129 640 q 58 860 58 767 q 136 1065 58 993 q 349 1138 214 1138 q 481 1113 428 1138 q 565 1046 533 1089 q 611 948 596 1003 q 631 832 626 893 l 456 801 q 444 896 453 854 q 412 961 435 938 q 344 985 389 985 q 274 955 299 985 q 250 881 250 925 q 274 787 250 824 q 342 711 297 750 l 482 588 q 601 451 551 529 q 650 261 650 372 q 615 118 650 181 q 516 20 579 56 q 368 -15 453 -15 m 286 1203 l 371 1481 l 561 1481 l 396 1203 l 286 1203 z "},"Š":{"ha":686,"x_min":57,"x_max":650,"o":"m 368 -15 q 199 24 267 -15 q 96 140 131 64 q 57 328 61 217 l 233 363 q 249 247 236 297 q 290 170 263 197 q 361 143 317 143 q 432 173 411 143 q 453 249 453 203 q 419 369 453 322 q 331 464 386 417 l 189 589 q 94 703 129 640 q 58 860 58 767 q 136 1065 58 993 q 349 1138 214 1138 q 481 1113 428 1138 q 565 1046 533 1089 q 611 948 596 1003 q 631 832 626 893 l 456 801 q 444 896 453 854 q 412 961 435 938 q 344 985 389 985 q 274 955 299 985 q 250 881 250 925 q 274 787 250 824 q 342 711 297 750 l 482 588 q 601 451 551 529 q 650 261 650 372 q 615 118 650 181 q 516 20 579 56 q 368 -15 453 -15 m 251 1208 l 129 1458 l 268 1458 l 343 1301 l 418 1458 l 557 1458 l 435 1208 l 251 1208 z "},"Ş":{"ha":686,"x_min":57,"x_max":650,"o":"m 368 -15 q 199 24 267 -15 q 96 140 131 64 q 57 328 61 217 l 233 363 q 249 247 236 297 q 290 170 263 197 q 361 143 317 143 q 432 173 411 143 q 453 249 453 203 q 419 369 453 322 q 331 464 386 417 l 189 589 q 94 703 129 640 q 58 860 58 767 q 136 1065 58 993 q 349 1138 214 1138 q 481 1113 428 1138 q 565 1046 533 1089 q 611 948 596 1003 q 631 832 626 893 l 456 801 q 444 896 453 854 q 412 961 435 938 q 344 985 389 985 q 274 955 299 985 q 250 881 250 925 q 274 787 250 824 q 342 711 297 750 l 482 588 q 601 451 551 529 q 650 261 650 372 q 615 118 650 181 q 516 20 579 56 q 368 -15 453 -15 m 367 -357 q 316 -353 342 -357 q 267 -342 290 -349 l 267 -254 q 303 -262 283 -260 q 342 -265 322 -265 q 403 -253 378 -265 q 428 -214 428 -242 q 410 -173 428 -187 q 365 -150 393 -158 q 304 -139 338 -142 l 304 0 l 383 0 l 383 -85 q 508 -119 461 -85 q 556 -217 556 -153 q 530 -297 556 -267 q 461 -342 504 -328 q 367 -357 418 -357 z "},"Ŝ":{"ha":686,"x_min":57,"x_max":650,"o":"m 368 -15 q 199 24 267 -15 q 96 140 131 64 q 57 328 61 217 l 233 363 q 249 247 236 297 q 290 170 263 197 q 361 143 317 143 q 432 173 411 143 q 453 249 453 203 q 419 369 453 322 q 331 464 386 417 l 189 589 q 94 703 129 640 q 58 860 58 767 q 136 1065 58 993 q 349 1138 214 1138 q 481 1113 428 1138 q 565 1046 533 1089 q 611 948 596 1003 q 631 832 626 893 l 456 801 q 444 896 453 854 q 412 961 435 938 q 344 985 389 985 q 274 955 299 985 q 250 881 250 925 q 274 787 250 824 q 342 711 297 750 l 482 588 q 601 451 551 529 q 650 261 650 372 q 615 118 650 181 q 516 20 579 56 q 368 -15 453 -15 m 132 1214 l 257 1469 l 426 1469 l 554 1214 l 414 1214 l 342 1381 l 271 1214 l 132 1214 z "},"Ș":{"ha":686,"x_min":57,"x_max":650,"o":"m 368 -15 q 199 24 267 -15 q 96 140 131 64 q 57 328 61 217 l 233 363 q 249 247 236 297 q 290 170 263 197 q 361 143 317 143 q 432 173 411 143 q 453 249 453 203 q 419 369 453 322 q 331 464 386 417 l 189 589 q 94 703 129 640 q 58 860 58 767 q 136 1065 58 993 q 349 1138 214 1138 q 481 1113 428 1138 q 565 1046 533 1089 q 611 948 596 1003 q 631 832 626 893 l 456 801 q 444 896 453 854 q 412 961 435 938 q 344 985 389 985 q 274 955 299 985 q 250 881 250 925 q 274 787 250 824 q 342 711 297 750 l 482 588 q 601 451 551 529 q 650 261 650 372 q 615 118 650 181 q 516 20 579 56 q 368 -15 453 -15 m 289 -447 l 261 -374 q 326 -346 301 -368 q 350 -274 350 -324 l 251 -274 l 251 -92 l 435 -92 l 433 -254 q 402 -393 433 -342 q 289 -447 371 -444 z "},"Ṡ":{"ha":686,"x_min":57,"x_max":650,"o":"m 368 -15 q 199 24 267 -15 q 96 140 131 64 q 57 328 61 217 l 233 363 q 249 247 236 297 q 290 170 263 197 q 361 143 317 143 q 432 173 411 143 q 453 249 453 203 q 419 369 453 322 q 331 464 386 417 l 189 589 q 94 703 129 640 q 58 860 58 767 q 136 1065 58 993 q 349 1138 214 1138 q 481 1113 428 1138 q 565 1046 533 1089 q 611 948 596 1003 q 631 832 626 893 l 456 801 q 444 896 453 854 q 412 961 435 938 q 344 985 389 985 q 274 955 299 985 q 250 881 250 925 q 274 787 250 824 q 342 711 297 750 l 482 588 q 601 451 551 529 q 650 261 650 372 q 615 118 650 181 q 516 20 579 56 q 368 -15 453 -15 m 251 1240 l 251 1431 l 435 1431 l 435 1240 l 251 1240 z "},"ẞ":{"ha":808,"x_min":76,"x_max":764,"o":"m 386 -15 l 386 128 l 424 128 q 531 172 494 128 q 568 319 568 217 q 533 467 568 421 q 424 513 497 513 l 400 513 l 400 656 l 568 968 q 519 983 547 978 q 457 988 490 988 q 324 935 367 988 q 282 781 282 882 l 282 0 l 76 0 l 76 774 q 115 964 76 882 q 233 1092 153 1046 q 440 1138 314 1138 q 593 1119 526 1138 q 718 1071 660 1101 l 718 925 l 521 560 l 468 632 q 691 553 618 632 q 764 324 764 474 q 681 65 764 144 q 444 -15 599 -15 l 386 -15 z "},"Ə":{"ha":776,"x_min":63,"x_max":710,"o":"m 388 -15 q 204 26 276 -15 q 97 148 132 68 q 63 340 63 228 l 63 585 l 501 585 l 501 826 q 491 917 501 881 q 456 970 481 953 q 385 988 431 988 q 316 970 342 988 q 280 917 290 953 q 269 826 269 881 l 269 697 l 63 697 l 63 789 q 97 979 63 901 q 204 1097 132 1057 q 388 1138 276 1138 q 567 1095 496 1138 q 674 973 638 1053 q 710 782 710 893 l 710 344 q 674 153 710 233 q 567 28 638 72 q 388 -15 496 -15 m 386 136 q 456 155 431 136 q 492 210 482 174 q 501 299 501 246 l 501 447 l 269 447 l 269 299 q 280 210 269 246 q 316 155 290 174 q 386 136 342 136 z "},"T":{"ha":597,"x_min":18,"x_max":579,"o":"m 197 0 l 197 974 l 18 974 l 18 1125 l 579 1125 l 579 974 l 403 974 l 403 0 l 197 0 z "},"Ŧ":{"ha":589,"x_min":18,"x_max":579,"o":"m 61 528 l 61 633 l 532 633 l 532 528 l 61 528 m 197 0 l 197 974 l 18 974 l 18 1125 l 579 1125 l 579 974 l 403 974 l 403 0 l 197 0 z "},"Ť":{"ha":586,"x_min":18,"x_max":579,"o":"m 197 0 l 197 974 l 18 974 l 18 1125 l 579 1125 l 579 974 l 403 974 l 403 0 l 197 0 m 201 1208 l 79 1458 l 218 1458 l 293 1301 l 368 1458 l 507 1458 l 385 1208 l 201 1208 z "},"Ţ":{"ha":586,"x_min":18,"x_max":579,"o":"m 197 0 l 197 974 l 18 974 l 18 1125 l 579 1125 l 579 974 l 403 974 l 403 0 l 197 0 m 317 -357 q 266 -353 292 -357 q 217 -342 240 -349 l 217 -254 q 253 -262 233 -260 q 292 -265 272 -265 q 353 -253 328 -265 q 378 -214 378 -242 q 360 -173 378 -187 q 315 -150 343 -158 q 254 -139 288 -142 l 254 0 l 333 0 l 333 -85 q 458 -119 411 -85 q 506 -217 506 -153 q 480 -297 506 -267 q 411 -342 454 -328 q 317 -357 368 -357 z "},"Ț":{"ha":586,"x_min":18,"x_max":579,"o":"m 197 0 l 197 974 l 18 974 l 18 1125 l 579 1125 l 579 974 l 403 974 l 403 0 l 197 0 m 239 -447 l 211 -374 q 276 -346 251 -368 q 300 -274 300 -324 l 201 -274 l 201 -92 l 385 -92 l 383 -254 q 352 -393 383 -342 q 239 -447 321 -444 z "},"Ṫ":{"ha":586,"x_min":18,"x_max":579,"o":"m 197 0 l 197 974 l 18 974 l 18 1125 l 579 1125 l 579 974 l 403 974 l 403 0 l 197 0 m 201 1240 l 201 1431 l 385 1431 l 385 1240 l 201 1240 z "},"U":{"ha":786,"x_min":76,"x_max":710,"o":"m 393 -15 q 199 31 268 -15 q 103 161 129 76 q 76 364 76 246 l 76 1125 l 276 1125 l 276 340 q 283 241 276 288 q 316 166 290 194 q 393 138 342 138 q 472 166 447 138 q 503 241 496 194 q 511 340 511 288 l 511 1125 l 710 1125 l 710 364 q 683 161 710 246 q 588 31 657 76 q 393 -15 519 -15 z "},"Ú":{"ha":786,"x_min":76,"x_max":710,"o":"m 393 -15 q 199 31 268 -15 q 103 161 129 76 q 76 364 76 246 l 76 1125 l 276 1125 l 276 340 q 283 241 276 288 q 316 166 290 194 q 393 138 342 138 q 472 166 447 138 q 503 241 496 194 q 511 340 511 288 l 511 1125 l 710 1125 l 710 364 q 683 161 710 246 q 588 31 657 76 q 393 -15 519 -15 m 336 1203 l 421 1481 l 611 1481 l 446 1203 l 336 1203 z "},"Ŭ":{"ha":786,"x_min":76,"x_max":710,"o":"m 393 -15 q 199 31 268 -15 q 103 161 129 76 q 76 364 76 246 l 76 1125 l 276 1125 l 276 340 q 283 241 276 288 q 316 166 290 194 q 393 138 342 138 q 472 166 447 138 q 503 241 496 194 q 511 340 511 288 l 511 1125 l 710 1125 l 710 364 q 683 161 710 246 q 588 31 657 76 q 393 -15 519 -15 m 394 1214 q 244 1269 294 1214 q 193 1417 193 1324 l 301 1417 q 322 1340 301 1367 q 394 1314 343 1314 q 465 1341 444 1314 q 486 1417 486 1368 l 594 1417 q 544 1269 594 1324 q 394 1214 493 1214 z "},"Ǔ":{"ha":786,"x_min":76,"x_max":710,"o":"m 393 -15 q 199 31 268 -15 q 103 161 129 76 q 76 364 76 246 l 76 1125 l 276 1125 l 276 340 q 283 241 276 288 q 316 166 290 194 q 393 138 342 138 q 472 166 447 138 q 503 241 496 194 q 511 340 511 288 l 511 1125 l 710 1125 l 710 364 q 683 161 710 246 q 588 31 657 76 q 393 -15 519 -15 m 301 1208 l 179 1458 l 318 1458 l 393 1301 l 468 1458 l 607 1458 l 485 1208 l 301 1208 z "},"Û":{"ha":786,"x_min":76,"x_max":710,"o":"m 393 -15 q 199 31 268 -15 q 103 161 129 76 q 76 364 76 246 l 76 1125 l 276 1125 l 276 340 q 283 241 276 288 q 316 166 290 194 q 393 138 342 138 q 472 166 447 138 q 503 241 496 194 q 511 340 511 288 l 511 1125 l 710 1125 l 710 364 q 683 161 710 246 q 588 31 657 76 q 393 -15 519 -15 m 182 1214 l 307 1469 l 476 1469 l 604 1214 l 464 1214 l 392 1381 l 321 1214 l 182 1214 z "},"Ȕ":{"ha":786,"x_min":76,"x_max":710,"o":"m 393 -15 q 199 31 268 -15 q 103 161 129 76 q 76 364 76 246 l 76 1125 l 276 1125 l 276 340 q 283 241 276 288 q 316 166 290 194 q 393 138 342 138 q 472 166 447 138 q 503 241 496 194 q 511 340 511 288 l 511 1125 l 710 1125 l 710 364 q 683 161 710 246 q 588 31 657 76 q 393 -15 519 -15 m 247 1210 l 101 1472 l 263 1472 l 347 1210 l 247 1210 m 460 1210 l 343 1472 l 488 1472 l 557 1210 l 460 1210 z "},"Ü":{"ha":786,"x_min":76,"x_max":710,"o":"m 393 -15 q 199 31 268 -15 q 103 161 129 76 q 76 364 76 246 l 76 1125 l 276 1125 l 276 340 q 283 241 276 288 q 316 166 290 194 q 393 138 342 138 q 472 166 447 138 q 503 241 496 194 q 511 340 511 288 l 511 1125 l 710 1125 l 710 364 q 683 161 710 246 q 588 31 657 76 q 393 -15 519 -15 m 446 1267 l 446 1447 l 613 1447 l 613 1267 l 446 1267 m 174 1267 l 174 1447 l 340 1447 l 340 1267 l 174 1267 z "},"Ụ":{"ha":786,"x_min":76,"x_max":710,"o":"m 393 -15 q 199 31 268 -15 q 103 161 129 76 q 76 364 76 246 l 76 1125 l 276 1125 l 276 340 q 283 241 276 288 q 316 166 290 194 q 393 138 342 138 q 472 166 447 138 q 503 241 496 194 q 511 340 511 288 l 511 1125 l 710 1125 l 710 364 q 683 161 710 246 q 588 31 657 76 q 393 -15 519 -15 m 307 -268 l 307 -93 l 479 -93 l 479 -268 l 307 -268 z "},"Ù":{"ha":786,"x_min":76,"x_max":710,"o":"m 393 -15 q 199 31 268 -15 q 103 161 129 76 q 76 364 76 246 l 76 1125 l 276 1125 l 276 340 q 283 241 276 288 q 316 166 290 194 q 393 138 342 138 q 472 166 447 138 q 503 241 496 194 q 511 340 511 288 l 511 1125 l 710 1125 l 710 364 q 683 161 710 246 q 588 31 657 76 q 393 -15 519 -15 m 342 1203 l 176 1481 l 368 1481 l 450 1203 l 342 1203 z "},"Ủ":{"ha":786,"x_min":76,"x_max":710,"o":"m 393 -15 q 199 31 268 -15 q 103 161 129 76 q 76 364 76 246 l 76 1125 l 276 1125 l 276 340 q 283 241 276 288 q 316 166 290 194 q 393 138 342 138 q 472 166 447 138 q 503 241 496 194 q 511 340 511 288 l 511 1125 l 710 1125 l 710 364 q 683 161 710 246 q 588 31 657 76 q 393 -15 519 -15 m 393 1199 l 332 1264 q 399 1301 372 1282 q 426 1349 426 1319 q 403 1388 426 1376 q 344 1400 381 1400 q 305 1397 325 1400 q 267 1390 285 1394 l 267 1475 q 393 1490 326 1490 q 474 1477 438 1490 q 533 1435 511 1464 q 556 1361 556 1407 q 534 1286 556 1317 q 476 1235 513 1256 q 393 1199 439 1215 z "},"Ư":{"ha":786,"x_min":76,"x_max":808,"o":"m 393 -15 q 199 31 268 -15 q 103 161 129 76 q 76 364 76 246 l 76 1125 l 276 1125 l 276 340 q 283 241 276 288 q 316 166 290 194 q 393 138 342 138 q 472 166 447 138 q 503 241 496 194 q 511 340 511 288 l 511 1125 l 710 1125 l 710 364 q 683 161 710 246 q 588 31 657 76 q 393 -15 519 -15 m 582 1040 l 582 1125 l 596 1125 q 654 1153 638 1125 q 671 1236 671 1181 l 808 1236 q 751 1090 808 1139 q 597 1040 694 1040 l 582 1040 z "},"Ứ":{"ha":786,"x_min":76,"x_max":808,"o":"m 393 -15 q 199 31 268 -15 q 103 161 129 76 q 76 364 76 246 l 76 1125 l 276 1125 l 276 340 q 283 241 276 288 q 316 166 290 194 q 393 138 342 138 q 472 166 447 138 q 503 241 496 194 q 511 340 511 288 l 511 1125 l 710 1125 l 710 364 q 683 161 710 246 q 588 31 657 76 q 393 -15 519 -15 m 582 1040 l 582 1125 l 596 1125 q 654 1153 638 1125 q 671 1236 671 1181 l 808 1236 q 751 1090 808 1139 q 597 1040 694 1040 l 582 1040 m 336 1203 l 421 1481 l 611 1481 l 446 1203 l 336 1203 z "},"Ự":{"ha":786,"x_min":76,"x_max":808,"o":"m 393 -15 q 199 31 268 -15 q 103 161 129 76 q 76 364 76 246 l 76 1125 l 276 1125 l 276 340 q 283 241 276 288 q 316 166 290 194 q 393 138 342 138 q 472 166 447 138 q 503 241 496 194 q 511 340 511 288 l 511 1125 l 710 1125 l 710 364 q 683 161 710 246 q 588 31 657 76 q 393 -15 519 -15 m 582 1040 l 582 1125 l 596 1125 q 654 1153 638 1125 q 671 1236 671 1181 l 808 1236 q 751 1090 808 1139 q 597 1040 694 1040 l 582 1040 m 307 -268 l 307 -93 l 479 -93 l 479 -268 l 307 -268 z "},"Ừ":{"ha":786,"x_min":76,"x_max":808,"o":"m 393 -15 q 199 31 268 -15 q 103 161 129 76 q 76 364 76 246 l 76 1125 l 276 1125 l 276 340 q 283 241 276 288 q 316 166 290 194 q 393 138 342 138 q 472 166 447 138 q 503 241 496 194 q 511 340 511 288 l 511 1125 l 710 1125 l 710 364 q 683 161 710 246 q 588 31 657 76 q 393 -15 519 -15 m 582 1040 l 582 1125 l 596 1125 q 654 1153 638 1125 q 671 1236 671 1181 l 808 1236 q 751 1090 808 1139 q 597 1040 694 1040 l 582 1040 m 342 1203 l 176 1481 l 368 1481 l 450 1203 l 342 1203 z "},"Ử":{"ha":786,"x_min":76,"x_max":808,"o":"m 393 -15 q 199 31 268 -15 q 103 161 129 76 q 76 364 76 246 l 76 1125 l 276 1125 l 276 340 q 283 241 276 288 q 316 166 290 194 q 393 138 342 138 q 472 166 447 138 q 503 241 496 194 q 511 340 511 288 l 511 1125 l 710 1125 l 710 364 q 683 161 710 246 q 588 31 657 76 q 393 -15 519 -15 m 582 1040 l 582 1125 l 596 1125 q 654 1153 638 1125 q 671 1236 671 1181 l 808 1236 q 751 1090 808 1139 q 597 1040 694 1040 l 582 1040 m 393 1199 l 332 1264 q 399 1301 372 1282 q 426 1349 426 1319 q 403 1388 426 1376 q 344 1400 381 1400 q 305 1397 325 1400 q 267 1390 285 1394 l 267 1475 q 393 1490 326 1490 q 474 1477 438 1490 q 533 1435 511 1464 q 556 1361 556 1407 q 534 1286 556 1317 q 476 1235 513 1256 q 393 1199 439 1215 z "},"Ữ":{"ha":786,"x_min":76,"x_max":808,"o":"m 393 -15 q 199 31 268 -15 q 103 161 129 76 q 76 364 76 246 l 76 1125 l 276 1125 l 276 340 q 283 241 276 288 q 316 166 290 194 q 393 138 342 138 q 472 166 447 138 q 503 241 496 194 q 511 340 511 288 l 511 1125 l 710 1125 l 710 364 q 683 161 710 246 q 588 31 657 76 q 393 -15 519 -15 m 582 1040 l 582 1125 l 596 1125 q 654 1153 638 1125 q 671 1236 671 1181 l 808 1236 q 751 1090 808 1139 q 597 1040 694 1040 l 582 1040 m 503 1271 q 436 1288 465 1271 q 381 1322 407 1306 q 325 1338 354 1338 q 287 1323 297 1338 q 276 1281 276 1308 l 179 1281 q 190 1370 179 1331 q 226 1433 200 1410 q 297 1456 253 1456 q 360 1440 332 1456 q 415 1408 388 1424 q 471 1392 442 1392 q 505 1406 494 1392 q 515 1447 515 1419 l 607 1447 q 600 1364 607 1404 q 570 1297 593 1324 q 503 1271 547 1271 z "},"Ű":{"ha":786,"x_min":76,"x_max":710,"o":"m 393 -15 q 199 31 268 -15 q 103 161 129 76 q 76 364 76 246 l 76 1125 l 276 1125 l 276 340 q 283 241 276 288 q 316 166 290 194 q 393 138 342 138 q 472 166 447 138 q 503 241 496 194 q 511 340 511 288 l 511 1125 l 710 1125 l 710 364 q 683 161 710 246 q 588 31 657 76 q 393 -15 519 -15 m 450 1206 l 535 1476 l 708 1476 l 547 1206 l 450 1206 m 238 1206 l 307 1476 l 461 1476 l 335 1206 l 238 1206 z "},"Ȗ":{"ha":786,"x_min":76,"x_max":710,"o":"m 393 -15 q 199 31 268 -15 q 103 161 129 76 q 76 364 76 246 l 76 1125 l 276 1125 l 276 340 q 283 241 276 288 q 316 166 290 194 q 393 138 342 138 q 472 166 447 138 q 503 241 496 194 q 511 340 511 288 l 511 1125 l 710 1125 l 710 364 q 683 161 710 246 q 588 31 657 76 q 393 -15 519 -15 m 192 1232 q 213 1345 193 1297 q 278 1419 233 1393 q 393 1446 324 1446 q 508 1419 464 1446 q 574 1345 553 1393 q 594 1232 594 1297 l 486 1232 q 465 1319 486 1292 q 393 1346 443 1346 q 322 1319 343 1346 q 300 1232 301 1292 l 192 1232 z "},"Ū":{"ha":786,"x_min":76,"x_max":710,"o":"m 393 -15 q 199 31 268 -15 q 103 161 129 76 q 76 364 76 246 l 76 1125 l 276 1125 l 276 340 q 283 241 276 288 q 316 166 290 194 q 393 138 342 138 q 472 166 447 138 q 503 241 496 194 q 511 340 511 288 l 511 1125 l 710 1125 l 710 364 q 683 161 710 246 q 588 31 657 76 q 393 -15 519 -15 m 229 1260 l 229 1358 l 557 1358 l 557 1260 l 229 1260 z "},"Ų":{"ha":786,"x_min":76,"x_max":710,"o":"m 393 -15 q 199 31 268 -15 q 103 161 129 76 q 76 364 76 246 l 76 1125 l 276 1125 l 276 340 q 283 241 276 288 q 316 166 290 194 q 393 138 342 138 q 472 166 447 138 q 503 241 496 194 q 511 340 511 288 l 511 1125 l 710 1125 l 710 364 q 683 161 710 246 q 588 31 657 76 q 393 -15 519 -15 m 472 -342 q 399 -337 436 -342 q 332 -318 363 -332 q 283 -278 301 -304 q 265 -207 265 -251 q 285 -125 265 -165 q 334 -51 304 -85 q 396 0 364 -18 l 485 0 q 447 -52 465 -24 q 415 -112 428 -81 q 401 -174 401 -143 q 433 -233 401 -218 q 501 -249 465 -249 q 524 -248 513 -249 q 544 -246 536 -247 l 521 -337 q 498 -340 511 -339 q 472 -342 485 -342 z "},"Ů":{"ha":786,"x_min":76,"x_max":710,"o":"m 393 -15 q 199 31 268 -15 q 103 161 129 76 q 76 364 76 246 l 76 1125 l 276 1125 l 276 340 q 283 241 276 288 q 316 166 290 194 q 393 138 342 138 q 472 166 447 138 q 503 241 496 194 q 511 340 511 288 l 511 1125 l 710 1125 l 710 364 q 683 161 710 246 q 588 31 657 76 q 393 -15 519 -15 m 392 1168 q 279 1208 325 1168 q 233 1322 233 1249 q 279 1435 233 1396 q 392 1475 325 1475 q 506 1435 460 1475 q 553 1322 553 1394 q 506 1208 553 1249 q 392 1168 460 1168 m 392 1246 q 447 1267 428 1246 q 467 1322 467 1289 q 447 1378 467 1357 q 392 1399 428 1399 q 338 1378 357 1399 q 318 1322 318 1357 q 338 1267 318 1289 q 392 1246 357 1246 z "},"Ũ":{"ha":786,"x_min":76,"x_max":710,"o":"m 393 -15 q 199 31 268 -15 q 103 161 129 76 q 76 364 76 246 l 76 1125 l 276 1125 l 276 340 q 283 241 276 288 q 316 166 290 194 q 393 138 342 138 q 472 166 447 138 q 503 241 496 194 q 511 340 511 288 l 511 1125 l 710 1125 l 710 364 q 683 161 710 246 q 588 31 657 76 q 393 -15 519 -15 m 503 1271 q 436 1288 465 1271 q 381 1322 407 1306 q 325 1338 354 1338 q 287 1323 297 1338 q 276 1281 276 1308 l 179 1281 q 190 1370 179 1331 q 226 1433 200 1410 q 297 1456 253 1456 q 360 1440 332 1456 q 415 1408 388 1424 q 471 1392 442 1392 q 505 1406 494 1392 q 515 1447 515 1419 l 607 1447 q 600 1364 607 1404 q 570 1297 593 1324 q 503 1271 547 1271 z "},"V":{"ha":717,"x_min":31,"x_max":686,"o":"m 257 0 l 31 1125 l 213 1125 l 361 329 l 500 1125 l 686 1125 l 460 0 l 257 0 z "},"W":{"ha":989,"x_min":43,"x_max":946,"o":"m 203 0 l 43 1125 l 215 1125 l 308 396 l 425 1122 l 565 1122 l 685 396 l 776 1125 l 946 1125 l 789 0 l 622 0 l 497 754 l 374 0 l 203 0 z "},"Ẃ":{"ha":989,"x_min":43,"x_max":946,"o":"m 203 0 l 43 1125 l 215 1125 l 308 396 l 425 1122 l 565 1122 l 685 396 l 776 1125 l 946 1125 l 789 0 l 622 0 l 497 754 l 374 0 l 203 0 m 439 1203 l 524 1481 l 714 1481 l 549 1203 l 439 1203 z "},"Ŵ":{"ha":989,"x_min":43,"x_max":946,"o":"m 203 0 l 43 1125 l 215 1125 l 308 396 l 425 1122 l 565 1122 l 685 396 l 776 1125 l 946 1125 l 789 0 l 622 0 l 497 754 l 374 0 l 203 0 m 285 1214 l 410 1469 l 579 1469 l 707 1214 l 567 1214 l 494 1381 l 424 1214 l 285 1214 z "},"Ẅ":{"ha":989,"x_min":43,"x_max":946,"o":"m 203 0 l 43 1125 l 215 1125 l 308 396 l 425 1122 l 565 1122 l 685 396 l 776 1125 l 946 1125 l 789 0 l 622 0 l 497 754 l 374 0 l 203 0 m 549 1267 l 549 1447 l 715 1447 l 715 1267 l 549 1267 m 276 1267 l 276 1447 l 443 1447 l 443 1267 l 276 1267 z "},"Ẁ":{"ha":989,"x_min":43,"x_max":946,"o":"m 203 0 l 43 1125 l 215 1125 l 308 396 l 425 1122 l 565 1122 l 685 396 l 776 1125 l 946 1125 l 789 0 l 622 0 l 497 754 l 374 0 l 203 0 m 444 1203 l 279 1481 l 471 1481 l 553 1203 l 444 1203 z "},"X":{"ha":693,"x_min":14,"x_max":681,"o":"m 14 0 l 240 597 l 21 1125 l 213 1125 l 358 776 l 486 1125 l 664 1125 l 447 558 l 681 0 l 489 0 l 329 378 l 190 0 l 14 0 z "},"Y":{"ha":676,"x_min":14,"x_max":663,"o":"m 242 0 l 242 429 l 14 1125 l 206 1125 l 344 679 l 475 1125 l 663 1125 l 438 429 l 438 0 l 242 0 z "},"Ý":{"ha":676,"x_min":14,"x_max":663,"o":"m 242 0 l 242 429 l 14 1125 l 206 1125 l 344 679 l 475 1125 l 663 1125 l 438 429 l 438 0 l 242 0 m 282 1203 l 367 1481 l 557 1481 l 392 1203 l 282 1203 z "},"Ŷ":{"ha":676,"x_min":14,"x_max":663,"o":"m 242 0 l 242 429 l 14 1125 l 206 1125 l 344 679 l 475 1125 l 663 1125 l 438 429 l 438 0 l 242 0 m 128 1214 l 253 1469 l 422 1469 l 550 1214 l 410 1214 l 338 1381 l 267 1214 l 128 1214 z "},"Ÿ":{"ha":676,"x_min":14,"x_max":663,"o":"m 242 0 l 242 429 l 14 1125 l 206 1125 l 344 679 l 475 1125 l 663 1125 l 438 429 l 438 0 l 242 0 m 392 1267 l 392 1447 l 558 1447 l 558 1267 l 392 1267 m 119 1267 l 119 1447 l 286 1447 l 286 1267 l 119 1267 z "},"Ỵ":{"ha":676,"x_min":14,"x_max":663,"o":"m 242 0 l 242 429 l 14 1125 l 206 1125 l 344 679 l 475 1125 l 663 1125 l 438 429 l 438 0 l 242 0 m 253 -268 l 253 -93 l 425 -93 l 425 -268 l 253 -268 z "},"Ỳ":{"ha":676,"x_min":14,"x_max":663,"o":"m 242 0 l 242 429 l 14 1125 l 206 1125 l 344 679 l 475 1125 l 663 1125 l 438 429 l 438 0 l 242 0 m 288 1203 l 122 1481 l 314 1481 l 396 1203 l 288 1203 z "},"Ỷ":{"ha":676,"x_min":14,"x_max":663,"o":"m 242 0 l 242 429 l 14 1125 l 206 1125 l 344 679 l 475 1125 l 663 1125 l 438 429 l 438 0 l 242 0 m 339 1199 l 278 1264 q 345 1301 318 1282 q 372 1349 372 1319 q 349 1388 372 1376 q 290 1400 326 1400 q 251 1397 271 1400 q 213 1390 231 1394 l 213 1475 q 339 1490 272 1490 q 420 1477 383 1490 q 479 1435 457 1464 q 501 1361 501 1407 q 480 1286 501 1317 q 422 1235 458 1256 q 339 1199 385 1215 z "},"Ȳ":{"ha":676,"x_min":14,"x_max":663,"o":"m 242 0 l 242 429 l 14 1125 l 206 1125 l 344 679 l 475 1125 l 663 1125 l 438 429 l 438 0 l 242 0 m 175 1260 l 175 1358 l 503 1358 l 503 1260 l 175 1260 z "},"Ỹ":{"ha":676,"x_min":14,"x_max":663,"o":"m 242 0 l 242 429 l 14 1125 l 206 1125 l 344 679 l 475 1125 l 663 1125 l 438 429 l 438 0 l 242 0 m 449 1271 q 382 1288 411 1271 q 326 1322 353 1306 q 271 1338 300 1338 q 233 1323 243 1338 q 222 1281 222 1308 l 125 1281 q 135 1370 125 1331 q 172 1433 146 1410 q 243 1456 199 1456 q 306 1440 278 1456 q 360 1408 333 1424 q 417 1392 388 1392 q 451 1406 440 1392 q 461 1447 461 1419 l 553 1447 q 546 1364 553 1404 q 516 1297 539 1324 q 449 1271 493 1271 z "},"Z":{"ha":590,"x_min":46,"x_max":557,"o":"m 46 0 l 46 132 l 349 983 l 63 983 l 63 1125 l 556 1125 l 556 1019 l 242 142 l 557 142 l 557 0 l 46 0 z "},"Ź":{"ha":590,"x_min":46,"x_max":557,"o":"m 46 0 l 46 132 l 349 983 l 63 983 l 63 1125 l 556 1125 l 556 1019 l 242 142 l 557 142 l 557 0 l 46 0 m 239 1203 l 324 1481 l 514 1481 l 349 1203 l 239 1203 z "},"Ž":{"ha":590,"x_min":46,"x_max":557,"o":"m 46 0 l 46 132 l 349 983 l 63 983 l 63 1125 l 556 1125 l 556 1019 l 242 142 l 557 142 l 557 0 l 46 0 m 204 1208 l 82 1458 l 221 1458 l 296 1301 l 371 1458 l 510 1458 l 388 1208 l 204 1208 z "},"Ż":{"ha":590,"x_min":46,"x_max":557,"o":"m 46 0 l 46 132 l 349 983 l 63 983 l 63 1125 l 556 1125 l 556 1019 l 242 142 l 557 142 l 557 0 l 46 0 m 204 1240 l 204 1431 l 388 1431 l 388 1240 l 204 1240 z "},"a":{"ha":628,"x_min":54,"x_max":575,"o":"m 228 -12 q 135 16 174 -12 q 75 88 96 44 q 54 179 54 132 q 82 306 54 254 q 156 392 110 357 q 260 452 201 426 q 378 499 318 478 l 378 568 q 373 626 378 603 q 355 663 368 650 q 314 675 342 675 q 276 664 290 675 q 255 633 261 653 q 247 586 249 613 l 244 538 l 65 544 q 134 749 69 683 q 331 815 199 815 q 506 749 451 815 q 561 568 561 682 l 561 197 q 563 117 561 153 q 569 51 565 81 q 575 0 572 22 l 406 0 q 395 63 401 28 q 386 115 389 99 q 333 27 372 67 q 228 -12 294 -12 m 297 128 q 331 137 315 128 q 360 158 347 146 q 378 181 372 171 l 378 404 q 320 368 347 386 q 273 328 293 350 q 242 282 253 307 q 232 224 232 257 q 249 153 232 179 q 297 128 267 128 z "},"á":{"ha":628,"x_min":54,"x_max":575,"o":"m 228 -12 q 135 16 174 -12 q 75 88 96 44 q 54 179 54 132 q 82 306 54 254 q 156 392 110 357 q 260 452 201 426 q 378 499 318 478 l 378 568 q 373 626 378 603 q 355 663 368 650 q 314 675 342 675 q 276 664 290 675 q 255 633 261 653 q 247 586 249 613 l 244 538 l 65 544 q 134 749 69 683 q 331 815 199 815 q 506 749 451 815 q 561 568 561 682 l 561 197 q 563 117 561 153 q 569 51 565 81 q 575 0 572 22 l 406 0 q 395 63 401 28 q 386 115 389 99 q 333 27 372 67 q 228 -12 294 -12 m 297 128 q 331 137 315 128 q 360 158 347 146 q 378 181 372 171 l 378 404 q 320 368 347 386 q 273 328 293 350 q 242 282 253 307 q 232 224 232 257 q 249 153 232 179 q 297 128 267 128 m 272 881 l 357 1158 l 547 1158 l 382 881 l 272 881 z "},"ă":{"ha":628,"x_min":54,"x_max":575,"o":"m 228 -12 q 135 16 174 -12 q 75 88 96 44 q 54 179 54 132 q 82 306 54 254 q 156 392 110 357 q 260 452 201 426 q 378 499 318 478 l 378 568 q 373 626 378 603 q 355 663 368 650 q 314 675 342 675 q 276 664 290 675 q 255 633 261 653 q 247 586 249 613 l 244 538 l 65 544 q 134 749 69 683 q 331 815 199 815 q 506 749 451 815 q 561 568 561 682 l 561 197 q 563 117 561 153 q 569 51 565 81 q 575 0 572 22 l 406 0 q 395 63 401 28 q 386 115 389 99 q 333 27 372 67 q 228 -12 294 -12 m 297 128 q 331 137 315 128 q 360 158 347 146 q 378 181 372 171 l 378 404 q 320 368 347 386 q 273 328 293 350 q 242 282 253 307 q 232 224 232 257 q 249 153 232 179 q 297 128 267 128 m 331 892 q 180 947 231 892 q 129 1094 129 1001 l 238 1094 q 258 1018 238 1044 q 331 992 279 992 q 401 1019 381 992 q 422 1094 422 1046 l 531 1094 q 480 947 531 1001 q 331 892 429 892 z "},"ắ":{"ha":628,"x_min":54,"x_max":575,"o":"m 228 -12 q 135 16 174 -12 q 75 88 96 44 q 54 179 54 132 q 82 306 54 254 q 156 392 110 357 q 260 452 201 426 q 378 499 318 478 l 378 568 q 373 626 378 603 q 355 663 368 650 q 314 675 342 675 q 276 664 290 675 q 255 633 261 653 q 247 586 249 613 l 244 538 l 65 544 q 134 749 69 683 q 331 815 199 815 q 506 749 451 815 q 561 568 561 682 l 561 197 q 563 117 561 153 q 569 51 565 81 q 575 0 572 22 l 406 0 q 395 63 401 28 q 386 115 389 99 q 333 27 372 67 q 228 -12 294 -12 m 297 128 q 331 137 315 128 q 360 158 347 146 q 378 181 372 171 l 378 404 q 320 368 347 386 q 273 328 293 350 q 242 282 253 307 q 232 224 232 257 q 249 153 232 179 q 297 128 267 128 m 247 1139 l 342 1301 l 508 1301 l 358 1139 l 247 1139 m 331 876 q 180 931 231 876 q 129 1079 129 986 l 238 1079 q 258 1003 238 1029 q 331 976 279 976 q 401 1003 381 976 q 422 1079 422 1031 l 531 1079 q 480 931 531 986 q 331 876 429 876 z "},"ặ":{"ha":628,"x_min":54,"x_max":575,"o":"m 228 -12 q 135 16 174 -12 q 75 88 96 44 q 54 179 54 132 q 82 306 54 254 q 156 392 110 357 q 260 452 201 426 q 378 499 318 478 l 378 568 q 373 626 378 603 q 355 663 368 650 q 314 675 342 675 q 276 664 290 675 q 255 633 261 653 q 247 586 249 613 l 244 538 l 65 544 q 134 749 69 683 q 331 815 199 815 q 506 749 451 815 q 561 568 561 682 l 561 197 q 563 117 561 153 q 569 51 565 81 q 575 0 572 22 l 406 0 q 395 63 401 28 q 386 115 389 99 q 333 27 372 67 q 228 -12 294 -12 m 297 128 q 331 137 315 128 q 360 158 347 146 q 378 181 372 171 l 378 404 q 320 368 347 386 q 273 328 293 350 q 242 282 253 307 q 232 224 232 257 q 249 153 232 179 q 297 128 267 128 m 228 -268 l 228 -93 l 400 -93 l 400 -268 l 228 -268 m 331 892 q 180 947 231 892 q 129 1094 129 1001 l 238 1094 q 258 1018 238 1044 q 331 992 279 992 q 401 1019 381 992 q 422 1094 422 1046 l 531 1094 q 480 947 531 1001 q 331 892 429 892 z "},"ằ":{"ha":628,"x_min":54,"x_max":575,"o":"m 228 -12 q 135 16 174 -12 q 75 88 96 44 q 54 179 54 132 q 82 306 54 254 q 156 392 110 357 q 260 452 201 426 q 378 499 318 478 l 378 568 q 373 626 378 603 q 355 663 368 650 q 314 675 342 675 q 276 664 290 675 q 255 633 261 653 q 247 586 249 613 l 244 538 l 65 544 q 134 749 69 683 q 331 815 199 815 q 506 749 451 815 q 561 568 561 682 l 561 197 q 563 117 561 153 q 569 51 565 81 q 575 0 572 22 l 406 0 q 395 63 401 28 q 386 115 389 99 q 333 27 372 67 q 228 -12 294 -12 m 297 128 q 331 137 315 128 q 360 158 347 146 q 378 181 372 171 l 378 404 q 320 368 347 386 q 273 328 293 350 q 242 282 253 307 q 232 224 232 257 q 249 153 232 179 q 297 128 267 128 m 299 1139 l 149 1301 l 315 1301 l 408 1139 l 299 1139 m 331 876 q 180 931 231 876 q 129 1079 129 986 l 238 1079 q 258 1003 238 1029 q 331 976 279 976 q 401 1003 381 976 q 422 1079 422 1031 l 531 1079 q 480 931 531 986 q 331 876 429 876 z "},"ẳ":{"ha":628,"x_min":54,"x_max":575,"o":"m 228 -12 q 135 16 174 -12 q 75 88 96 44 q 54 179 54 132 q 82 306 54 254 q 156 392 110 357 q 260 452 201 426 q 378 499 318 478 l 378 568 q 373 626 378 603 q 355 663 368 650 q 314 675 342 675 q 276 664 290 675 q 255 633 261 653 q 247 586 249 613 l 244 538 l 65 544 q 134 749 69 683 q 331 815 199 815 q 506 749 451 815 q 561 568 561 682 l 561 197 q 563 117 561 153 q 569 51 565 81 q 575 0 572 22 l 406 0 q 395 63 401 28 q 386 115 389 99 q 333 27 372 67 q 228 -12 294 -12 m 297 128 q 331 137 315 128 q 360 158 347 146 q 378 181 372 171 l 378 404 q 320 368 347 386 q 273 328 293 350 q 242 282 253 307 q 232 224 232 257 q 249 153 232 179 q 297 128 267 128 m 342 1097 l 286 1160 q 328 1197 313 1179 q 344 1242 344 1215 q 326 1283 344 1269 q 279 1297 307 1297 q 244 1294 261 1297 q 211 1285 226 1290 l 211 1369 q 265 1383 238 1379 q 319 1388 292 1388 q 428 1356 385 1388 q 471 1258 471 1325 q 433 1161 471 1199 q 342 1097 396 1124 m 331 892 q 180 947 231 892 q 129 1094 129 1001 l 238 1094 q 258 1018 238 1044 q 331 992 279 992 q 401 1019 381 992 q 422 1094 422 1046 l 531 1094 q 480 947 531 1001 q 331 892 429 892 z "},"ẵ":{"ha":628,"x_min":54,"x_max":575,"o":"m 228 -12 q 135 16 174 -12 q 75 88 96 44 q 54 179 54 132 q 82 306 54 254 q 156 392 110 357 q 260 452 201 426 q 378 499 318 478 l 378 568 q 373 626 378 603 q 355 663 368 650 q 314 675 342 675 q 276 664 290 675 q 255 633 261 653 q 247 586 249 613 l 244 538 l 65 544 q 134 749 69 683 q 331 815 199 815 q 506 749 451 815 q 561 568 561 682 l 561 197 q 563 117 561 153 q 569 51 565 81 q 575 0 572 22 l 406 0 q 395 63 401 28 q 386 115 389 99 q 333 27 372 67 q 228 -12 294 -12 m 297 128 q 331 137 315 128 q 360 158 347 146 q 378 181 372 171 l 378 404 q 320 368 347 386 q 273 328 293 350 q 242 282 253 307 q 232 224 232 257 q 249 153 232 179 q 297 128 267 128 m 329 892 q 178 947 229 892 q 128 1094 128 1001 l 236 1094 q 257 1018 236 1044 q 329 992 278 992 q 400 1019 379 992 q 421 1094 421 1046 l 529 1094 q 478 947 529 1001 q 329 892 428 892 m 439 1165 q 372 1183 401 1165 q 317 1216 343 1200 q 261 1232 290 1232 q 223 1217 233 1232 q 213 1175 213 1203 l 115 1175 q 126 1265 115 1225 q 163 1327 136 1304 q 233 1350 189 1350 q 296 1334 268 1350 q 351 1302 324 1318 q 407 1286 378 1286 q 441 1300 431 1286 q 451 1342 451 1314 l 543 1342 q 536 1258 543 1299 q 506 1192 529 1218 q 439 1165 483 1165 z "},"ǎ":{"ha":628,"x_min":54,"x_max":575,"o":"m 228 -12 q 135 16 174 -12 q 75 88 96 44 q 54 179 54 132 q 82 306 54 254 q 156 392 110 357 q 260 452 201 426 q 378 499 318 478 l 378 568 q 373 626 378 603 q 355 663 368 650 q 314 675 342 675 q 276 664 290 675 q 255 633 261 653 q 247 586 249 613 l 244 538 l 65 544 q 134 749 69 683 q 331 815 199 815 q 506 749 451 815 q 561 568 561 682 l 561 197 q 563 117 561 153 q 569 51 565 81 q 575 0 572 22 l 406 0 q 395 63 401 28 q 386 115 389 99 q 333 27 372 67 q 228 -12 294 -12 m 297 128 q 331 137 315 128 q 360 158 347 146 q 378 181 372 171 l 378 404 q 320 368 347 386 q 273 328 293 350 q 242 282 253 307 q 232 224 232 257 q 249 153 232 179 q 297 128 267 128 m 238 886 l 115 1136 l 254 1136 l 329 979 l 404 1136 l 543 1136 l 421 886 l 238 886 z "},"â":{"ha":628,"x_min":54,"x_max":575,"o":"m 228 -12 q 135 16 174 -12 q 75 88 96 44 q 54 179 54 132 q 82 306 54 254 q 156 392 110 357 q 260 452 201 426 q 378 499 318 478 l 378 568 q 373 626 378 603 q 355 663 368 650 q 314 675 342 675 q 276 664 290 675 q 255 633 261 653 q 247 586 249 613 l 244 538 l 65 544 q 134 749 69 683 q 331 815 199 815 q 506 749 451 815 q 561 568 561 682 l 561 197 q 563 117 561 153 q 569 51 565 81 q 575 0 572 22 l 406 0 q 395 63 401 28 q 386 115 389 99 q 333 27 372 67 q 228 -12 294 -12 m 297 128 q 331 137 315 128 q 360 158 347 146 q 378 181 372 171 l 378 404 q 320 368 347 386 q 273 328 293 350 q 242 282 253 307 q 232 224 232 257 q 249 153 232 179 q 297 128 267 128 m 118 892 l 243 1147 l 413 1147 l 540 892 l 400 892 l 328 1058 l 257 892 l 118 892 z "},"ấ":{"ha":628,"x_min":54,"x_max":735,"o":"m 228 -12 q 135 16 174 -12 q 75 88 96 44 q 54 179 54 132 q 82 306 54 254 q 156 392 110 357 q 260 452 201 426 q 378 499 318 478 l 378 568 q 373 626 378 603 q 355 663 368 650 q 314 675 342 675 q 276 664 290 675 q 255 633 261 653 q 247 586 249 613 l 244 538 l 65 544 q 134 749 69 683 q 331 815 199 815 q 506 749 451 815 q 561 568 561 682 l 561 197 q 563 117 561 153 q 569 51 565 81 q 575 0 572 22 l 406 0 q 395 63 401 28 q 386 115 389 99 q 333 27 372 67 q 228 -12 294 -12 m 297 128 q 331 137 315 128 q 360 158 347 146 q 378 181 372 171 l 378 404 q 320 368 347 386 q 273 328 293 350 q 242 282 253 307 q 232 224 232 257 q 249 153 232 179 q 297 128 267 128 m 118 892 l 243 1115 l 413 1115 l 540 892 l 403 892 l 328 1032 l 254 892 l 118 892 m 511 1046 l 585 1213 l 735 1213 l 617 1046 l 511 1046 z "},"ậ":{"ha":628,"x_min":54,"x_max":575,"o":"m 228 -12 q 135 16 174 -12 q 75 88 96 44 q 54 179 54 132 q 82 306 54 254 q 156 392 110 357 q 260 452 201 426 q 378 499 318 478 l 378 568 q 373 626 378 603 q 355 663 368 650 q 314 675 342 675 q 276 664 290 675 q 255 633 261 653 q 247 586 249 613 l 244 538 l 65 544 q 134 749 69 683 q 331 815 199 815 q 506 749 451 815 q 561 568 561 682 l 561 197 q 563 117 561 153 q 569 51 565 81 q 575 0 572 22 l 406 0 q 395 63 401 28 q 386 115 389 99 q 333 27 372 67 q 228 -12 294 -12 m 297 128 q 331 137 315 128 q 360 158 347 146 q 378 181 372 171 l 378 404 q 320 368 347 386 q 273 328 293 350 q 242 282 253 307 q 232 224 232 257 q 249 153 232 179 q 297 128 267 128 m 228 -268 l 228 -93 l 400 -93 l 400 -268 l 228 -268 m 118 892 l 243 1115 l 413 1115 l 540 892 l 403 892 l 328 1032 l 254 892 l 118 892 z "},"ầ":{"ha":628,"x_min":54,"x_max":656,"o":"m 228 -12 q 135 16 174 -12 q 75 88 96 44 q 54 179 54 132 q 82 306 54 254 q 156 392 110 357 q 260 452 201 426 q 378 499 318 478 l 378 568 q 373 626 378 603 q 355 663 368 650 q 314 675 342 675 q 276 664 290 675 q 255 633 261 653 q 247 586 249 613 l 244 538 l 65 544 q 134 749 69 683 q 331 815 199 815 q 506 749 451 815 q 561 568 561 682 l 561 197 q 563 117 561 153 q 569 51 565 81 q 575 0 572 22 l 406 0 q 395 63 401 28 q 386 115 389 99 q 333 27 372 67 q 228 -12 294 -12 m 297 128 q 331 137 315 128 q 360 158 347 146 q 378 181 372 171 l 378 404 q 320 368 347 386 q 273 328 293 350 q 242 282 253 307 q 232 224 232 257 q 249 153 232 179 q 297 128 267 128 m 118 892 l 243 1115 l 413 1115 l 540 892 l 403 892 l 328 1032 l 254 892 l 118 892 m 549 1046 l 432 1213 l 582 1213 l 656 1046 l 549 1046 z "},"ẩ":{"ha":628,"x_min":54,"x_max":685,"o":"m 228 -12 q 135 16 174 -12 q 75 88 96 44 q 54 179 54 132 q 82 306 54 254 q 156 392 110 357 q 260 452 201 426 q 378 499 318 478 l 378 568 q 373 626 378 603 q 355 663 368 650 q 314 675 342 675 q 276 664 290 675 q 255 633 261 653 q 247 586 249 613 l 244 538 l 65 544 q 134 749 69 683 q 331 815 199 815 q 506 749 451 815 q 561 568 561 682 l 561 197 q 563 117 561 153 q 569 51 565 81 q 575 0 572 22 l 406 0 q 395 63 401 28 q 386 115 389 99 q 333 27 372 67 q 228 -12 294 -12 m 297 128 q 331 137 315 128 q 360 158 347 146 q 378 181 372 171 l 378 404 q 320 368 347 386 q 273 328 293 350 q 242 282 253 307 q 232 224 232 257 q 249 153 232 179 q 297 128 267 128 m 557 1013 l 501 1075 q 544 1113 528 1094 q 560 1157 560 1131 q 541 1199 560 1185 q 494 1213 522 1213 q 458 1209 475 1213 q 426 1200 440 1206 l 426 1285 q 479 1299 453 1294 q 535 1303 506 1303 q 642 1272 599 1303 q 685 1174 685 1240 q 647 1074 685 1110 q 557 1013 610 1039 m 118 892 l 243 1115 l 413 1115 l 540 892 l 403 892 l 328 1032 l 254 892 l 118 892 z "},"ẫ":{"ha":628,"x_min":54,"x_max":575,"o":"m 228 -12 q 135 16 174 -12 q 75 88 96 44 q 54 179 54 132 q 82 306 54 254 q 156 392 110 357 q 260 452 201 426 q 378 499 318 478 l 378 568 q 373 626 378 603 q 355 663 368 650 q 314 675 342 675 q 276 664 290 675 q 255 633 261 653 q 247 586 249 613 l 244 538 l 65 544 q 134 749 69 683 q 331 815 199 815 q 506 749 451 815 q 561 568 561 682 l 561 197 q 563 117 561 153 q 569 51 565 81 q 575 0 572 22 l 406 0 q 395 63 401 28 q 386 115 389 99 q 333 27 372 67 q 228 -12 294 -12 m 297 128 q 331 137 315 128 q 360 158 347 146 q 378 181 372 171 l 378 404 q 320 368 347 386 q 273 328 293 350 q 242 282 253 307 q 232 224 232 257 q 249 153 232 179 q 297 128 267 128 m 118 892 l 243 1115 l 413 1115 l 540 892 l 403 892 l 328 1032 l 254 892 l 118 892 m 439 1181 q 372 1198 401 1181 q 317 1231 343 1215 q 261 1247 290 1247 q 223 1233 233 1247 q 213 1190 213 1218 l 115 1190 q 126 1280 115 1240 q 163 1342 136 1319 q 233 1365 189 1365 q 296 1349 268 1365 q 351 1317 324 1333 q 407 1301 378 1301 q 441 1315 431 1301 q 451 1357 451 1329 l 543 1357 q 536 1274 543 1314 q 506 1207 529 1233 q 439 1181 483 1181 z "},"ȁ":{"ha":628,"x_min":38,"x_max":575,"o":"m 228 -12 q 135 16 174 -12 q 75 88 96 44 q 54 179 54 132 q 82 306 54 254 q 156 392 110 357 q 260 452 201 426 q 378 499 318 478 l 378 568 q 373 626 378 603 q 355 663 368 650 q 314 675 342 675 q 276 664 290 675 q 255 633 261 653 q 247 586 249 613 l 244 538 l 65 544 q 134 749 69 683 q 331 815 199 815 q 506 749 451 815 q 561 568 561 682 l 561 197 q 563 117 561 153 q 569 51 565 81 q 575 0 572 22 l 406 0 q 395 63 401 28 q 386 115 389 99 q 333 27 372 67 q 228 -12 294 -12 m 297 128 q 331 137 315 128 q 360 158 347 146 q 378 181 372 171 l 378 404 q 320 368 347 386 q 273 328 293 350 q 242 282 253 307 q 232 224 232 257 q 249 153 232 179 q 297 128 267 128 m 183 888 l 38 1150 l 199 1150 l 283 888 l 183 888 m 396 888 l 279 1150 l 424 1150 l 493 888 l 396 888 z "},"ä":{"ha":628,"x_min":54,"x_max":575,"o":"m 228 -12 q 135 16 174 -12 q 75 88 96 44 q 54 179 54 132 q 82 306 54 254 q 156 392 110 357 q 260 452 201 426 q 378 499 318 478 l 378 568 q 373 626 378 603 q 355 663 368 650 q 314 675 342 675 q 276 664 290 675 q 255 633 261 653 q 247 586 249 613 l 244 538 l 65 544 q 134 749 69 683 q 331 815 199 815 q 506 749 451 815 q 561 568 561 682 l 561 197 q 563 117 561 153 q 569 51 565 81 q 575 0 572 22 l 406 0 q 395 63 401 28 q 386 115 389 99 q 333 27 372 67 q 228 -12 294 -12 m 297 128 q 331 137 315 128 q 360 158 347 146 q 378 181 372 171 l 378 404 q 320 368 347 386 q 273 328 293 350 q 242 282 253 307 q 232 224 232 257 q 249 153 232 179 q 297 128 267 128 m 382 944 l 382 1125 l 549 1125 l 549 944 l 382 944 m 110 944 l 110 1125 l 276 1125 l 276 944 l 110 944 z "},"ạ":{"ha":628,"x_min":54,"x_max":575,"o":"m 228 -12 q 135 16 174 -12 q 75 88 96 44 q 54 179 54 132 q 82 306 54 254 q 156 392 110 357 q 260 452 201 426 q 378 499 318 478 l 378 568 q 373 626 378 603 q 355 663 368 650 q 314 675 342 675 q 276 664 290 675 q 255 633 261 653 q 247 586 249 613 l 244 538 l 65 544 q 134 749 69 683 q 331 815 199 815 q 506 749 451 815 q 561 568 561 682 l 561 197 q 563 117 561 153 q 569 51 565 81 q 575 0 572 22 l 406 0 q 395 63 401 28 q 386 115 389 99 q 333 27 372 67 q 228 -12 294 -12 m 297 128 q 331 137 315 128 q 360 158 347 146 q 378 181 372 171 l 378 404 q 320 368 347 386 q 273 328 293 350 q 242 282 253 307 q 232 224 232 257 q 249 153 232 179 q 297 128 267 128 m 228 -268 l 228 -93 l 400 -93 l 400 -268 l 228 -268 z "},"à":{"ha":628,"x_min":54,"x_max":575,"o":"m 228 -12 q 135 16 174 -12 q 75 88 96 44 q 54 179 54 132 q 82 306 54 254 q 156 392 110 357 q 260 452 201 426 q 378 499 318 478 l 378 568 q 373 626 378 603 q 355 663 368 650 q 314 675 342 675 q 276 664 290 675 q 255 633 261 653 q 247 586 249 613 l 244 538 l 65 544 q 134 749 69 683 q 331 815 199 815 q 506 749 451 815 q 561 568 561 682 l 561 197 q 563 117 561 153 q 569 51 565 81 q 575 0 572 22 l 406 0 q 395 63 401 28 q 386 115 389 99 q 333 27 372 67 q 228 -12 294 -12 m 297 128 q 331 137 315 128 q 360 158 347 146 q 378 181 372 171 l 378 404 q 320 368 347 386 q 273 328 293 350 q 242 282 253 307 q 232 224 232 257 q 249 153 232 179 q 297 128 267 128 m 278 881 l 113 1158 l 304 1158 l 386 881 l 278 881 z "},"ả":{"ha":628,"x_min":54,"x_max":575,"o":"m 228 -12 q 135 16 174 -12 q 75 88 96 44 q 54 179 54 132 q 82 306 54 254 q 156 392 110 357 q 260 452 201 426 q 378 499 318 478 l 378 568 q 373 626 378 603 q 355 663 368 650 q 314 675 342 675 q 276 664 290 675 q 255 633 261 653 q 247 586 249 613 l 244 538 l 65 544 q 134 749 69 683 q 331 815 199 815 q 506 749 451 815 q 561 568 561 682 l 561 197 q 563 117 561 153 q 569 51 565 81 q 575 0 572 22 l 406 0 q 395 63 401 28 q 386 115 389 99 q 333 27 372 67 q 228 -12 294 -12 m 297 128 q 331 137 315 128 q 360 158 347 146 q 378 181 372 171 l 378 404 q 320 368 347 386 q 273 328 293 350 q 242 282 253 307 q 232 224 232 257 q 249 153 232 179 q 297 128 267 128 m 329 876 l 268 942 q 335 978 308 960 q 363 1026 363 997 q 340 1066 363 1054 q 281 1078 317 1078 q 241 1075 261 1078 q 203 1068 221 1072 l 203 1153 q 329 1168 263 1168 q 410 1155 374 1168 q 469 1113 447 1142 q 492 1039 492 1085 q 470 964 492 994 q 412 913 449 933 q 329 876 375 893 z "},"ȃ":{"ha":628,"x_min":54,"x_max":575,"o":"m 228 -12 q 135 16 174 -12 q 75 88 96 44 q 54 179 54 132 q 82 306 54 254 q 156 392 110 357 q 260 452 201 426 q 378 499 318 478 l 378 568 q 373 626 378 603 q 355 663 368 650 q 314 675 342 675 q 276 664 290 675 q 255 633 261 653 q 247 586 249 613 l 244 538 l 65 544 q 134 749 69 683 q 331 815 199 815 q 506 749 451 815 q 561 568 561 682 l 561 197 q 563 117 561 153 q 569 51 565 81 q 575 0 572 22 l 406 0 q 395 63 401 28 q 386 115 389 99 q 333 27 372 67 q 228 -12 294 -12 m 297 128 q 331 137 315 128 q 360 158 347 146 q 378 181 372 171 l 378 404 q 320 368 347 386 q 273 328 293 350 q 242 282 253 307 q 232 224 232 257 q 249 153 232 179 q 297 128 267 128 m 128 910 q 149 1023 129 975 q 215 1097 169 1071 q 329 1124 260 1124 q 444 1097 400 1124 q 510 1023 489 1071 q 531 910 531 975 l 422 910 q 401 997 422 969 q 329 1024 379 1024 q 258 997 279 1024 q 236 910 238 969 l 128 910 z "},"ā":{"ha":628,"x_min":54,"x_max":575,"o":"m 228 -12 q 135 16 174 -12 q 75 88 96 44 q 54 179 54 132 q 82 306 54 254 q 156 392 110 357 q 260 452 201 426 q 378 499 318 478 l 378 568 q 373 626 378 603 q 355 663 368 650 q 314 675 342 675 q 276 664 290 675 q 255 633 261 653 q 247 586 249 613 l 244 538 l 65 544 q 134 749 69 683 q 331 815 199 815 q 506 749 451 815 q 561 568 561 682 l 561 197 q 563 117 561 153 q 569 51 565 81 q 575 0 572 22 l 406 0 q 395 63 401 28 q 386 115 389 99 q 333 27 372 67 q 228 -12 294 -12 m 297 128 q 331 137 315 128 q 360 158 347 146 q 378 181 372 171 l 378 404 q 320 368 347 386 q 273 328 293 350 q 242 282 253 307 q 232 224 232 257 q 249 153 232 179 q 297 128 267 128 m 165 938 l 165 1036 l 493 1036 l 493 938 l 165 938 z "},"ą":{"ha":628,"x_min":54,"x_max":603,"o":"m 228 -12 q 135 16 174 -12 q 75 88 96 44 q 54 179 54 132 q 82 306 54 254 q 156 392 110 357 q 260 452 201 426 q 378 499 318 478 l 378 568 q 373 626 378 603 q 355 663 368 650 q 314 675 342 675 q 276 664 290 675 q 255 633 261 653 q 247 586 249 613 l 244 538 l 65 544 q 134 749 69 683 q 331 815 199 815 q 506 749 451 815 q 561 568 561 682 l 561 197 q 563 117 561 153 q 569 51 565 81 q 575 0 572 22 l 406 0 q 395 63 401 28 q 386 115 389 99 q 333 27 372 67 q 228 -12 294 -12 m 297 128 q 331 137 315 128 q 360 158 347 146 q 378 181 372 171 l 378 404 q 320 368 347 386 q 273 328 293 350 q 242 282 253 307 q 232 224 232 257 q 249 153 232 179 q 297 128 267 128 m 531 -342 q 458 -337 494 -342 q 390 -318 421 -332 q 342 -278 360 -304 q 324 -207 324 -251 q 343 -125 324 -165 q 392 -51 363 -85 q 454 0 422 -18 l 543 0 q 505 -52 524 -24 q 473 -112 486 -81 q 460 -174 460 -143 q 492 -233 460 -218 q 560 -249 524 -249 q 583 -248 571 -249 q 603 -246 594 -247 l 579 -337 q 556 -340 569 -339 q 531 -342 543 -342 z "},"å":{"ha":628,"x_min":54,"x_max":575,"o":"m 228 -12 q 135 16 174 -12 q 75 88 96 44 q 54 179 54 132 q 82 306 54 254 q 156 392 110 357 q 260 452 201 426 q 378 499 318 478 l 378 568 q 373 626 378 603 q 355 663 368 650 q 314 675 342 675 q 276 664 290 675 q 255 633 261 653 q 247 586 249 613 l 244 538 l 65 544 q 134 749 69 683 q 331 815 199 815 q 506 749 451 815 q 561 568 561 682 l 561 197 q 563 117 561 153 q 569 51 565 81 q 575 0 572 22 l 406 0 q 395 63 401 28 q 386 115 389 99 q 333 27 372 67 q 228 -12 294 -12 m 297 128 q 331 137 315 128 q 360 158 347 146 q 378 181 372 171 l 378 404 q 320 368 347 386 q 273 328 293 350 q 242 282 253 307 q 232 224 232 257 q 249 153 232 179 q 297 128 267 128 m 328 846 q 215 886 261 846 q 169 1000 169 926 q 215 1113 169 1074 q 328 1153 261 1153 q 442 1113 396 1153 q 489 1000 489 1072 q 442 886 489 926 q 328 846 396 846 m 328 924 q 383 945 364 924 q 403 1000 403 967 q 383 1056 403 1035 q 328 1076 364 1076 q 274 1056 293 1076 q 254 1000 254 1035 q 274 945 254 967 q 328 924 293 924 z "},"ǻ":{"ha":628,"x_min":54,"x_max":575,"o":"m 228 -12 q 135 16 174 -12 q 75 88 96 44 q 54 179 54 132 q 82 306 54 254 q 156 392 110 357 q 260 452 201 426 q 378 499 318 478 l 378 568 q 373 626 378 603 q 355 663 368 650 q 314 675 342 675 q 276 664 290 675 q 255 633 261 653 q 247 586 249 613 l 244 538 l 65 544 q 134 749 69 683 q 331 815 199 815 q 506 749 451 815 q 561 568 561 682 l 561 197 q 563 117 561 153 q 569 51 565 81 q 575 0 572 22 l 406 0 q 395 63 401 28 q 386 115 389 99 q 333 27 372 67 q 228 -12 294 -12 m 297 128 q 331 137 315 128 q 360 158 347 146 q 378 181 372 171 l 378 404 q 320 368 347 386 q 273 328 293 350 q 242 282 253 307 q 232 224 232 257 q 249 153 232 179 q 297 128 267 128 m 328 846 q 215 886 261 846 q 169 1000 169 926 q 215 1113 169 1074 q 328 1153 261 1153 q 442 1113 396 1153 q 489 1000 489 1072 q 442 886 489 926 q 328 846 396 846 m 328 924 q 383 945 364 924 q 403 1000 403 967 q 383 1056 403 1035 q 328 1076 364 1076 q 274 1056 293 1076 q 254 1000 254 1035 q 274 945 254 967 q 328 924 293 924 m 272 1217 l 357 1494 l 547 1494 l 382 1217 l 272 1217 z "},"ã":{"ha":628,"x_min":54,"x_max":575,"o":"m 228 -12 q 135 16 174 -12 q 75 88 96 44 q 54 179 54 132 q 82 306 54 254 q 156 392 110 357 q 260 452 201 426 q 378 499 318 478 l 378 568 q 373 626 378 603 q 355 663 368 650 q 314 675 342 675 q 276 664 290 675 q 255 633 261 653 q 247 586 249 613 l 244 538 l 65 544 q 134 749 69 683 q 331 815 199 815 q 506 749 451 815 q 561 568 561 682 l 561 197 q 563 117 561 153 q 569 51 565 81 q 575 0 572 22 l 406 0 q 395 63 401 28 q 386 115 389 99 q 333 27 372 67 q 228 -12 294 -12 m 297 128 q 331 137 315 128 q 360 158 347 146 q 378 181 372 171 l 378 404 q 320 368 347 386 q 273 328 293 350 q 242 282 253 307 q 232 224 232 257 q 249 153 232 179 q 297 128 267 128 m 439 949 q 372 966 401 949 q 317 999 343 983 q 261 1015 290 1015 q 223 1001 233 1015 q 213 958 213 986 l 115 958 q 126 1048 115 1008 q 163 1110 136 1088 q 233 1133 189 1133 q 296 1117 268 1133 q 351 1085 324 1101 q 407 1069 378 1069 q 441 1083 431 1069 q 451 1125 451 1097 l 543 1125 q 536 1042 543 1082 q 506 975 529 1001 q 439 949 483 949 z "},"æ":{"ha":924,"x_min":54,"x_max":864,"o":"m 257 -14 q 107 40 160 -14 q 54 181 54 93 q 84 306 54 257 q 165 385 114 356 q 282 432 217 415 l 376 456 l 376 564 q 363 646 376 618 q 311 674 350 674 q 272 660 288 674 q 249 619 256 647 q 242 549 242 592 l 57 553 q 118 746 57 676 q 300 815 179 815 q 424 778 379 815 q 476 688 468 740 l 454 688 q 487 752 460 724 q 558 798 514 781 q 656 815 603 815 q 813 763 761 815 q 864 626 864 710 q 835 512 864 554 q 760 448 807 469 q 656 413 713 426 l 560 392 l 560 225 q 572 154 560 182 q 622 126 583 126 q 662 140 649 126 q 680 179 675 154 q 685 236 685 204 l 685 281 l 864 281 l 864 231 q 840 99 864 153 q 767 15 815 44 q 643 -14 718 -14 q 551 3 592 -14 q 485 54 511 21 q 451 133 460 88 q 410 54 438 88 q 344 3 382 21 q 257 -14 306 -14 m 300 121 q 342 133 326 121 q 367 168 358 144 q 376 229 376 192 l 376 363 l 324 343 q 270 313 292 331 q 238 270 249 294 q 228 214 228 246 q 235 165 228 186 q 259 133 243 144 q 300 121 275 121 m 560 483 l 608 494 q 678 528 656 506 q 701 597 701 550 q 686 651 701 629 q 633 672 671 672 q 590 659 606 672 q 567 622 574 646 q 560 564 560 599 l 560 483 z "},"ǽ":{"ha":924,"x_min":54,"x_max":864,"o":"m 257 -14 q 107 40 160 -14 q 54 181 54 93 q 84 306 54 257 q 165 385 114 356 q 282 432 217 415 l 376 456 l 376 564 q 363 646 376 618 q 311 674 350 674 q 272 660 288 674 q 249 619 256 647 q 242 549 242 592 l 57 553 q 118 746 57 676 q 300 815 179 815 q 424 778 379 815 q 476 688 468 740 l 454 688 q 487 752 460 724 q 558 798 514 781 q 656 815 603 815 q 813 763 761 815 q 864 626 864 710 q 835 512 864 554 q 760 448 807 469 q 656 413 713 426 l 560 392 l 560 225 q 572 154 560 182 q 622 126 583 126 q 662 140 649 126 q 680 179 675 154 q 685 236 685 204 l 685 281 l 864 281 l 864 231 q 840 99 864 153 q 767 15 815 44 q 643 -14 718 -14 q 551 3 592 -14 q 485 54 511 21 q 451 133 460 88 q 410 54 438 88 q 344 3 382 21 q 257 -14 306 -14 m 300 121 q 342 133 326 121 q 367 168 358 144 q 376 229 376 192 l 376 363 l 324 343 q 270 313 292 331 q 238 270 249 294 q 228 214 228 246 q 235 165 228 186 q 259 133 243 144 q 300 121 275 121 m 560 483 l 608 494 q 678 528 656 506 q 701 597 701 550 q 686 651 701 629 q 633 672 671 672 q 590 659 606 672 q 567 622 574 646 q 560 564 560 599 l 560 483 m 406 881 l 490 1158 l 681 1158 l 515 881 l 406 881 z "},"b":{"ha":663,"x_min":74,"x_max":604,"o":"m 418 -12 q 335 8 374 -12 q 263 60 296 29 l 263 0 l 74 0 l 74 1125 l 263 1125 l 263 742 q 338 795 297 775 q 426 815 379 815 q 515 790 481 815 q 569 724 550 765 q 597 637 589 683 q 604 547 604 590 l 604 275 q 585 131 604 196 q 526 26 567 65 q 418 -12 485 -12 m 346 119 q 391 140 376 119 q 410 194 406 160 q 415 268 415 228 l 415 556 q 410 623 415 593 q 390 671 404 653 q 344 689 375 689 q 301 678 322 689 q 263 656 281 668 l 263 149 q 302 128 281 136 q 346 119 324 119 z "},"ḃ":{"ha":663,"x_min":74,"x_max":604,"o":"m 418 -12 q 335 8 374 -12 q 263 60 296 29 l 263 0 l 74 0 l 74 1125 l 263 1125 l 263 742 q 338 795 297 775 q 426 815 379 815 q 515 790 481 815 q 569 724 550 765 q 597 637 589 683 q 604 547 604 590 l 604 275 q 585 131 604 196 q 526 26 567 65 q 418 -12 485 -12 m 346 119 q 391 140 376 119 q 410 194 406 160 q 415 268 415 228 l 415 556 q 410 623 415 593 q 390 671 404 653 q 344 689 375 689 q 301 678 322 689 q 263 656 281 668 l 263 149 q 302 128 281 136 q 346 119 324 119 m 78 1240 l 78 1431 l 261 1431 l 261 1240 l 78 1240 z "},"c":{"ha":611,"x_min":57,"x_max":560,"o":"m 314 -12 q 165 23 221 -12 q 83 124 108 58 q 57 281 57 190 l 57 522 q 83 681 57 615 q 165 781 108 746 q 314 815 222 815 q 455 788 400 815 q 535 706 510 761 q 560 568 560 651 l 560 501 l 382 501 l 382 572 q 376 638 382 614 q 354 673 369 663 q 314 683 339 683 q 274 670 289 683 q 252 628 258 657 q 246 547 246 599 l 246 253 q 263 148 246 175 q 315 121 279 121 q 358 133 343 121 q 377 170 372 146 q 382 229 382 194 l 382 315 l 560 315 l 560 239 q 534 101 560 158 q 453 16 508 44 q 314 -12 399 -12 z "},"ć":{"ha":611,"x_min":57,"x_max":560,"o":"m 314 -12 q 165 23 221 -12 q 83 124 108 58 q 57 281 57 190 l 57 522 q 83 681 57 615 q 165 781 108 746 q 314 815 222 815 q 455 788 400 815 q 535 706 510 761 q 560 568 560 651 l 560 501 l 382 501 l 382 572 q 376 638 382 614 q 354 673 369 663 q 314 683 339 683 q 274 670 289 683 q 252 628 258 657 q 246 547 246 599 l 246 253 q 263 148 246 175 q 315 121 279 121 q 358 133 343 121 q 377 170 372 146 q 382 229 382 194 l 382 315 l 560 315 l 560 239 q 534 101 560 158 q 453 16 508 44 q 314 -12 399 -12 m 250 881 l 335 1158 l 525 1158 l 360 881 l 250 881 z "},"č":{"ha":611,"x_min":57,"x_max":560,"o":"m 314 -12 q 165 23 221 -12 q 83 124 108 58 q 57 281 57 190 l 57 522 q 83 681 57 615 q 165 781 108 746 q 314 815 222 815 q 455 788 400 815 q 535 706 510 761 q 560 568 560 651 l 560 501 l 382 501 l 382 572 q 376 638 382 614 q 354 673 369 663 q 314 683 339 683 q 274 670 289 683 q 252 628 258 657 q 246 547 246 599 l 246 253 q 263 148 246 175 q 315 121 279 121 q 358 133 343 121 q 377 170 372 146 q 382 229 382 194 l 382 315 l 560 315 l 560 239 q 534 101 560 158 q 453 16 508 44 q 314 -12 399 -12 m 215 886 l 93 1136 l 232 1136 l 307 979 l 382 1136 l 521 1136 l 399 886 l 215 886 z "},"ç":{"ha":611,"x_min":57,"x_max":560,"o":"m 314 -12 q 165 23 221 -12 q 83 124 108 58 q 57 281 57 190 l 57 522 q 83 681 57 615 q 165 781 108 746 q 314 815 222 815 q 455 788 400 815 q 535 706 510 761 q 560 568 560 651 l 560 501 l 382 501 l 382 572 q 376 638 382 614 q 354 673 369 663 q 314 683 339 683 q 274 670 289 683 q 252 628 258 657 q 246 547 246 599 l 246 253 q 263 148 246 175 q 315 121 279 121 q 358 133 343 121 q 377 170 372 146 q 382 229 382 194 l 382 315 l 560 315 l 560 239 q 534 101 560 158 q 453 16 508 44 q 314 -12 399 -12 m 331 -357 q 280 -353 306 -357 q 231 -342 254 -349 l 231 -254 q 267 -262 247 -260 q 306 -265 286 -265 q 367 -253 342 -265 q 392 -214 392 -242 q 374 -173 392 -187 q 329 -150 357 -158 q 268 -139 301 -142 l 268 0 l 347 0 l 347 -85 q 472 -119 425 -85 q 519 -217 519 -153 q 494 -297 519 -267 q 425 -342 468 -328 q 331 -357 382 -357 z "},"ĉ":{"ha":611,"x_min":57,"x_max":560,"o":"m 314 -12 q 165 23 221 -12 q 83 124 108 58 q 57 281 57 190 l 57 522 q 83 681 57 615 q 165 781 108 746 q 314 815 222 815 q 455 788 400 815 q 535 706 510 761 q 560 568 560 651 l 560 501 l 382 501 l 382 572 q 376 638 382 614 q 354 673 369 663 q 314 683 339 683 q 274 670 289 683 q 252 628 258 657 q 246 547 246 599 l 246 253 q 263 148 246 175 q 315 121 279 121 q 358 133 343 121 q 377 170 372 146 q 382 229 382 194 l 382 315 l 560 315 l 560 239 q 534 101 560 158 q 453 16 508 44 q 314 -12 399 -12 m 96 892 l 221 1147 l 390 1147 l 518 892 l 378 892 l 306 1058 l 235 892 l 96 892 z "},"ċ":{"ha":611,"x_min":57,"x_max":560,"o":"m 314 -12 q 165 23 221 -12 q 83 124 108 58 q 57 281 57 190 l 57 522 q 83 681 57 615 q 165 781 108 746 q 314 815 222 815 q 455 788 400 815 q 535 706 510 761 q 560 568 560 651 l 560 501 l 382 501 l 382 572 q 376 638 382 614 q 354 673 369 663 q 314 683 339 683 q 274 670 289 683 q 252 628 258 657 q 246 547 246 599 l 246 253 q 263 148 246 175 q 315 121 279 121 q 358 133 343 121 q 377 170 372 146 q 382 229 382 194 l 382 315 l 560 315 l 560 239 q 534 101 560 158 q 453 16 508 44 q 314 -12 399 -12 m 215 918 l 215 1108 l 399 1108 l 399 918 l 215 918 z "},"d":{"ha":657,"x_min":58,"x_max":586,"o":"m 253 -12 q 108 56 157 -12 q 58 274 58 124 l 58 519 q 77 669 58 603 q 138 776 96 736 q 250 815 179 815 q 330 798 293 815 q 397 753 367 781 l 397 1125 l 586 1125 l 586 0 l 397 0 l 397 57 q 329 6 365 25 q 253 -12 293 -12 m 322 118 q 357 125 338 118 q 397 144 376 132 l 397 660 q 361 678 381 671 q 321 686 342 686 q 265 649 281 686 q 249 560 249 613 l 249 260 q 254 188 249 219 q 276 137 260 156 q 322 118 292 118 z "},"ð":{"ha":689,"x_min":74,"x_max":639,"o":"m 347 -17 q 203 19 264 -17 q 108 126 142 56 q 74 303 74 197 l 74 468 q 99 635 74 563 q 175 750 124 708 q 306 792 226 792 q 376 781 346 792 q 425 754 406 769 q 411 853 422 808 q 385 922 400 899 l 242 865 l 229 931 l 346 978 q 278 1019 325 1004 q 149 1035 232 1035 l 157 1156 q 363 1127 285 1154 q 486 1043 442 1100 l 626 1100 l 639 1035 l 525 989 q 570 882 550 940 q 603 748 590 824 q 615 571 615 672 l 615 314 q 584 126 615 199 q 492 19 553 54 q 347 -17 432 -17 m 350 118 q 397 138 381 118 q 420 191 414 157 q 426 271 426 225 q 426 360 426 315 q 426 449 426 404 q 426 538 426 494 q 426 626 426 582 q 394 647 413 638 q 351 657 375 657 q 295 631 315 657 q 267 549 275 606 q 260 399 260 493 q 265 239 260 301 q 289 147 269 176 q 350 118 308 118 z "},"ď":{"ha":813,"x_min":58,"x_max":838,"o":"m 253 -12 q 108 56 157 -12 q 58 274 58 124 l 58 519 q 77 669 58 603 q 138 776 96 736 q 250 815 179 815 q 330 798 293 815 q 397 753 367 781 l 397 1125 l 586 1125 l 586 0 l 397 0 l 397 57 q 329 6 365 25 q 253 -12 293 -12 m 322 118 q 357 125 338 118 q 397 144 376 132 l 397 660 q 361 678 381 671 q 321 686 342 686 q 265 649 281 686 q 249 560 249 613 l 249 260 q 254 188 249 219 q 276 137 260 156 q 322 118 292 118 m 683 749 l 664 818 q 728 858 701 829 q 754 938 754 886 l 654 938 l 654 1125 l 839 1125 l 839 953 q 800 815 839 865 q 683 749 761 764 z "},"đ":{"ha":664,"x_min":57,"x_max":657,"o":"m 250 -12 q 106 56 156 -12 q 57 274 57 124 l 57 519 q 75 669 57 603 q 135 776 93 736 q 249 815 178 815 q 326 798 290 815 q 393 753 363 781 l 393 944 l 222 944 l 222 1032 l 393 1032 l 393 1125 l 582 1125 l 582 1032 l 657 1032 l 657 944 l 582 944 l 582 0 l 393 0 l 393 57 q 327 6 363 25 q 250 -12 292 -12 m 319 118 q 354 125 335 118 q 393 144 374 132 l 393 660 q 358 678 376 671 q 319 686 339 686 q 262 649 278 686 q 246 560 246 613 l 246 260 q 252 188 246 219 q 274 137 258 156 q 319 118 290 118 z "},"ḋ":{"ha":657,"x_min":58,"x_max":586,"o":"m 253 -12 q 108 56 157 -12 q 58 274 58 124 l 58 519 q 77 669 58 603 q 138 776 96 736 q 250 815 179 815 q 330 798 293 815 q 397 753 367 781 l 397 1125 l 586 1125 l 586 0 l 397 0 l 397 57 q 329 6 365 25 q 253 -12 293 -12 m 322 118 q 357 125 338 118 q 397 144 376 132 l 397 660 q 361 678 381 671 q 321 686 342 686 q 265 649 281 686 q 249 560 249 613 l 249 260 q 254 188 249 219 q 276 137 260 156 q 322 118 292 118 m 400 1240 l 400 1431 l 583 1431 l 583 1240 l 400 1240 z "},"ǳ":{"ha":1172,"x_min":58,"x_max":1136,"o":"m 253 -12 q 108 56 157 -12 q 58 274 58 124 l 58 519 q 77 669 58 603 q 138 776 96 736 q 250 815 179 815 q 330 798 293 815 q 397 753 367 781 l 397 1125 l 586 1125 l 586 0 l 397 0 l 397 57 q 329 6 365 25 q 253 -12 293 -12 m 322 118 q 357 125 338 118 q 397 144 376 132 l 397 660 q 361 678 381 671 q 321 686 342 686 q 265 649 281 686 q 249 560 249 613 l 249 260 q 254 188 249 219 q 276 137 260 156 q 322 118 292 118 m 704 0 l 704 124 l 936 664 l 724 664 l 724 803 l 1136 803 l 1136 693 l 900 140 l 1135 140 l 1135 0 l 704 0 z "},"ǆ":{"ha":1172,"x_min":58,"x_max":1136,"o":"m 253 -12 q 108 56 157 -12 q 58 274 58 124 l 58 519 q 77 669 58 603 q 138 776 96 736 q 250 815 179 815 q 330 798 293 815 q 397 753 367 781 l 397 1125 l 586 1125 l 586 0 l 397 0 l 397 57 q 329 6 365 25 q 253 -12 293 -12 m 322 118 q 357 125 338 118 q 397 144 376 132 l 397 660 q 361 678 381 671 q 321 686 342 686 q 265 649 281 686 q 249 560 249 613 l 249 260 q 254 188 249 219 q 276 137 260 156 q 322 118 292 118 m 704 0 l 704 124 l 936 664 l 724 664 l 724 803 l 1136 803 l 1136 693 l 900 140 l 1135 140 l 1135 0 l 704 0 m 824 886 l 701 1136 l 840 1136 l 915 979 l 990 1136 l 1129 1136 l 1007 886 l 824 886 z "},"e":{"ha":619,"x_min":57,"x_max":564,"o":"m 315 -12 q 168 22 225 -12 q 84 122 111 56 q 57 281 57 188 l 57 522 q 84 683 57 618 q 169 782 111 749 q 315 815 226 815 q 465 779 411 815 q 541 674 518 743 q 564 507 564 606 l 564 393 l 244 393 l 244 235 q 252 171 244 196 q 276 135 260 146 q 317 124 293 124 q 357 135 342 124 q 379 170 372 147 q 386 228 386 193 l 386 294 l 563 294 l 563 240 q 501 53 563 118 q 315 -12 440 -12 m 244 486 l 386 486 l 386 563 q 379 630 386 604 q 357 667 372 656 q 314 679 342 679 q 274 667 289 679 q 251 625 258 654 q 244 542 244 596 l 244 486 z "},"é":{"ha":619,"x_min":57,"x_max":564,"o":"m 315 -12 q 168 22 225 -12 q 84 122 111 56 q 57 281 57 188 l 57 522 q 84 683 57 618 q 169 782 111 749 q 315 815 226 815 q 465 779 411 815 q 541 674 518 743 q 564 507 564 606 l 564 393 l 244 393 l 244 235 q 252 171 244 196 q 276 135 260 146 q 317 124 293 124 q 357 135 342 124 q 379 170 372 147 q 386 228 386 193 l 386 294 l 563 294 l 563 240 q 501 53 563 118 q 315 -12 440 -12 m 244 486 l 386 486 l 386 563 q 379 630 386 604 q 357 667 372 656 q 314 679 342 679 q 274 667 289 679 q 251 625 258 654 q 244 542 244 596 l 244 486 m 256 881 l 340 1158 l 531 1158 l 365 881 l 256 881 z "},"ĕ":{"ha":619,"x_min":57,"x_max":564,"o":"m 315 -12 q 168 22 225 -12 q 84 122 111 56 q 57 281 57 188 l 57 522 q 84 683 57 618 q 169 782 111 749 q 315 815 226 815 q 465 779 411 815 q 541 674 518 743 q 564 507 564 606 l 564 393 l 244 393 l 244 235 q 252 171 244 196 q 276 135 260 146 q 317 124 293 124 q 357 135 342 124 q 379 170 372 147 q 386 228 386 193 l 386 294 l 563 294 l 563 240 q 501 53 563 118 q 315 -12 440 -12 m 244 486 l 386 486 l 386 563 q 379 630 386 604 q 357 667 372 656 q 314 679 342 679 q 274 667 289 679 q 251 625 258 654 q 244 542 244 596 l 244 486 m 313 892 q 162 947 213 892 q 111 1094 111 1001 l 219 1094 q 240 1018 219 1044 q 313 992 261 992 q 383 1019 363 992 q 404 1094 404 1046 l 513 1094 q 462 947 513 1001 q 313 892 411 892 z "},"ě":{"ha":619,"x_min":57,"x_max":564,"o":"m 315 -12 q 168 22 225 -12 q 84 122 111 56 q 57 281 57 188 l 57 522 q 84 683 57 618 q 169 782 111 749 q 315 815 226 815 q 465 779 411 815 q 541 674 518 743 q 564 507 564 606 l 564 393 l 244 393 l 244 235 q 252 171 244 196 q 276 135 260 146 q 317 124 293 124 q 357 135 342 124 q 379 170 372 147 q 386 228 386 193 l 386 294 l 563 294 l 563 240 q 501 53 563 118 q 315 -12 440 -12 m 244 486 l 386 486 l 386 563 q 379 630 386 604 q 357 667 372 656 q 314 679 342 679 q 274 667 289 679 q 251 625 258 654 q 244 542 244 596 l 244 486 m 221 886 l 99 1136 l 238 1136 l 313 979 l 388 1136 l 526 1136 l 404 886 l 221 886 z "},"ê":{"ha":619,"x_min":57,"x_max":564,"o":"m 315 -12 q 168 22 225 -12 q 84 122 111 56 q 57 281 57 188 l 57 522 q 84 683 57 618 q 169 782 111 749 q 315 815 226 815 q 465 779 411 815 q 541 674 518 743 q 564 507 564 606 l 564 393 l 244 393 l 244 235 q 252 171 244 196 q 276 135 260 146 q 317 124 293 124 q 357 135 342 124 q 379 170 372 147 q 386 228 386 193 l 386 294 l 563 294 l 563 240 q 501 53 563 118 q 315 -12 440 -12 m 244 486 l 386 486 l 386 563 q 379 630 386 604 q 357 667 372 656 q 314 679 342 679 q 274 667 289 679 q 251 625 258 654 q 244 542 244 596 l 244 486 m 101 892 l 226 1147 l 396 1147 l 524 892 l 383 892 l 311 1058 l 240 892 l 101 892 z "},"ế":{"ha":619,"x_min":57,"x_max":718,"o":"m 315 -12 q 168 22 225 -12 q 84 122 111 56 q 57 281 57 188 l 57 522 q 84 683 57 618 q 169 782 111 749 q 315 815 226 815 q 465 779 411 815 q 541 674 518 743 q 564 507 564 606 l 564 393 l 244 393 l 244 235 q 252 171 244 196 q 276 135 260 146 q 317 124 293 124 q 357 135 342 124 q 379 170 372 147 q 386 228 386 193 l 386 294 l 563 294 l 563 240 q 501 53 563 118 q 315 -12 440 -12 m 244 486 l 386 486 l 386 563 q 379 630 386 604 q 357 667 372 656 q 314 679 342 679 q 274 667 289 679 q 251 625 258 654 q 244 542 244 596 l 244 486 m 101 892 l 226 1115 l 396 1115 l 524 892 l 386 892 l 311 1032 l 238 892 l 101 892 m 494 1046 l 568 1213 l 718 1213 l 600 1046 l 494 1046 z "},"ệ":{"ha":619,"x_min":57,"x_max":564,"o":"m 315 -12 q 168 22 225 -12 q 84 122 111 56 q 57 281 57 188 l 57 522 q 84 683 57 618 q 169 782 111 749 q 315 815 226 815 q 465 779 411 815 q 541 674 518 743 q 564 507 564 606 l 564 393 l 244 393 l 244 235 q 252 171 244 196 q 276 135 260 146 q 317 124 293 124 q 357 135 342 124 q 379 170 372 147 q 386 228 386 193 l 386 294 l 563 294 l 563 240 q 501 53 563 118 q 315 -12 440 -12 m 244 486 l 386 486 l 386 563 q 379 630 386 604 q 357 667 372 656 q 314 679 342 679 q 274 667 289 679 q 251 625 258 654 q 244 542 244 596 l 244 486 m 224 -268 l 224 -93 l 396 -93 l 396 -268 l 224 -268 m 101 892 l 226 1115 l 396 1115 l 524 892 l 386 892 l 311 1032 l 238 892 l 101 892 z "},"ề":{"ha":619,"x_min":57,"x_max":639,"o":"m 315 -12 q 168 22 225 -12 q 84 122 111 56 q 57 281 57 188 l 57 522 q 84 683 57 618 q 169 782 111 749 q 315 815 226 815 q 465 779 411 815 q 541 674 518 743 q 564 507 564 606 l 564 393 l 244 393 l 244 235 q 252 171 244 196 q 276 135 260 146 q 317 124 293 124 q 357 135 342 124 q 379 170 372 147 q 386 228 386 193 l 386 294 l 563 294 l 563 240 q 501 53 563 118 q 315 -12 440 -12 m 244 486 l 386 486 l 386 563 q 379 630 386 604 q 357 667 372 656 q 314 679 342 679 q 274 667 289 679 q 251 625 258 654 q 244 542 244 596 l 244 486 m 101 892 l 226 1115 l 396 1115 l 524 892 l 386 892 l 311 1032 l 238 892 l 101 892 m 532 1046 l 415 1213 l 565 1213 l 639 1046 l 532 1046 z "},"ể":{"ha":619,"x_min":57,"x_max":668,"o":"m 315 -12 q 168 22 225 -12 q 84 122 111 56 q 57 281 57 188 l 57 522 q 84 683 57 618 q 169 782 111 749 q 315 815 226 815 q 465 779 411 815 q 541 674 518 743 q 564 507 564 606 l 564 393 l 244 393 l 244 235 q 252 171 244 196 q 276 135 260 146 q 317 124 293 124 q 357 135 342 124 q 379 170 372 147 q 386 228 386 193 l 386 294 l 563 294 l 563 240 q 501 53 563 118 q 315 -12 440 -12 m 244 486 l 386 486 l 386 563 q 379 630 386 604 q 357 667 372 656 q 314 679 342 679 q 274 667 289 679 q 251 625 258 654 q 244 542 244 596 l 244 486 m 540 1013 l 485 1075 q 527 1113 511 1094 q 543 1157 543 1131 q 524 1199 543 1185 q 478 1213 506 1213 q 441 1209 458 1213 q 410 1200 424 1206 l 410 1285 q 463 1299 436 1294 q 518 1303 489 1303 q 625 1272 582 1303 q 668 1174 668 1240 q 631 1074 668 1110 q 540 1013 593 1039 m 101 892 l 226 1115 l 396 1115 l 524 892 l 386 892 l 311 1032 l 238 892 l 101 892 z "},"ễ":{"ha":619,"x_min":57,"x_max":564,"o":"m 315 -12 q 168 22 225 -12 q 84 122 111 56 q 57 281 57 188 l 57 522 q 84 683 57 618 q 169 782 111 749 q 315 815 226 815 q 465 779 411 815 q 541 674 518 743 q 564 507 564 606 l 564 393 l 244 393 l 244 235 q 252 171 244 196 q 276 135 260 146 q 317 124 293 124 q 357 135 342 124 q 379 170 372 147 q 386 228 386 193 l 386 294 l 563 294 l 563 240 q 501 53 563 118 q 315 -12 440 -12 m 244 486 l 386 486 l 386 563 q 379 630 386 604 q 357 667 372 656 q 314 679 342 679 q 274 667 289 679 q 251 625 258 654 q 244 542 244 596 l 244 486 m 101 892 l 226 1115 l 396 1115 l 524 892 l 386 892 l 311 1032 l 238 892 l 101 892 m 422 1181 q 356 1198 385 1181 q 300 1231 326 1215 q 244 1247 274 1247 q 206 1233 217 1247 q 196 1190 196 1218 l 99 1190 q 109 1280 99 1240 q 146 1342 119 1319 q 217 1365 172 1365 q 279 1349 251 1365 q 334 1317 307 1333 q 390 1301 361 1301 q 424 1315 414 1301 q 435 1357 435 1329 l 526 1357 q 519 1274 526 1314 q 490 1207 513 1233 q 422 1181 467 1181 z "},"ȅ":{"ha":619,"x_min":21,"x_max":564,"o":"m 315 -12 q 168 22 225 -12 q 84 122 111 56 q 57 281 57 188 l 57 522 q 84 683 57 618 q 169 782 111 749 q 315 815 226 815 q 465 779 411 815 q 541 674 518 743 q 564 507 564 606 l 564 393 l 244 393 l 244 235 q 252 171 244 196 q 276 135 260 146 q 317 124 293 124 q 357 135 342 124 q 379 170 372 147 q 386 228 386 193 l 386 294 l 563 294 l 563 240 q 501 53 563 118 q 315 -12 440 -12 m 244 486 l 386 486 l 386 563 q 379 630 386 604 q 357 667 372 656 q 314 679 342 679 q 274 667 289 679 q 251 625 258 654 q 244 542 244 596 l 244 486 m 167 888 l 21 1150 l 182 1150 l 267 888 l 167 888 m 379 888 l 263 1150 l 407 1150 l 476 888 l 379 888 z "},"ë":{"ha":619,"x_min":57,"x_max":564,"o":"m 315 -12 q 168 22 225 -12 q 84 122 111 56 q 57 281 57 188 l 57 522 q 84 683 57 618 q 169 782 111 749 q 315 815 226 815 q 465 779 411 815 q 541 674 518 743 q 564 507 564 606 l 564 393 l 244 393 l 244 235 q 252 171 244 196 q 276 135 260 146 q 317 124 293 124 q 357 135 342 124 q 379 170 372 147 q 386 228 386 193 l 386 294 l 563 294 l 563 240 q 501 53 563 118 q 315 -12 440 -12 m 244 486 l 386 486 l 386 563 q 379 630 386 604 q 357 667 372 656 q 314 679 342 679 q 274 667 289 679 q 251 625 258 654 q 244 542 244 596 l 244 486 m 365 944 l 365 1125 l 532 1125 l 532 944 l 365 944 m 93 944 l 93 1125 l 260 1125 l 260 944 l 93 944 z "},"ė":{"ha":619,"x_min":57,"x_max":564,"o":"m 315 -12 q 168 22 225 -12 q 84 122 111 56 q 57 281 57 188 l 57 522 q 84 683 57 618 q 169 782 111 749 q 315 815 226 815 q 465 779 411 815 q 541 674 518 743 q 564 507 564 606 l 564 393 l 244 393 l 244 235 q 252 171 244 196 q 276 135 260 146 q 317 124 293 124 q 357 135 342 124 q 379 170 372 147 q 386 228 386 193 l 386 294 l 563 294 l 563 240 q 501 53 563 118 q 315 -12 440 -12 m 244 486 l 386 486 l 386 563 q 379 630 386 604 q 357 667 372 656 q 314 679 342 679 q 274 667 289 679 q 251 625 258 654 q 244 542 244 596 l 244 486 m 221 918 l 221 1108 l 404 1108 l 404 918 l 221 918 z "},"ẹ":{"ha":619,"x_min":57,"x_max":564,"o":"m 315 -12 q 168 22 225 -12 q 84 122 111 56 q 57 281 57 188 l 57 522 q 84 683 57 618 q 169 782 111 749 q 315 815 226 815 q 465 779 411 815 q 541 674 518 743 q 564 507 564 606 l 564 393 l 244 393 l 244 235 q 252 171 244 196 q 276 135 260 146 q 317 124 293 124 q 357 135 342 124 q 379 170 372 147 q 386 228 386 193 l 386 294 l 563 294 l 563 240 q 501 53 563 118 q 315 -12 440 -12 m 244 486 l 386 486 l 386 563 q 379 630 386 604 q 357 667 372 656 q 314 679 342 679 q 274 667 289 679 q 251 625 258 654 q 244 542 244 596 l 244 486 m 224 -268 l 224 -93 l 396 -93 l 396 -268 l 224 -268 z "},"è":{"ha":619,"x_min":57,"x_max":564,"o":"m 315 -12 q 168 22 225 -12 q 84 122 111 56 q 57 281 57 188 l 57 522 q 84 683 57 618 q 169 782 111 749 q 315 815 226 815 q 465 779 411 815 q 541 674 518 743 q 564 507 564 606 l 564 393 l 244 393 l 244 235 q 252 171 244 196 q 276 135 260 146 q 317 124 293 124 q 357 135 342 124 q 379 170 372 147 q 386 228 386 193 l 386 294 l 563 294 l 563 240 q 501 53 563 118 q 315 -12 440 -12 m 244 486 l 386 486 l 386 563 q 379 630 386 604 q 357 667 372 656 q 314 679 342 679 q 274 667 289 679 q 251 625 258 654 q 244 542 244 596 l 244 486 m 261 881 l 96 1158 l 288 1158 l 369 881 l 261 881 z "},"ẻ":{"ha":619,"x_min":57,"x_max":564,"o":"m 315 -12 q 168 22 225 -12 q 84 122 111 56 q 57 281 57 188 l 57 522 q 84 683 57 618 q 169 782 111 749 q 315 815 226 815 q 465 779 411 815 q 541 674 518 743 q 564 507 564 606 l 564 393 l 244 393 l 244 235 q 252 171 244 196 q 276 135 260 146 q 317 124 293 124 q 357 135 342 124 q 379 170 372 147 q 386 228 386 193 l 386 294 l 563 294 l 563 240 q 501 53 563 118 q 315 -12 440 -12 m 244 486 l 386 486 l 386 563 q 379 630 386 604 q 357 667 372 656 q 314 679 342 679 q 274 667 289 679 q 251 625 258 654 q 244 542 244 596 l 244 486 m 313 876 l 251 942 q 319 978 292 960 q 346 1026 346 997 q 323 1066 346 1054 q 264 1078 300 1078 q 224 1075 244 1078 q 186 1068 204 1072 l 186 1153 q 313 1168 246 1168 q 394 1155 357 1168 q 453 1113 431 1142 q 475 1039 475 1085 q 453 964 475 994 q 395 913 432 933 q 313 876 358 893 z "},"ȇ":{"ha":619,"x_min":57,"x_max":564,"o":"m 315 -12 q 168 22 225 -12 q 84 122 111 56 q 57 281 57 188 l 57 522 q 84 683 57 618 q 169 782 111 749 q 315 815 226 815 q 465 779 411 815 q 541 674 518 743 q 564 507 564 606 l 564 393 l 244 393 l 244 235 q 252 171 244 196 q 276 135 260 146 q 317 124 293 124 q 357 135 342 124 q 379 170 372 147 q 386 228 386 193 l 386 294 l 563 294 l 563 240 q 501 53 563 118 q 315 -12 440 -12 m 244 486 l 386 486 l 386 563 q 379 630 386 604 q 357 667 372 656 q 314 679 342 679 q 274 667 289 679 q 251 625 258 654 q 244 542 244 596 l 244 486 m 111 910 q 133 1023 113 975 q 198 1097 153 1071 q 313 1124 243 1124 q 428 1097 383 1124 q 493 1023 472 1071 q 514 910 514 975 l 406 910 q 384 997 406 969 q 313 1024 363 1024 q 242 997 263 1024 q 219 910 221 969 l 111 910 z "},"ē":{"ha":619,"x_min":57,"x_max":564,"o":"m 315 -12 q 168 22 225 -12 q 84 122 111 56 q 57 281 57 188 l 57 522 q 84 683 57 618 q 169 782 111 749 q 315 815 226 815 q 465 779 411 815 q 541 674 518 743 q 564 507 564 606 l 564 393 l 244 393 l 244 235 q 252 171 244 196 q 276 135 260 146 q 317 124 293 124 q 357 135 342 124 q 379 170 372 147 q 386 228 386 193 l 386 294 l 563 294 l 563 240 q 501 53 563 118 q 315 -12 440 -12 m 244 486 l 386 486 l 386 563 q 379 630 386 604 q 357 667 372 656 q 314 679 342 679 q 274 667 289 679 q 251 625 258 654 q 244 542 244 596 l 244 486 m 149 938 l 149 1036 l 476 1036 l 476 938 l 149 938 z "},"ę":{"ha":619,"x_min":57,"x_max":564,"o":"m 315 -12 q 168 22 225 -12 q 84 122 111 56 q 57 281 57 188 l 57 522 q 84 683 57 618 q 169 782 111 749 q 315 815 226 815 q 465 779 411 815 q 541 674 518 743 q 564 507 564 606 l 564 393 l 244 393 l 244 235 q 252 171 244 196 q 276 135 260 146 q 317 124 293 124 q 357 135 342 124 q 379 170 372 147 q 386 228 386 193 l 386 294 l 563 294 l 563 240 q 501 53 563 118 q 315 -12 440 -12 m 244 486 l 386 486 l 386 563 q 379 630 386 604 q 357 667 372 656 q 314 679 342 679 q 274 667 289 679 q 251 625 258 654 q 244 542 244 596 l 244 486 m 394 -328 q 322 -323 358 -328 q 254 -304 285 -318 q 206 -264 224 -290 q 188 -193 188 -237 q 207 -111 188 -151 q 256 -37 226 -71 q 318 14 286 -4 l 407 14 q 369 -38 388 -10 q 337 -98 350 -67 q 324 -160 324 -129 q 356 -219 324 -204 q 424 -235 388 -235 q 447 -234 435 -235 q 467 -232 458 -233 l 443 -324 q 420 -326 433 -325 q 394 -328 407 -328 z "},"ẽ":{"ha":619,"x_min":57,"x_max":564,"o":"m 315 -12 q 168 22 225 -12 q 84 122 111 56 q 57 281 57 188 l 57 522 q 84 683 57 618 q 169 782 111 749 q 315 815 226 815 q 465 779 411 815 q 541 674 518 743 q 564 507 564 606 l 564 393 l 244 393 l 244 235 q 252 171 244 196 q 276 135 260 146 q 317 124 293 124 q 357 135 342 124 q 379 170 372 147 q 386 228 386 193 l 386 294 l 563 294 l 563 240 q 501 53 563 118 q 315 -12 440 -12 m 244 486 l 386 486 l 386 563 q 379 630 386 604 q 357 667 372 656 q 314 679 342 679 q 274 667 289 679 q 251 625 258 654 q 244 542 244 596 l 244 486 m 422 949 q 356 966 385 949 q 300 999 326 983 q 244 1015 274 1015 q 206 1001 217 1015 q 196 958 196 986 l 99 958 q 109 1048 99 1008 q 146 1110 119 1088 q 217 1133 172 1133 q 279 1117 251 1133 q 334 1085 307 1101 q 390 1069 361 1069 q 424 1083 414 1069 q 435 1125 435 1097 l 526 1125 q 519 1042 526 1082 q 490 975 513 1001 q 422 949 467 949 z "},"ə":{"ha":619,"x_min":56,"x_max":563,"o":"m 304 -15 q 156 21 210 -15 q 78 126 101 57 q 56 293 56 194 l 56 408 l 375 408 l 375 564 q 369 624 375 597 q 348 665 363 650 q 304 679 333 679 q 264 668 279 679 q 242 633 249 657 q 235 576 235 610 l 235 508 l 57 508 l 57 564 q 119 750 57 685 q 304 815 181 815 q 452 782 394 815 q 536 683 510 749 q 563 522 563 617 l 563 279 q 535 119 563 185 q 451 19 508 53 q 304 -15 394 -15 m 304 122 q 347 134 332 122 q 368 176 361 146 q 375 258 375 206 l 375 314 l 235 314 l 235 239 q 241 172 235 199 q 263 134 247 146 q 304 122 279 122 z "},"ʒ":{"ha":656,"x_min":36,"x_max":615,"o":"m 324 -279 q 158 -239 221 -279 q 65 -126 94 -199 q 36 44 36 -54 l 36 83 l 222 83 q 222 69 222 79 q 222 50 222 60 q 243 -90 222 -42 q 325 -137 264 -137 q 390 -115 368 -137 q 420 -47 413 -92 q 428 60 428 -3 q 415 196 428 143 q 367 274 401 249 q 265 299 332 299 l 151 299 l 151 413 l 383 711 l 424 664 l 82 664 l 82 803 l 554 803 l 554 693 l 304 364 l 247 408 l 324 408 q 501 366 438 408 q 590 246 564 324 q 615 64 615 168 q 587 -115 615 -37 q 494 -236 558 -193 q 324 -279 429 -279 z "},"ǯ":{"ha":656,"x_min":36,"x_max":615,"o":"m 324 -279 q 158 -239 221 -279 q 65 -126 94 -199 q 36 44 36 -54 l 36 83 l 222 83 q 222 69 222 79 q 222 50 222 60 q 243 -90 222 -42 q 325 -137 264 -137 q 390 -115 368 -137 q 420 -47 413 -92 q 428 60 428 -3 q 415 196 428 143 q 367 274 401 249 q 265 299 332 299 l 151 299 l 151 413 l 383 711 l 424 664 l 82 664 l 82 803 l 554 803 l 554 693 l 304 364 l 247 408 l 324 408 q 501 366 438 408 q 590 246 564 324 q 615 64 615 168 q 587 -115 615 -37 q 494 -236 558 -193 q 324 -279 429 -279 m 236 886 l 114 1136 l 253 1136 l 328 979 l 403 1136 l 542 1136 l 419 886 l 236 886 z "},"f":{"ha":422,"x_min":25,"x_max":411,"o":"m 111 0 l 111 671 l 25 671 l 25 803 l 111 803 l 111 854 q 124 980 111 926 q 180 1063 138 1033 q 308 1092 222 1092 q 358 1090 335 1092 q 411 1083 382 1088 l 411 943 q 385 948 400 946 q 358 950 371 950 q 313 929 325 950 q 300 868 300 908 l 300 803 l 411 803 l 411 671 l 300 671 l 300 0 l 111 0 z "},"ḟ":{"ha":422,"x_min":25,"x_max":411,"o":"m 111 0 l 111 671 l 25 671 l 25 803 l 111 803 l 111 854 q 124 980 111 926 q 180 1063 138 1033 q 308 1092 222 1092 q 358 1090 335 1092 q 411 1083 382 1088 l 411 943 q 385 948 400 946 q 358 950 371 950 q 313 929 325 950 q 300 868 300 908 l 300 803 l 411 803 l 411 671 l 300 671 l 300 0 l 111 0 m 181 1200 l 181 1390 l 364 1390 l 364 1200 l 181 1200 z "},"g":{"ha":651,"x_min":32,"x_max":669,"o":"m 308 -264 q 164 -247 226 -264 q 67 -196 101 -231 q 32 -106 32 -161 q 48 -38 32 -68 q 92 14 64 -8 q 151 51 119 36 q 81 92 106 64 q 57 158 57 119 q 81 239 57 206 q 146 310 104 272 q 81 397 103 344 q 60 533 60 449 q 90 688 60 625 q 177 783 119 751 q 318 815 235 815 q 425 797 382 815 q 496 740 468 778 q 535 782 507 757 q 599 824 563 807 l 624 835 l 669 733 q 628 719 654 729 q 578 699 603 710 q 539 679 553 688 q 560 610 551 651 q 568 531 568 568 q 542 383 568 446 q 460 287 515 321 q 318 253 406 253 q 261 258 289 253 q 210 269 233 263 q 194 243 201 257 q 186 214 186 229 q 203 189 186 199 q 258 175 219 179 l 428 158 q 574 97 526 149 q 621 -44 621 44 q 588 -165 621 -117 q 487 -239 556 -214 q 308 -264 418 -264 m 329 -122 q 446 -107 407 -122 q 485 -51 485 -92 q 475 -15 485 -29 q 440 8 465 -1 q 369 21 415 17 l 232 33 q 205 8 217 21 q 186 -21 193 -6 q 179 -53 179 -36 q 213 -105 179 -87 q 329 -122 246 -122 m 318 374 q 358 383 343 374 q 382 412 374 392 q 393 463 390 432 q 396 533 396 493 q 393 604 396 574 q 383 656 390 635 q 360 686 375 676 q 318 696 344 696 q 277 686 293 696 q 253 656 261 676 q 242 606 246 636 q 239 533 239 575 q 242 465 239 494 q 253 415 244 435 q 277 384 261 394 q 318 374 293 374 z "},"ǵ":{"ha":651,"x_min":32,"x_max":669,"o":"m 308 -264 q 164 -247 226 -264 q 67 -196 101 -231 q 32 -106 32 -161 q 48 -38 32 -68 q 92 14 64 -8 q 151 51 119 36 q 81 92 106 64 q 57 158 57 119 q 81 239 57 206 q 146 310 104 272 q 81 397 103 344 q 60 533 60 449 q 90 688 60 625 q 177 783 119 751 q 318 815 235 815 q 425 797 382 815 q 496 740 468 778 q 535 782 507 757 q 599 824 563 807 l 624 835 l 669 733 q 628 719 654 729 q 578 699 603 710 q 539 679 553 688 q 560 610 551 651 q 568 531 568 568 q 542 383 568 446 q 460 287 515 321 q 318 253 406 253 q 261 258 289 253 q 210 269 233 263 q 194 243 201 257 q 186 214 186 229 q 203 189 186 199 q 258 175 219 179 l 428 158 q 574 97 526 149 q 621 -44 621 44 q 588 -165 621 -117 q 487 -239 556 -214 q 308 -264 418 -264 m 329 -122 q 446 -107 407 -122 q 485 -51 485 -92 q 475 -15 485 -29 q 440 8 465 -1 q 369 21 415 17 l 232 33 q 205 8 217 21 q 186 -21 193 -6 q 179 -53 179 -36 q 213 -105 179 -87 q 329 -122 246 -122 m 318 374 q 358 383 343 374 q 382 412 374 392 q 393 463 390 432 q 396 533 396 493 q 393 604 396 574 q 383 656 390 635 q 360 686 375 676 q 318 696 344 696 q 277 686 293 696 q 253 656 261 676 q 242 606 246 636 q 239 533 239 575 q 242 465 239 494 q 253 415 244 435 q 277 384 261 394 q 318 374 293 374 m 269 881 l 354 1158 l 544 1158 l 379 881 l 269 881 z "},"ğ":{"ha":651,"x_min":32,"x_max":669,"o":"m 308 -264 q 164 -247 226 -264 q 67 -196 101 -231 q 32 -106 32 -161 q 48 -38 32 -68 q 92 14 64 -8 q 151 51 119 36 q 81 92 106 64 q 57 158 57 119 q 81 239 57 206 q 146 310 104 272 q 81 397 103 344 q 60 533 60 449 q 90 688 60 625 q 177 783 119 751 q 318 815 235 815 q 425 797 382 815 q 496 740 468 778 q 535 782 507 757 q 599 824 563 807 l 624 835 l 669 733 q 628 719 654 729 q 578 699 603 710 q 539 679 553 688 q 560 610 551 651 q 568 531 568 568 q 542 383 568 446 q 460 287 515 321 q 318 253 406 253 q 261 258 289 253 q 210 269 233 263 q 194 243 201 257 q 186 214 186 229 q 203 189 186 199 q 258 175 219 179 l 428 158 q 574 97 526 149 q 621 -44 621 44 q 588 -165 621 -117 q 487 -239 556 -214 q 308 -264 418 -264 m 329 -122 q 446 -107 407 -122 q 485 -51 485 -92 q 475 -15 485 -29 q 440 8 465 -1 q 369 21 415 17 l 232 33 q 205 8 217 21 q 186 -21 193 -6 q 179 -53 179 -36 q 213 -105 179 -87 q 329 -122 246 -122 m 318 374 q 358 383 343 374 q 382 412 374 392 q 393 463 390 432 q 396 533 396 493 q 393 604 396 574 q 383 656 390 635 q 360 686 375 676 q 318 696 344 696 q 277 686 293 696 q 253 656 261 676 q 242 606 246 636 q 239 533 239 575 q 242 465 239 494 q 253 415 244 435 q 277 384 261 394 q 318 374 293 374 m 328 892 q 177 947 228 892 q 126 1094 126 1001 l 235 1094 q 256 1018 235 1044 q 328 992 276 992 q 399 1019 378 992 q 419 1094 419 1046 l 528 1094 q 477 947 528 1001 q 328 892 426 892 z "},"ǧ":{"ha":651,"x_min":32,"x_max":669,"o":"m 308 -264 q 164 -247 226 -264 q 67 -196 101 -231 q 32 -106 32 -161 q 48 -38 32 -68 q 92 14 64 -8 q 151 51 119 36 q 81 92 106 64 q 57 158 57 119 q 81 239 57 206 q 146 310 104 272 q 81 397 103 344 q 60 533 60 449 q 90 688 60 625 q 177 783 119 751 q 318 815 235 815 q 425 797 382 815 q 496 740 468 778 q 535 782 507 757 q 599 824 563 807 l 624 835 l 669 733 q 628 719 654 729 q 578 699 603 710 q 539 679 553 688 q 560 610 551 651 q 568 531 568 568 q 542 383 568 446 q 460 287 515 321 q 318 253 406 253 q 261 258 289 253 q 210 269 233 263 q 194 243 201 257 q 186 214 186 229 q 203 189 186 199 q 258 175 219 179 l 428 158 q 574 97 526 149 q 621 -44 621 44 q 588 -165 621 -117 q 487 -239 556 -214 q 308 -264 418 -264 m 329 -122 q 446 -107 407 -122 q 485 -51 485 -92 q 475 -15 485 -29 q 440 8 465 -1 q 369 21 415 17 l 232 33 q 205 8 217 21 q 186 -21 193 -6 q 179 -53 179 -36 q 213 -105 179 -87 q 329 -122 246 -122 m 318 374 q 358 383 343 374 q 382 412 374 392 q 393 463 390 432 q 396 533 396 493 q 393 604 396 574 q 383 656 390 635 q 360 686 375 676 q 318 696 344 696 q 277 686 293 696 q 253 656 261 676 q 242 606 246 636 q 239 533 239 575 q 242 465 239 494 q 253 415 244 435 q 277 384 261 394 q 318 374 293 374 m 235 886 l 113 1136 l 251 1136 l 326 979 l 401 1136 l 540 1136 l 418 886 l 235 886 z "},"ĝ":{"ha":651,"x_min":32,"x_max":669,"o":"m 308 -264 q 164 -247 226 -264 q 67 -196 101 -231 q 32 -106 32 -161 q 48 -38 32 -68 q 92 14 64 -8 q 151 51 119 36 q 81 92 106 64 q 57 158 57 119 q 81 239 57 206 q 146 310 104 272 q 81 397 103 344 q 60 533 60 449 q 90 688 60 625 q 177 783 119 751 q 318 815 235 815 q 425 797 382 815 q 496 740 468 778 q 535 782 507 757 q 599 824 563 807 l 624 835 l 669 733 q 628 719 654 729 q 578 699 603 710 q 539 679 553 688 q 560 610 551 651 q 568 531 568 568 q 542 383 568 446 q 460 287 515 321 q 318 253 406 253 q 261 258 289 253 q 210 269 233 263 q 194 243 201 257 q 186 214 186 229 q 203 189 186 199 q 258 175 219 179 l 428 158 q 574 97 526 149 q 621 -44 621 44 q 588 -165 621 -117 q 487 -239 556 -214 q 308 -264 418 -264 m 329 -122 q 446 -107 407 -122 q 485 -51 485 -92 q 475 -15 485 -29 q 440 8 465 -1 q 369 21 415 17 l 232 33 q 205 8 217 21 q 186 -21 193 -6 q 179 -53 179 -36 q 213 -105 179 -87 q 329 -122 246 -122 m 318 374 q 358 383 343 374 q 382 412 374 392 q 393 463 390 432 q 396 533 396 493 q 393 604 396 574 q 383 656 390 635 q 360 686 375 676 q 318 696 344 696 q 277 686 293 696 q 253 656 261 676 q 242 606 246 636 q 239 533 239 575 q 242 465 239 494 q 253 415 244 435 q 277 384 261 394 q 318 374 293 374 m 115 892 l 240 1147 l 410 1147 l 538 892 l 397 892 l 325 1058 l 254 892 l 115 892 z "},"ģ":{"ha":651,"x_min":32,"x_max":669,"o":"m 381 1249 l 408 1175 q 344 1147 368 1169 q 319 1075 319 1125 l 418 1075 l 418 893 l 235 893 l 236 1056 q 267 1195 236 1143 q 381 1249 299 1247 m 308 -264 q 164 -247 226 -264 q 67 -196 101 -231 q 32 -106 32 -161 q 48 -38 32 -68 q 92 14 64 -8 q 151 51 119 36 q 81 92 106 64 q 57 158 57 119 q 81 239 57 206 q 146 310 104 272 q 81 397 103 344 q 60 533 60 449 q 90 688 60 625 q 177 783 119 751 q 318 815 235 815 q 425 797 382 815 q 496 740 468 778 q 535 782 507 757 q 599 824 563 807 l 624 835 l 669 733 q 628 719 654 729 q 578 699 603 710 q 539 679 553 688 q 560 610 551 651 q 568 531 568 568 q 542 383 568 446 q 460 287 515 321 q 318 253 406 253 q 261 258 289 253 q 210 269 233 263 q 194 243 201 257 q 186 214 186 229 q 203 189 186 199 q 258 175 219 179 l 428 158 q 574 97 526 149 q 621 -44 621 44 q 588 -165 621 -117 q 487 -239 556 -214 q 308 -264 418 -264 m 329 -122 q 446 -107 407 -122 q 485 -51 485 -92 q 475 -15 485 -29 q 440 8 465 -1 q 369 21 415 17 l 232 33 q 205 8 217 21 q 186 -21 193 -6 q 179 -53 179 -36 q 213 -105 179 -87 q 329 -122 246 -122 m 318 374 q 358 383 343 374 q 382 412 374 392 q 393 463 390 432 q 396 533 396 493 q 393 604 396 574 q 383 656 390 635 q 360 686 375 676 q 318 696 344 696 q 277 686 293 696 q 253 656 261 676 q 242 606 246 636 q 239 533 239 575 q 242 465 239 494 q 253 415 244 435 q 277 384 261 394 q 318 374 293 374 z "},"ġ":{"ha":651,"x_min":32,"x_max":669,"o":"m 308 -264 q 164 -247 226 -264 q 67 -196 101 -231 q 32 -106 32 -161 q 48 -38 32 -68 q 92 14 64 -8 q 151 51 119 36 q 81 92 106 64 q 57 158 57 119 q 81 239 57 206 q 146 310 104 272 q 81 397 103 344 q 60 533 60 449 q 90 688 60 625 q 177 783 119 751 q 318 815 235 815 q 425 797 382 815 q 496 740 468 778 q 535 782 507 757 q 599 824 563 807 l 624 835 l 669 733 q 628 719 654 729 q 578 699 603 710 q 539 679 553 688 q 560 610 551 651 q 568 531 568 568 q 542 383 568 446 q 460 287 515 321 q 318 253 406 253 q 261 258 289 253 q 210 269 233 263 q 194 243 201 257 q 186 214 186 229 q 203 189 186 199 q 258 175 219 179 l 428 158 q 574 97 526 149 q 621 -44 621 44 q 588 -165 621 -117 q 487 -239 556 -214 q 308 -264 418 -264 m 329 -122 q 446 -107 407 -122 q 485 -51 485 -92 q 475 -15 485 -29 q 440 8 465 -1 q 369 21 415 17 l 232 33 q 205 8 217 21 q 186 -21 193 -6 q 179 -53 179 -36 q 213 -105 179 -87 q 329 -122 246 -122 m 318 374 q 358 383 343 374 q 382 412 374 392 q 393 463 390 432 q 396 533 396 493 q 393 604 396 574 q 383 656 390 635 q 360 686 375 676 q 318 696 344 696 q 277 686 293 696 q 253 656 261 676 q 242 606 246 636 q 239 533 239 575 q 242 465 239 494 q 253 415 244 435 q 277 384 261 394 q 318 374 293 374 m 235 918 l 235 1108 l 418 1108 l 418 918 l 235 918 z "},"ǥ":{"ha":651,"x_min":-17,"x_max":669,"o":"m 308 -264 q 164 -247 226 -264 q 67 -193 101 -229 q 32 -99 32 -157 q 48 -30 32 -60 q 91 23 64 0 q 150 61 118 46 q 81 101 106 75 q 57 158 57 128 q 81 239 57 206 q 146 310 104 272 q 81 397 103 344 q 60 533 60 449 q 90 688 60 625 q 177 783 119 751 q 318 815 235 815 q 425 797 382 815 q 496 740 468 778 q 535 782 507 757 q 599 824 563 807 l 624 835 l 669 733 q 628 719 654 729 q 578 699 603 710 q 539 679 553 688 q 560 610 551 651 q 568 531 568 568 q 542 383 568 446 q 460 287 515 321 q 318 253 406 253 q 261 258 289 253 q 210 269 233 263 q 194 246 201 258 q 186 219 186 233 q 203 198 186 206 q 258 188 219 190 l 428 168 q 574 106 526 158 q 621 -44 621 53 q 588 -165 621 -117 q 487 -239 556 -214 q 308 -264 418 -264 m -17 -79 l -17 -8 l 669 -8 l 669 -79 l -17 -79 m 329 -128 q 447 -109 410 -128 q 485 -46 485 -90 q 475 -6 485 -21 q 440 19 465 10 q 369 32 415 28 l 232 44 q 203 17 217 32 q 182 -13 190 3 q 174 -47 174 -29 q 207 -107 174 -86 q 329 -128 240 -128 m 318 374 q 358 383 343 374 q 382 412 374 392 q 393 463 390 432 q 396 533 396 493 q 393 604 396 574 q 383 656 390 635 q 360 686 375 676 q 318 696 344 696 q 277 686 293 696 q 253 656 261 676 q 242 606 246 636 q 239 533 239 575 q 242 465 239 494 q 253 415 244 435 q 277 384 261 394 q 318 374 293 374 z "},"h":{"ha":664,"x_min":75,"x_max":597,"o":"m 75 0 l 75 1125 l 264 1125 l 264 726 q 355 792 306 768 q 463 815 404 815 q 540 791 511 815 q 583 726 569 767 q 597 639 597 686 l 597 0 l 408 0 l 408 601 q 397 657 408 638 q 354 676 386 676 q 310 665 335 676 q 264 636 286 654 l 264 0 l 75 0 z "},"ħ":{"ha":665,"x_min":0,"x_max":597,"o":"m 75 0 l 75 944 l 0 944 l 0 1039 l 75 1039 l 75 1125 l 264 1125 l 264 1039 l 431 1039 l 431 944 l 264 944 l 264 726 q 356 792 307 768 q 463 815 406 815 q 540 791 511 815 q 583 726 569 767 q 597 639 597 686 l 597 0 l 408 0 l 408 601 q 398 657 408 638 q 354 676 388 676 q 311 665 335 676 q 264 636 288 654 l 264 0 l 75 0 z "},"ȟ":{"ha":664,"x_min":75,"x_max":650,"o":"m 75 0 l 75 1125 l 264 1125 l 264 726 q 355 792 306 768 q 463 815 404 815 q 540 791 511 815 q 583 726 569 767 q 597 639 597 686 l 597 0 l 408 0 l 408 601 q 397 657 408 638 q 354 676 386 676 q 310 665 335 676 q 264 636 286 654 l 264 0 l 75 0 m 344 1143 l 222 1393 l 361 1393 l 436 1236 l 511 1393 l 650 1393 l 528 1143 l 344 1143 z "},"ĥ":{"ha":664,"x_min":-42,"x_max":597,"o":"m 75 0 l 75 1125 l 264 1125 l 264 726 q 355 792 306 768 q 463 815 404 815 q 540 791 511 815 q 583 726 569 767 q 597 639 597 686 l 597 0 l 408 0 l 408 601 q 397 657 408 638 q 354 676 386 676 q 310 665 335 676 q 264 636 286 654 l 264 0 l 75 0 m -42 1214 l 83 1469 l 253 1469 l 381 1214 l 240 1214 l 168 1381 l 97 1214 l -42 1214 z "},"i":{"ha":344,"x_min":78,"x_max":267,"o":"m 78 0 l 78 803 l 267 803 l 267 0 l 78 0 m 78 931 l 78 1088 l 267 1088 l 267 931 l 78 931 z "},"ı":{"ha":351,"x_min":83,"x_max":272,"o":"m 83 0 l 83 803 l 272 803 l 272 0 l 83 0 z "},"í":{"ha":351,"x_min":83,"x_max":397,"o":"m 83 0 l 83 803 l 272 803 l 272 0 l 83 0 m 121 881 l 206 1158 l 396 1158 l 231 881 l 121 881 z "},"ĭ":{"ha":351,"x_min":-22,"x_max":379,"o":"m 83 0 l 83 803 l 272 803 l 272 0 l 83 0 m 179 892 q 28 947 79 892 q -22 1094 -22 1001 l 86 1094 q 107 1018 86 1044 q 179 992 128 992 q 250 1019 229 992 q 271 1094 271 1046 l 379 1094 q 328 947 379 1001 q 179 892 278 892 z "},"î":{"ha":351,"x_min":-33,"x_max":390,"o":"m 83 0 l 83 803 l 272 803 l 272 0 l 83 0 m -33 892 l 92 1147 l 261 1147 l 389 892 l 249 892 l 176 1058 l 106 892 l -33 892 z "},"ȉ":{"ha":351,"x_min":-114,"x_max":343,"o":"m 83 0 l 83 803 l 272 803 l 272 0 l 83 0 m 32 888 l -114 1150 l 47 1150 l 132 888 l 32 888 m 244 888 l 128 1150 l 272 1150 l 342 888 l 244 888 z "},"ï":{"ha":351,"x_min":-40,"x_max":397,"o":"m 83 0 l 83 803 l 272 803 l 272 0 l 83 0 m 231 944 l 231 1125 l 397 1125 l 397 944 l 231 944 m -42 944 l -42 1125 l 125 1125 l 125 944 l -42 944 z "},"ị":{"ha":344,"x_min":78,"x_max":267,"o":"m 78 0 l 78 803 l 267 803 l 267 0 l 78 0 m 78 931 l 78 1088 l 267 1088 l 267 931 l 78 931 m 86 -268 l 86 -93 l 258 -93 l 258 -268 l 86 -268 z "},"ì":{"ha":351,"x_min":-39,"x_max":272,"o":"m 83 0 l 83 803 l 272 803 l 272 0 l 83 0 m 126 881 l -39 1158 l 153 1158 l 235 881 l 126 881 z "},"ỉ":{"ha":351,"x_min":51,"x_max":342,"o":"m 83 0 l 83 803 l 272 803 l 272 0 l 83 0 m 178 876 l 117 942 q 184 978 157 960 q 211 1026 211 997 q 188 1066 211 1054 q 129 1078 165 1078 q 90 1075 110 1078 q 51 1068 69 1072 l 51 1153 q 178 1168 111 1168 q 259 1155 222 1168 q 318 1113 296 1142 q 340 1039 340 1085 q 319 964 340 994 q 260 913 297 933 q 178 876 224 893 z "},"ȋ":{"ha":351,"x_min":-22,"x_max":379,"o":"m 83 0 l 83 803 l 272 803 l 272 0 l 83 0 m -24 910 q -2 1023 -22 975 q 63 1097 18 1071 q 178 1124 108 1124 q 293 1097 249 1124 q 358 1023 338 1071 q 379 910 379 975 l 271 910 q 249 997 271 969 q 178 1024 228 1024 q 107 997 128 1024 q 85 910 86 969 l -24 910 z "},"ĳ":{"ha":697,"x_min":78,"x_max":625,"o":"m 78 0 l 78 803 l 267 803 l 267 0 l 78 0 m 78 931 l 78 1088 l 267 1088 l 267 931 l 78 931 m 425 -228 q 374 -224 400 -228 q 325 -212 347 -219 l 325 -78 q 345 -81 333 -79 q 365 -82 357 -82 q 406 -72 390 -82 q 428 -44 421 -62 q 436 0 436 -26 l 436 803 l 625 803 l 625 -22 q 573 -172 625 -117 q 425 -228 521 -228 m 436 931 l 436 1088 l 626 1088 l 626 931 l 436 931 z "},"ī":{"ha":351,"x_min":15,"x_max":342,"o":"m 83 0 l 83 803 l 272 803 l 272 0 l 83 0 m 14 938 l 14 1036 l 342 1036 l 342 938 l 14 938 z "},"į":{"ha":344,"x_min":0,"x_max":278,"o":"m 78 0 l 78 803 l 267 803 l 267 0 l 78 0 m 78 931 l 78 1088 l 267 1088 l 267 931 l 78 931 m 207 -342 q 134 -337 171 -342 q 67 -318 97 -332 q 18 -278 36 -304 q 0 -207 0 -251 q 19 -125 0 -165 q 69 -51 39 -85 q 131 0 99 -18 l 219 0 q 181 -52 200 -24 q 149 -112 163 -81 q 136 -174 136 -143 q 168 -233 136 -218 q 236 -249 200 -249 q 259 -248 247 -249 q 279 -246 271 -247 l 256 -337 q 233 -340 246 -339 q 207 -342 219 -342 z "},"ĩ":{"ha":351,"x_min":-36,"x_max":393,"o":"m 83 0 l 83 803 l 272 803 l 272 0 l 83 0 m 288 949 q 221 966 250 949 q 165 999 192 983 q 110 1015 139 1015 q 72 1001 82 1015 q 61 958 61 986 l -36 958 q -26 1048 -36 1008 q 11 1110 -15 1088 q 82 1133 38 1133 q 144 1117 117 1133 q 199 1085 172 1101 q 256 1069 226 1069 q 290 1083 279 1069 q 300 1125 300 1097 l 392 1125 q 385 1042 392 1082 q 355 975 378 1001 q 288 949 332 949 z "},"j":{"ha":353,"x_min":-19,"x_max":282,"o":"m 81 -228 q 29 -224 56 -228 q -19 -212 3 -219 l -19 -78 q 1 -81 -11 -79 q 21 -82 13 -82 q 61 -72 46 -82 q 84 -44 76 -62 q 92 0 92 -26 l 92 803 l 281 803 l 281 -22 q 228 -172 281 -117 q 81 -228 176 -228 m 92 931 l 92 1088 l 282 1088 l 282 931 l 92 931 z "},"ȷ":{"ha":353,"x_min":-19,"x_max":281,"o":"m 81 -228 q 29 -224 56 -228 q -19 -212 3 -219 l -19 -78 q 1 -81 -11 -79 q 21 -82 13 -82 q 61 -72 46 -82 q 84 -44 76 -62 q 92 0 92 -26 l 92 803 l 281 803 l 281 -22 q 228 -172 281 -117 q 81 -228 176 -228 z "},"ĵ":{"ha":353,"x_min":-24,"x_max":399,"o":"m 81 -228 q 29 -224 56 -228 q -19 -212 3 -219 l -19 -78 q 1 -81 -11 -79 q 21 -82 13 -82 q 61 -72 46 -82 q 84 -44 76 -62 q 92 0 92 -26 l 92 803 l 281 803 l 281 -22 q 228 -172 281 -117 q 81 -228 176 -228 m -24 892 l 101 1147 l 271 1147 l 399 892 l 258 892 l 186 1058 l 115 892 l -24 892 z "},"k":{"ha":676,"x_min":74,"x_max":675,"o":"m 74 0 l 74 1125 l 263 1125 l 263 479 l 469 803 l 675 803 l 474 481 l 671 0 l 472 0 l 326 396 l 263 307 l 263 0 l 74 0 z "},"ǩ":{"ha":676,"x_min":74,"x_max":675,"o":"m 74 0 l 74 1125 l 263 1125 l 263 479 l 469 803 l 675 803 l 474 481 l 671 0 l 472 0 l 326 396 l 263 307 l 263 0 l 74 0 m 350 1132 l 228 1382 l 367 1382 l 442 1225 l 517 1382 l 656 1382 l 533 1132 l 350 1132 z "},"ķ":{"ha":676,"x_min":74,"x_max":675,"o":"m 74 0 l 74 1125 l 263 1125 l 263 479 l 469 803 l 675 803 l 474 481 l 671 0 l 472 0 l 326 396 l 263 307 l 263 0 l 74 0 m 285 -447 l 257 -374 q 322 -346 297 -368 q 346 -274 346 -324 l 247 -274 l 247 -92 l 431 -92 l 429 -254 q 398 -393 429 -342 q 285 -447 367 -444 z "},"ĸ":{"ha":653,"x_min":75,"x_max":646,"o":"m 75 0 l 75 803 l 264 803 l 264 460 l 446 803 l 644 803 l 471 469 l 646 0 l 451 0 l 321 382 l 264 299 l 264 0 l 75 0 z "},"l":{"ha":350,"x_min":85,"x_max":272,"o":"m 85 0 l 85 1125 l 272 1125 l 272 0 l 85 0 z "},"ĺ":{"ha":350,"x_min":85,"x_max":397,"o":"m 85 0 l 85 1125 l 272 1125 l 272 0 l 85 0 m 122 1203 l 207 1481 l 397 1481 l 232 1203 l 122 1203 z "},"ľ":{"ha":500,"x_min":85,"x_max":525,"o":"m 85 0 l 85 1125 l 272 1125 l 272 0 l 85 0 m 369 749 l 350 818 q 414 858 388 829 q 440 938 440 886 l 340 938 l 340 1125 l 525 1125 l 525 953 q 486 815 525 865 q 369 749 447 764 z "},"ļ":{"ha":350,"x_min":85,"x_max":272,"o":"m 85 0 l 85 1125 l 272 1125 l 272 0 l 85 0 m 125 -447 l 97 -374 q 162 -346 138 -368 q 186 -274 186 -324 l 88 -274 l 88 -92 l 271 -92 l 269 -254 q 238 -393 269 -342 q 125 -447 207 -444 z "},"ŀ":{"ha":451,"x_min":85,"x_max":469,"o":"m 85 0 l 85 1125 l 272 1125 l 272 0 l 85 0 m 338 519 l 338 701 l 469 701 l 469 519 l 338 519 z "},"ǉ":{"ha":703,"x_min":85,"x_max":632,"o":"m 85 0 l 85 1125 l 272 1125 l 272 0 l 85 0 m 431 -228 q 379 -224 406 -228 q 331 -212 353 -219 l 331 -78 q 351 -81 339 -79 q 371 -82 363 -82 q 411 -72 396 -82 q 434 -44 426 -62 q 442 0 442 -26 l 442 803 l 631 803 l 631 -22 q 578 -172 631 -117 q 431 -228 526 -228 m 442 931 l 442 1088 l 632 1088 l 632 931 l 442 931 z "},"ł":{"ha":419,"x_min":26,"x_max":404,"o":"m 119 0 l 119 576 l 26 533 l 26 656 l 119 697 l 119 1125 l 307 1125 l 307 779 l 404 824 l 404 703 l 307 660 l 307 0 l 119 0 z "},"m":{"ha":997,"x_min":72,"x_max":929,"o":"m 72 0 l 72 803 l 254 803 l 254 733 q 344 798 296 778 q 443 818 393 818 q 526 794 490 818 q 578 719 561 771 q 675 795 624 772 q 781 818 726 818 q 857 797 824 818 q 910 733 890 775 q 929 626 929 690 l 929 0 l 749 0 l 749 610 q 733 673 749 656 q 690 690 718 690 q 641 678 668 690 q 592 643 614 665 q 592 635 592 639 q 592 626 592 632 l 592 0 l 413 0 l 413 610 q 397 673 413 656 q 353 690 381 690 q 304 678 331 690 q 254 643 278 665 l 254 0 l 72 0 z "},"ṁ":{"ha":997,"x_min":72,"x_max":929,"o":"m 72 0 l 72 803 l 254 803 l 254 733 q 344 798 296 778 q 443 818 393 818 q 526 794 490 818 q 578 719 561 771 q 675 795 624 772 q 781 818 726 818 q 857 797 824 818 q 910 733 890 775 q 929 626 929 690 l 929 0 l 749 0 l 749 610 q 733 673 749 656 q 690 690 718 690 q 641 678 668 690 q 592 643 614 665 q 592 635 592 639 q 592 626 592 632 l 592 0 l 413 0 l 413 610 q 397 673 413 656 q 353 690 381 690 q 304 678 331 690 q 254 643 278 665 l 254 0 l 72 0 m 407 918 l 407 1108 l 590 1108 l 590 918 l 407 918 z "},"n":{"ha":658,"x_min":72,"x_max":592,"o":"m 72 0 l 72 803 l 261 803 l 261 722 q 352 790 304 764 q 456 815 400 815 q 535 791 506 815 q 578 726 564 767 q 592 639 592 686 l 592 0 l 403 0 l 403 601 q 392 657 403 638 q 349 676 381 676 q 306 665 329 676 q 261 638 283 654 l 261 0 l 72 0 z "},"ń":{"ha":658,"x_min":72,"x_max":592,"o":"m 72 0 l 72 803 l 261 803 l 261 722 q 352 790 304 764 q 456 815 400 815 q 535 791 506 815 q 578 726 564 767 q 592 639 592 686 l 592 0 l 403 0 l 403 601 q 392 657 403 638 q 349 676 381 676 q 306 665 329 676 q 261 638 283 654 l 261 0 l 72 0 m 274 881 l 358 1158 l 549 1158 l 383 881 l 274 881 z "},"ŉ":{"ha":756,"x_min":31,"x_max":704,"o":"m 60 856 l 40 925 q 104 965 78 936 q 131 1044 131 993 l 31 1044 l 31 1232 l 215 1232 l 215 1061 q 176 922 215 972 q 60 856 138 871 m 186 0 l 186 803 l 375 803 l 375 722 q 466 790 418 764 q 569 815 514 815 q 649 791 619 815 q 692 726 678 767 q 706 639 706 686 l 706 0 l 517 0 l 517 601 q 506 657 517 638 q 463 676 494 676 q 420 665 443 676 q 375 638 397 654 l 375 0 l 186 0 z "},"ň":{"ha":658,"x_min":72,"x_max":592,"o":"m 72 0 l 72 803 l 261 803 l 261 722 q 352 790 304 764 q 456 815 400 815 q 535 791 506 815 q 578 726 564 767 q 592 639 592 686 l 592 0 l 403 0 l 403 601 q 392 657 403 638 q 349 676 381 676 q 306 665 329 676 q 261 638 283 654 l 261 0 l 72 0 m 239 886 l 117 1136 l 256 1136 l 331 979 l 406 1136 l 544 1136 l 422 886 l 239 886 z "},"ņ":{"ha":658,"x_min":72,"x_max":592,"o":"m 72 0 l 72 803 l 261 803 l 261 722 q 352 790 304 764 q 456 815 400 815 q 535 791 506 815 q 578 726 564 767 q 592 639 592 686 l 592 0 l 403 0 l 403 601 q 392 657 403 638 q 349 676 381 676 q 306 665 329 676 q 261 638 283 654 l 261 0 l 72 0 m 276 -447 l 249 -374 q 313 -346 289 -368 q 338 -274 338 -324 l 239 -274 l 239 -92 l 422 -92 l 421 -254 q 390 -393 421 -342 q 276 -447 358 -444 z "},"ŋ":{"ha":601,"x_min":60,"x_max":579,"o":"m 231 -264 l 231 -135 q 331 -122 297 -135 q 378 -82 365 -110 q 390 -7 390 -54 l 390 601 q 380 657 390 638 q 336 676 369 676 q 294 665 317 676 q 249 638 271 654 l 249 0 l 60 0 l 60 803 l 249 803 l 249 728 q 339 792 290 769 q 444 815 388 815 q 522 791 492 815 q 565 726 551 767 q 579 639 579 686 l 579 -8 q 548 -153 579 -97 q 454 -237 517 -210 q 294 -264 392 -264 l 231 -264 z "},"ǌ":{"ha":1011,"x_min":72,"x_max":940,"o":"m 72 0 l 72 803 l 261 803 l 261 722 q 352 790 304 764 q 456 815 400 815 q 535 791 506 815 q 578 726 564 767 q 592 639 592 686 l 592 0 l 403 0 l 403 601 q 392 657 403 638 q 349 676 381 676 q 306 665 329 676 q 261 638 283 654 l 261 0 l 72 0 m 739 -228 q 688 -224 714 -228 q 639 -212 661 -219 l 639 -78 q 659 -81 647 -79 q 679 -82 671 -82 q 719 -72 704 -82 q 742 -44 735 -62 q 750 0 750 -26 l 750 803 l 939 803 l 939 -22 q 887 -172 939 -117 q 739 -228 835 -228 m 750 931 l 750 1088 l 940 1088 l 940 931 l 750 931 z "},"ñ":{"ha":658,"x_min":72,"x_max":592,"o":"m 72 0 l 72 803 l 261 803 l 261 722 q 352 790 304 764 q 456 815 400 815 q 535 791 506 815 q 578 726 564 767 q 592 639 592 686 l 592 0 l 403 0 l 403 601 q 392 657 403 638 q 349 676 381 676 q 306 665 329 676 q 261 638 283 654 l 261 0 l 72 0 m 440 949 q 374 966 403 949 q 318 999 344 983 q 263 1015 292 1015 q 224 1001 235 1015 q 214 958 214 986 l 117 958 q 127 1048 117 1008 q 164 1110 138 1088 q 235 1133 190 1133 q 297 1117 269 1133 q 352 1085 325 1101 q 408 1069 379 1069 q 442 1083 432 1069 q 453 1125 453 1097 l 544 1125 q 538 1042 544 1082 q 508 975 531 1001 q 440 949 485 949 z "},"o":{"ha":632,"x_min":57,"x_max":575,"o":"m 315 -12 q 171 20 228 -12 q 85 115 114 53 q 57 267 57 178 l 57 536 q 85 688 57 625 q 171 783 114 750 q 315 815 228 815 q 460 783 403 815 q 547 688 518 750 q 575 536 575 625 l 575 267 q 547 115 575 178 q 460 20 518 53 q 315 -12 403 -12 m 317 118 q 364 136 349 118 q 383 185 379 154 q 388 254 388 217 l 388 549 q 383 617 388 586 q 364 666 379 647 q 317 685 349 685 q 269 666 285 685 q 249 617 254 647 q 244 549 244 586 l 244 254 q 249 185 244 217 q 269 136 254 154 q 317 118 285 118 z "},"ó":{"ha":632,"x_min":57,"x_max":575,"o":"m 315 -12 q 171 20 228 -12 q 85 115 114 53 q 57 267 57 178 l 57 536 q 85 688 57 625 q 171 783 114 750 q 315 815 228 815 q 460 783 403 815 q 547 688 518 750 q 575 536 575 625 l 575 267 q 547 115 575 178 q 460 20 518 53 q 315 -12 403 -12 m 317 118 q 364 136 349 118 q 383 185 379 154 q 388 254 388 217 l 388 549 q 383 617 388 586 q 364 666 379 647 q 317 685 349 685 q 269 666 285 685 q 249 617 254 647 q 244 549 244 586 l 244 254 q 249 185 244 217 q 269 136 254 154 q 317 118 285 118 m 258 881 l 343 1158 l 533 1158 l 368 881 l 258 881 z "},"ŏ":{"ha":632,"x_min":57,"x_max":575,"o":"m 315 -12 q 171 20 228 -12 q 85 115 114 53 q 57 267 57 178 l 57 536 q 85 688 57 625 q 171 783 114 750 q 315 815 228 815 q 460 783 403 815 q 547 688 518 750 q 575 536 575 625 l 575 267 q 547 115 575 178 q 460 20 518 53 q 315 -12 403 -12 m 317 118 q 364 136 349 118 q 383 185 379 154 q 388 254 388 217 l 388 549 q 383 617 388 586 q 364 666 379 647 q 317 685 349 685 q 269 666 285 685 q 249 617 254 647 q 244 549 244 586 l 244 254 q 249 185 244 217 q 269 136 254 154 q 317 118 285 118 m 317 892 q 166 947 217 892 q 115 1094 115 1001 l 224 1094 q 244 1018 224 1044 q 317 992 265 992 q 388 1019 367 992 q 408 1094 408 1046 l 517 1094 q 466 947 517 1001 q 317 892 415 892 z "},"ô":{"ha":632,"x_min":57,"x_max":575,"o":"m 315 -12 q 171 20 228 -12 q 85 115 114 53 q 57 267 57 178 l 57 536 q 85 688 57 625 q 171 783 114 750 q 315 815 228 815 q 460 783 403 815 q 547 688 518 750 q 575 536 575 625 l 575 267 q 547 115 575 178 q 460 20 518 53 q 315 -12 403 -12 m 317 118 q 364 136 349 118 q 383 185 379 154 q 388 254 388 217 l 388 549 q 383 617 388 586 q 364 666 379 647 q 317 685 349 685 q 269 666 285 685 q 249 617 254 647 q 244 549 244 586 l 244 254 q 249 185 244 217 q 269 136 254 154 q 317 118 285 118 m 104 892 l 229 1147 l 399 1147 l 526 892 l 386 892 l 314 1058 l 243 892 l 104 892 z "},"ố":{"ha":632,"x_min":57,"x_max":721,"o":"m 315 -12 q 171 20 228 -12 q 85 115 114 53 q 57 267 57 178 l 57 536 q 85 688 57 625 q 171 783 114 750 q 315 815 228 815 q 460 783 403 815 q 547 688 518 750 q 575 536 575 625 l 575 267 q 547 115 575 178 q 460 20 518 53 q 315 -12 403 -12 m 317 118 q 364 136 349 118 q 383 185 379 154 q 388 254 388 217 l 388 549 q 383 617 388 586 q 364 666 379 647 q 317 685 349 685 q 269 666 285 685 q 249 617 254 647 q 244 549 244 586 l 244 254 q 249 185 244 217 q 269 136 254 154 q 317 118 285 118 m 104 892 l 229 1115 l 399 1115 l 526 892 l 389 892 l 314 1032 l 240 892 l 104 892 m 497 1046 l 571 1213 l 721 1213 l 603 1046 l 497 1046 z "},"ộ":{"ha":632,"x_min":57,"x_max":575,"o":"m 315 -12 q 171 20 228 -12 q 85 115 114 53 q 57 267 57 178 l 57 536 q 85 688 57 625 q 171 783 114 750 q 315 815 228 815 q 460 783 403 815 q 547 688 518 750 q 575 536 575 625 l 575 267 q 547 115 575 178 q 460 20 518 53 q 315 -12 403 -12 m 317 118 q 364 136 349 118 q 383 185 379 154 q 388 254 388 217 l 388 549 q 383 617 388 586 q 364 666 379 647 q 317 685 349 685 q 269 666 285 685 q 249 617 254 647 q 244 549 244 586 l 244 254 q 249 185 244 217 q 269 136 254 154 q 317 118 285 118 m 231 -268 l 231 -93 l 403 -93 l 403 -268 l 231 -268 m 104 892 l 229 1115 l 399 1115 l 526 892 l 389 892 l 314 1032 l 240 892 l 104 892 z "},"ồ":{"ha":632,"x_min":57,"x_max":642,"o":"m 315 -12 q 171 20 228 -12 q 85 115 114 53 q 57 267 57 178 l 57 536 q 85 688 57 625 q 171 783 114 750 q 315 815 228 815 q 460 783 403 815 q 547 688 518 750 q 575 536 575 625 l 575 267 q 547 115 575 178 q 460 20 518 53 q 315 -12 403 -12 m 317 118 q 364 136 349 118 q 383 185 379 154 q 388 254 388 217 l 388 549 q 383 617 388 586 q 364 666 379 647 q 317 685 349 685 q 269 666 285 685 q 249 617 254 647 q 244 549 244 586 l 244 254 q 249 185 244 217 q 269 136 254 154 q 317 118 285 118 m 104 892 l 229 1115 l 399 1115 l 526 892 l 389 892 l 314 1032 l 240 892 l 104 892 m 535 1046 l 418 1213 l 568 1213 l 642 1046 l 535 1046 z "},"ổ":{"ha":632,"x_min":57,"x_max":672,"o":"m 315 -12 q 171 20 228 -12 q 85 115 114 53 q 57 267 57 178 l 57 536 q 85 688 57 625 q 171 783 114 750 q 315 815 228 815 q 460 783 403 815 q 547 688 518 750 q 575 536 575 625 l 575 267 q 547 115 575 178 q 460 20 518 53 q 315 -12 403 -12 m 317 118 q 364 136 349 118 q 383 185 379 154 q 388 254 388 217 l 388 549 q 383 617 388 586 q 364 666 379 647 q 317 685 349 685 q 269 666 285 685 q 249 617 254 647 q 244 549 244 586 l 244 254 q 249 185 244 217 q 269 136 254 154 q 317 118 285 118 m 543 1013 l 488 1075 q 530 1113 514 1094 q 546 1157 546 1131 q 527 1199 546 1185 q 481 1213 508 1213 q 444 1209 461 1213 q 413 1200 426 1206 l 413 1285 q 465 1299 439 1294 q 521 1303 492 1303 q 628 1272 585 1303 q 671 1174 671 1240 q 633 1074 671 1110 q 543 1013 596 1039 m 104 892 l 229 1115 l 399 1115 l 526 892 l 389 892 l 314 1032 l 240 892 l 104 892 z "},"ỗ":{"ha":632,"x_min":57,"x_max":575,"o":"m 315 -12 q 171 20 228 -12 q 85 115 114 53 q 57 267 57 178 l 57 536 q 85 688 57 625 q 171 783 114 750 q 315 815 228 815 q 460 783 403 815 q 547 688 518 750 q 575 536 575 625 l 575 267 q 547 115 575 178 q 460 20 518 53 q 315 -12 403 -12 m 317 118 q 364 136 349 118 q 383 185 379 154 q 388 254 388 217 l 388 549 q 383 617 388 586 q 364 666 379 647 q 317 685 349 685 q 269 666 285 685 q 249 617 254 647 q 244 549 244 586 l 244 254 q 249 185 244 217 q 269 136 254 154 q 317 118 285 118 m 104 892 l 229 1115 l 399 1115 l 526 892 l 389 892 l 314 1032 l 240 892 l 104 892 m 425 1181 q 358 1198 388 1181 q 303 1231 329 1215 q 247 1247 276 1247 q 209 1233 219 1247 q 199 1190 199 1218 l 101 1190 q 112 1280 101 1240 q 149 1342 122 1319 q 219 1365 175 1365 q 282 1349 254 1365 q 337 1317 310 1333 q 393 1301 364 1301 q 427 1315 417 1301 q 438 1357 438 1329 l 529 1357 q 522 1274 529 1314 q 492 1207 515 1233 q 425 1181 469 1181 z "},"ȍ":{"ha":632,"x_min":24,"x_max":575,"o":"m 315 -12 q 171 20 228 -12 q 85 115 114 53 q 57 267 57 178 l 57 536 q 85 688 57 625 q 171 783 114 750 q 315 815 228 815 q 460 783 403 815 q 547 688 518 750 q 575 536 575 625 l 575 267 q 547 115 575 178 q 460 20 518 53 q 315 -12 403 -12 m 317 118 q 364 136 349 118 q 383 185 379 154 q 388 254 388 217 l 388 549 q 383 617 388 586 q 364 666 379 647 q 317 685 349 685 q 269 666 285 685 q 249 617 254 647 q 244 549 244 586 l 244 254 q 249 185 244 217 q 269 136 254 154 q 317 118 285 118 m 169 888 l 24 1150 l 185 1150 l 269 888 l 169 888 m 382 888 l 265 1150 l 410 1150 l 479 888 l 382 888 z "},"ö":{"ha":632,"x_min":57,"x_max":575,"o":"m 315 -12 q 171 20 228 -12 q 85 115 114 53 q 57 267 57 178 l 57 536 q 85 688 57 625 q 171 783 114 750 q 315 815 228 815 q 460 783 403 815 q 547 688 518 750 q 575 536 575 625 l 575 267 q 547 115 575 178 q 460 20 518 53 q 315 -12 403 -12 m 317 118 q 364 136 349 118 q 383 185 379 154 q 388 254 388 217 l 388 549 q 383 617 388 586 q 364 666 379 647 q 317 685 349 685 q 269 666 285 685 q 249 617 254 647 q 244 549 244 586 l 244 254 q 249 185 244 217 q 269 136 254 154 q 317 118 285 118 m 368 944 l 368 1125 l 535 1125 l 535 944 l 368 944 m 96 944 l 96 1125 l 263 1125 l 263 944 l 96 944 z "},"ȫ":{"ha":632,"x_min":57,"x_max":575,"o":"m 315 -12 q 171 20 228 -12 q 85 115 114 53 q 57 267 57 178 l 57 536 q 85 688 57 625 q 171 783 114 750 q 315 815 228 815 q 460 783 403 815 q 547 688 518 750 q 575 536 575 625 l 575 267 q 547 115 575 178 q 460 20 518 53 q 315 -12 403 -12 m 317 118 q 364 136 349 118 q 383 185 379 154 q 388 254 388 217 l 388 549 q 383 617 388 586 q 364 666 379 647 q 317 685 349 685 q 269 666 285 685 q 249 617 254 647 q 244 549 244 586 l 244 254 q 249 185 244 217 q 269 136 254 154 q 317 118 285 118 m 368 944 l 368 1125 l 535 1125 l 535 944 l 368 944 m 96 944 l 96 1125 l 263 1125 l 263 944 l 96 944 m 151 1260 l 151 1358 l 479 1358 l 479 1260 l 151 1260 z "},"ȱ":{"ha":632,"x_min":57,"x_max":575,"o":"m 315 -12 q 171 20 228 -12 q 85 115 114 53 q 57 267 57 178 l 57 536 q 85 688 57 625 q 171 783 114 750 q 315 815 228 815 q 460 783 403 815 q 547 688 518 750 q 575 536 575 625 l 575 267 q 547 115 575 178 q 460 20 518 53 q 315 -12 403 -12 m 317 118 q 364 136 349 118 q 383 185 379 154 q 388 254 388 217 l 388 549 q 383 617 388 586 q 364 666 379 647 q 317 685 349 685 q 269 666 285 685 q 249 617 254 647 q 244 549 244 586 l 244 254 q 249 185 244 217 q 269 136 254 154 q 317 118 285 118 m 224 918 l 224 1108 l 407 1108 l 407 918 l 224 918 m 151 1243 l 151 1342 l 479 1342 l 479 1243 l 151 1243 z "},"ọ":{"ha":632,"x_min":57,"x_max":575,"o":"m 315 -12 q 171 20 228 -12 q 85 115 114 53 q 57 267 57 178 l 57 536 q 85 688 57 625 q 171 783 114 750 q 315 815 228 815 q 460 783 403 815 q 547 688 518 750 q 575 536 575 625 l 575 267 q 547 115 575 178 q 460 20 518 53 q 315 -12 403 -12 m 317 118 q 364 136 349 118 q 383 185 379 154 q 388 254 388 217 l 388 549 q 383 617 388 586 q 364 666 379 647 q 317 685 349 685 q 269 666 285 685 q 249 617 254 647 q 244 549 244 586 l 244 254 q 249 185 244 217 q 269 136 254 154 q 317 118 285 118 m 231 -268 l 231 -93 l 403 -93 l 403 -268 l 231 -268 z "},"ò":{"ha":632,"x_min":57,"x_max":575,"o":"m 315 -12 q 171 20 228 -12 q 85 115 114 53 q 57 267 57 178 l 57 536 q 85 688 57 625 q 171 783 114 750 q 315 815 228 815 q 460 783 403 815 q 547 688 518 750 q 575 536 575 625 l 575 267 q 547 115 575 178 q 460 20 518 53 q 315 -12 403 -12 m 317 118 q 364 136 349 118 q 383 185 379 154 q 388 254 388 217 l 388 549 q 383 617 388 586 q 364 666 379 647 q 317 685 349 685 q 269 666 285 685 q 249 617 254 647 q 244 549 244 586 l 244 254 q 249 185 244 217 q 269 136 254 154 q 317 118 285 118 m 264 881 l 99 1158 l 290 1158 l 372 881 l 264 881 z "},"ỏ":{"ha":632,"x_min":57,"x_max":575,"o":"m 315 -12 q 171 20 228 -12 q 85 115 114 53 q 57 267 57 178 l 57 536 q 85 688 57 625 q 171 783 114 750 q 315 815 228 815 q 460 783 403 815 q 547 688 518 750 q 575 536 575 625 l 575 267 q 547 115 575 178 q 460 20 518 53 q 315 -12 403 -12 m 317 118 q 364 136 349 118 q 383 185 379 154 q 388 254 388 217 l 388 549 q 383 617 388 586 q 364 666 379 647 q 317 685 349 685 q 269 666 285 685 q 249 617 254 647 q 244 549 244 586 l 244 254 q 249 185 244 217 q 269 136 254 154 q 317 118 285 118 m 315 876 l 254 942 q 322 978 294 960 q 349 1026 349 997 q 326 1066 349 1054 q 267 1078 303 1078 q 227 1075 247 1078 q 189 1068 207 1072 l 189 1153 q 315 1168 249 1168 q 397 1155 360 1168 q 456 1113 433 1142 q 478 1039 478 1085 q 456 964 478 994 q 398 913 435 933 q 315 876 361 893 z "},"ơ":{"ha":632,"x_min":57,"x_max":575,"o":"m 315 -12 q 171 20 228 -12 q 85 115 114 53 q 57 267 57 178 l 57 536 q 85 688 57 625 q 171 783 114 750 q 315 815 228 815 q 460 783 403 815 q 547 688 518 750 q 575 536 575 625 l 575 267 q 547 115 575 178 q 460 20 518 53 q 315 -12 403 -12 m 317 118 q 364 136 349 118 q 383 185 379 154 q 388 254 388 217 l 388 549 q 383 617 388 586 q 364 666 379 647 q 317 685 349 685 q 269 666 285 685 q 249 617 254 647 q 244 549 244 586 l 244 254 q 249 185 244 217 q 269 136 254 154 q 317 118 285 118 m 349 718 l 349 803 l 363 803 q 421 831 404 803 q 438 914 438 858 l 575 914 q 518 767 575 817 q 364 718 461 718 l 349 718 z "},"ớ":{"ha":632,"x_min":57,"x_max":575,"o":"m 315 -12 q 171 20 228 -12 q 85 115 114 53 q 57 267 57 178 l 57 536 q 85 688 57 625 q 171 783 114 750 q 315 815 228 815 q 460 783 403 815 q 547 688 518 750 q 575 536 575 625 l 575 267 q 547 115 575 178 q 460 20 518 53 q 315 -12 403 -12 m 317 118 q 364 136 349 118 q 383 185 379 154 q 388 254 388 217 l 388 549 q 383 617 388 586 q 364 666 379 647 q 317 685 349 685 q 269 666 285 685 q 249 617 254 647 q 244 549 244 586 l 244 254 q 249 185 244 217 q 269 136 254 154 q 317 118 285 118 m 349 718 l 349 803 l 363 803 q 421 831 404 803 q 438 914 438 858 l 575 914 q 518 767 575 817 q 364 718 461 718 l 349 718 m 258 903 l 343 1181 l 533 1181 l 368 903 l 258 903 z "},"ợ":{"ha":632,"x_min":57,"x_max":575,"o":"m 315 -12 q 171 20 228 -12 q 85 115 114 53 q 57 267 57 178 l 57 536 q 85 688 57 625 q 171 783 114 750 q 315 815 228 815 q 460 783 403 815 q 547 688 518 750 q 575 536 575 625 l 575 267 q 547 115 575 178 q 460 20 518 53 q 315 -12 403 -12 m 317 118 q 364 136 349 118 q 383 185 379 154 q 388 254 388 217 l 388 549 q 383 617 388 586 q 364 666 379 647 q 317 685 349 685 q 269 666 285 685 q 249 617 254 647 q 244 549 244 586 l 244 254 q 249 185 244 217 q 269 136 254 154 q 317 118 285 118 m 349 718 l 349 803 l 363 803 q 421 831 404 803 q 438 914 438 858 l 575 914 q 518 767 575 817 q 364 718 461 718 l 349 718 m 229 -268 l 229 -93 l 401 -93 l 401 -268 l 229 -268 z "},"ờ":{"ha":632,"x_min":57,"x_max":575,"o":"m 315 -12 q 171 20 228 -12 q 85 115 114 53 q 57 267 57 178 l 57 536 q 85 688 57 625 q 171 783 114 750 q 315 815 228 815 q 460 783 403 815 q 547 688 518 750 q 575 536 575 625 l 575 267 q 547 115 575 178 q 460 20 518 53 q 315 -12 403 -12 m 317 118 q 364 136 349 118 q 383 185 379 154 q 388 254 388 217 l 388 549 q 383 617 388 586 q 364 666 379 647 q 317 685 349 685 q 269 666 285 685 q 249 617 254 647 q 244 549 244 586 l 244 254 q 249 185 244 217 q 269 136 254 154 q 317 118 285 118 m 349 718 l 349 803 l 363 803 q 421 831 404 803 q 438 914 438 858 l 575 914 q 518 767 575 817 q 364 718 461 718 l 349 718 m 264 903 l 99 1181 l 290 1181 l 372 903 l 264 903 z "},"ở":{"ha":632,"x_min":57,"x_max":575,"o":"m 315 -12 q 171 20 228 -12 q 85 115 114 53 q 57 267 57 178 l 57 536 q 85 688 57 625 q 171 783 114 750 q 315 815 228 815 q 460 783 403 815 q 547 688 518 750 q 575 536 575 625 l 575 267 q 547 115 575 178 q 460 20 518 53 q 315 -12 403 -12 m 317 118 q 364 136 349 118 q 383 185 379 154 q 388 254 388 217 l 388 549 q 383 617 388 586 q 364 666 379 647 q 317 685 349 685 q 269 666 285 685 q 249 617 254 647 q 244 549 244 586 l 244 254 q 249 185 244 217 q 269 136 254 154 q 317 118 285 118 m 349 718 l 349 803 l 363 803 q 421 831 404 803 q 438 914 438 858 l 575 914 q 518 767 575 817 q 364 718 461 718 l 349 718 m 315 899 l 254 964 q 322 1001 294 982 q 349 1049 349 1019 q 326 1088 349 1076 q 267 1100 303 1100 q 227 1097 247 1100 q 189 1090 207 1094 l 189 1175 q 315 1190 249 1190 q 397 1177 360 1190 q 456 1135 433 1164 q 478 1061 478 1107 q 456 986 478 1017 q 398 935 435 956 q 315 899 361 915 z "},"ỡ":{"ha":632,"x_min":57,"x_max":575,"o":"m 315 -12 q 171 20 228 -12 q 85 115 114 53 q 57 267 57 178 l 57 536 q 85 688 57 625 q 171 783 114 750 q 315 815 228 815 q 460 783 403 815 q 547 688 518 750 q 575 536 575 625 l 575 267 q 547 115 575 178 q 460 20 518 53 q 315 -12 403 -12 m 317 118 q 364 136 349 118 q 383 185 379 154 q 388 254 388 217 l 388 549 q 383 617 388 586 q 364 666 379 647 q 317 685 349 685 q 269 666 285 685 q 249 617 254 647 q 244 549 244 586 l 244 254 q 249 185 244 217 q 269 136 254 154 q 317 118 285 118 m 349 718 l 349 803 l 363 803 q 421 831 404 803 q 438 914 438 858 l 575 914 q 518 767 575 817 q 364 718 461 718 l 349 718 m 425 971 q 358 988 388 971 q 303 1022 329 1006 q 247 1038 276 1038 q 209 1023 219 1038 q 199 981 199 1008 l 101 981 q 112 1070 101 1031 q 149 1133 122 1110 q 219 1156 175 1156 q 282 1140 254 1156 q 337 1108 310 1124 q 393 1092 364 1092 q 427 1106 417 1092 q 438 1147 438 1119 l 529 1147 q 522 1064 529 1104 q 492 997 515 1024 q 425 971 469 971 z "},"ő":{"ha":632,"x_min":57,"x_max":631,"o":"m 315 -12 q 171 20 228 -12 q 85 115 114 53 q 57 267 57 178 l 57 536 q 85 688 57 625 q 171 783 114 750 q 315 815 228 815 q 460 783 403 815 q 547 688 518 750 q 575 536 575 625 l 575 267 q 547 115 575 178 q 460 20 518 53 q 315 -12 403 -12 m 317 118 q 364 136 349 118 q 383 185 379 154 q 388 254 388 217 l 388 549 q 383 617 388 586 q 364 666 379 647 q 317 685 349 685 q 269 666 285 685 q 249 617 254 647 q 244 549 244 586 l 244 254 q 249 185 244 217 q 269 136 254 154 q 317 118 285 118 m 372 883 l 457 1154 l 631 1154 l 469 883 l 372 883 m 160 883 l 229 1154 l 383 1154 l 257 883 l 160 883 z "},"ȏ":{"ha":632,"x_min":57,"x_max":575,"o":"m 315 -12 q 171 20 228 -12 q 85 115 114 53 q 57 267 57 178 l 57 536 q 85 688 57 625 q 171 783 114 750 q 315 815 228 815 q 460 783 403 815 q 547 688 518 750 q 575 536 575 625 l 575 267 q 547 115 575 178 q 460 20 518 53 q 315 -12 403 -12 m 317 118 q 364 136 349 118 q 383 185 379 154 q 388 254 388 217 l 388 549 q 383 617 388 586 q 364 666 379 647 q 317 685 349 685 q 269 666 285 685 q 249 617 254 647 q 244 549 244 586 l 244 254 q 249 185 244 217 q 269 136 254 154 q 317 118 285 118 m 114 910 q 135 1023 115 975 q 201 1097 156 1071 q 315 1124 246 1124 q 431 1097 386 1124 q 496 1023 475 1071 q 517 910 517 975 l 408 910 q 387 997 408 969 q 315 1024 365 1024 q 244 997 265 1024 q 222 910 224 969 l 114 910 z "},"ō":{"ha":632,"x_min":57,"x_max":575,"o":"m 315 -12 q 171 20 228 -12 q 85 115 114 53 q 57 267 57 178 l 57 536 q 85 688 57 625 q 171 783 114 750 q 315 815 228 815 q 460 783 403 815 q 547 688 518 750 q 575 536 575 625 l 575 267 q 547 115 575 178 q 460 20 518 53 q 315 -12 403 -12 m 317 118 q 364 136 349 118 q 383 185 379 154 q 388 254 388 217 l 388 549 q 383 617 388 586 q 364 666 379 647 q 317 685 349 685 q 269 666 285 685 q 249 617 254 647 q 244 549 244 586 l 244 254 q 249 185 244 217 q 269 136 254 154 q 317 118 285 118 m 151 938 l 151 1036 l 479 1036 l 479 938 l 151 938 z "},"ǫ":{"ha":632,"x_min":57,"x_max":575,"o":"m 315 -12 q 171 20 228 -12 q 85 115 114 53 q 57 267 57 178 l 57 536 q 85 688 57 625 q 171 783 114 750 q 315 815 228 815 q 460 783 403 815 q 547 688 518 750 q 575 536 575 625 l 575 267 q 547 115 575 178 q 460 20 518 53 q 315 -12 403 -12 m 317 118 q 364 136 349 118 q 383 185 379 154 q 388 254 388 217 l 388 549 q 383 617 388 586 q 364 666 379 647 q 317 685 349 685 q 269 666 285 685 q 249 617 254 647 q 244 549 244 586 l 244 254 q 249 185 244 217 q 269 136 254 154 q 317 118 285 118 m 408 -335 q 335 -330 372 -335 q 268 -311 299 -325 q 219 -271 238 -297 q 201 -200 201 -244 q 221 -118 201 -158 q 270 -44 240 -78 q 332 7 300 -11 l 421 7 q 383 -45 401 -17 q 351 -105 364 -74 q 338 -167 338 -136 q 369 -226 338 -211 q 438 -242 401 -242 q 460 -241 449 -242 q 481 -239 472 -240 l 457 -331 q 434 -333 447 -332 q 408 -335 421 -335 z "},"ø":{"ha":626,"x_min":57,"x_max":575,"o":"m 139 -128 l 92 -108 l 485 932 l 538 913 l 139 -128 m 315 -12 q 171 20 228 -12 q 85 115 114 53 q 57 267 57 178 l 57 536 q 85 688 57 625 q 171 783 114 750 q 315 815 228 815 q 460 783 403 815 q 547 688 518 750 q 575 536 575 625 l 575 267 q 547 115 575 178 q 460 20 518 53 q 315 -12 403 -12 m 317 118 q 364 136 349 118 q 383 185 379 154 q 388 254 388 217 l 388 549 q 383 617 388 586 q 364 666 379 647 q 317 685 349 685 q 269 666 285 685 q 249 617 254 647 q 244 549 244 586 l 244 254 q 249 185 244 217 q 269 136 254 154 q 317 118 285 118 z "},"ǿ":{"ha":626,"x_min":57,"x_max":575,"o":"m 139 -128 l 92 -108 l 485 932 l 538 913 l 139 -128 m 315 -12 q 171 20 228 -12 q 85 115 114 53 q 57 267 57 178 l 57 536 q 85 688 57 625 q 171 783 114 750 q 315 815 228 815 q 460 783 403 815 q 547 688 518 750 q 575 536 575 625 l 575 267 q 547 115 575 178 q 460 20 518 53 q 315 -12 403 -12 m 317 118 q 364 136 349 118 q 383 185 379 154 q 388 254 388 217 l 388 549 q 383 617 388 586 q 364 666 379 647 q 317 685 349 685 q 269 666 285 685 q 249 617 254 647 q 244 549 244 586 l 244 254 q 249 185 244 217 q 269 136 254 154 q 317 118 285 118 m 257 881 l 342 1158 l 532 1158 l 367 881 l 257 881 z "},"õ":{"ha":632,"x_min":57,"x_max":575,"o":"m 315 -12 q 171 20 228 -12 q 85 115 114 53 q 57 267 57 178 l 57 536 q 85 688 57 625 q 171 783 114 750 q 315 815 228 815 q 460 783 403 815 q 547 688 518 750 q 575 536 575 625 l 575 267 q 547 115 575 178 q 460 20 518 53 q 315 -12 403 -12 m 317 118 q 364 136 349 118 q 383 185 379 154 q 388 254 388 217 l 388 549 q 383 617 388 586 q 364 666 379 647 q 317 685 349 685 q 269 666 285 685 q 249 617 254 647 q 244 549 244 586 l 244 254 q 249 185 244 217 q 269 136 254 154 q 317 118 285 118 m 425 949 q 358 966 388 949 q 303 999 329 983 q 247 1015 276 1015 q 209 1001 219 1015 q 199 958 199 986 l 101 958 q 112 1048 101 1008 q 149 1110 122 1088 q 219 1133 175 1133 q 282 1117 254 1133 q 337 1085 310 1101 q 393 1069 364 1069 q 427 1083 417 1069 q 438 1125 438 1097 l 529 1125 q 522 1042 529 1082 q 492 975 515 1001 q 425 949 469 949 z "},"ȭ":{"ha":632,"x_min":57,"x_max":575,"o":"m 315 -12 q 171 20 228 -12 q 85 115 114 53 q 57 267 57 178 l 57 536 q 85 688 57 625 q 171 783 114 750 q 315 815 228 815 q 460 783 403 815 q 547 688 518 750 q 575 536 575 625 l 575 267 q 547 115 575 178 q 460 20 518 53 q 315 -12 403 -12 m 317 118 q 364 136 349 118 q 383 185 379 154 q 388 254 388 217 l 388 549 q 383 617 388 586 q 364 666 379 647 q 317 685 349 685 q 269 666 285 685 q 249 617 254 647 q 244 549 244 586 l 244 254 q 249 185 244 217 q 269 136 254 154 q 317 118 285 118 m 425 949 q 358 966 388 949 q 303 999 329 983 q 247 1015 276 1015 q 209 1001 219 1015 q 199 958 199 986 l 101 958 q 112 1048 101 1008 q 149 1110 122 1088 q 219 1133 175 1133 q 282 1117 254 1133 q 337 1085 310 1101 q 393 1069 364 1069 q 427 1083 417 1069 q 438 1125 438 1097 l 529 1125 q 522 1042 529 1082 q 492 975 515 1001 q 425 949 469 949 m 151 1268 l 151 1367 l 479 1367 l 479 1268 l 151 1268 z "},"œ":{"ha":965,"x_min":68,"x_max":903,"o":"m 303 -15 q 174 17 226 -15 q 94 110 121 49 q 68 261 68 172 l 68 557 q 94 703 68 644 q 173 794 119 763 q 306 825 226 825 q 383 813 347 825 q 447 780 419 801 q 489 726 475 758 q 532 781 503 760 q 599 814 561 803 q 675 825 636 825 q 814 788 764 825 q 883 681 864 750 q 903 515 903 611 l 903 394 l 588 394 l 588 297 q 592 208 588 249 q 613 142 597 167 q 660 118 629 118 q 707 144 693 118 q 721 217 721 169 l 721 297 l 903 297 l 903 218 q 847 44 903 104 q 681 -15 792 -15 q 558 12 607 -15 q 486 85 508 39 q 420 13 464 42 q 303 -15 376 -15 m 322 118 q 368 135 353 118 q 389 183 383 151 q 394 257 394 214 l 394 563 q 389 631 394 601 q 369 678 383 661 q 324 696 354 696 q 281 678 296 696 q 260 631 265 661 q 254 563 254 601 l 254 258 q 259 188 254 219 q 278 137 264 156 q 322 118 293 118 m 588 493 l 722 493 l 722 572 q 717 633 722 604 q 697 678 711 661 q 654 696 683 696 q 615 679 629 696 q 594 635 600 663 q 588 572 588 607 l 588 493 z "},"p":{"ha":661,"x_min":72,"x_max":603,"o":"m 72 -264 l 72 803 l 261 803 l 261 742 q 338 795 296 775 q 425 815 379 815 q 514 790 479 815 q 568 724 549 765 q 595 637 588 683 q 603 547 603 590 l 603 275 q 584 131 603 196 q 524 26 565 65 q 415 -12 483 -12 q 334 8 372 -12 q 261 61 296 29 l 261 -264 l 72 -264 m 344 119 q 390 140 375 119 q 409 194 404 160 q 414 268 414 228 l 414 556 q 408 623 414 593 q 388 671 403 653 q 343 689 372 689 q 299 678 321 689 q 261 654 278 668 l 261 147 q 300 127 279 135 q 344 119 321 119 z "},"ṗ":{"ha":661,"x_min":72,"x_max":603,"o":"m 72 -264 l 72 803 l 261 803 l 261 742 q 338 795 296 775 q 425 815 379 815 q 514 790 479 815 q 568 724 549 765 q 595 637 588 683 q 603 547 603 590 l 603 275 q 584 131 603 196 q 524 26 565 65 q 415 -12 483 -12 q 334 8 372 -12 q 261 61 296 29 l 261 -264 l 72 -264 m 344 119 q 390 140 375 119 q 409 194 404 160 q 414 268 414 228 l 414 556 q 408 623 414 593 q 388 671 403 653 q 343 689 372 689 q 299 678 321 689 q 261 654 278 668 l 261 147 q 300 127 279 135 q 344 119 321 119 m 239 918 l 239 1108 l 422 1108 l 422 918 l 239 918 z "},"þ":{"ha":654,"x_min":69,"x_max":599,"o":"m 69 -264 l 69 1125 l 258 1125 l 258 742 q 334 795 293 775 q 422 815 375 815 q 510 790 476 815 q 564 724 544 765 q 591 637 583 683 q 599 547 599 590 l 599 275 q 581 131 599 196 q 521 26 563 65 q 413 -12 479 -12 q 331 8 369 -12 q 258 60 292 29 l 258 -264 l 69 -264 m 342 119 q 385 140 371 119 q 405 194 400 160 q 410 268 410 228 l 410 556 q 404 623 410 593 q 383 671 399 653 q 339 689 368 689 q 297 679 317 689 q 258 654 276 669 l 258 147 q 297 127 276 135 q 342 119 317 119 z "},"q":{"ha":658,"x_min":60,"x_max":588,"o":"m 399 -264 l 399 60 q 331 7 367 26 q 253 -12 294 -12 q 108 56 157 -12 q 60 274 60 124 l 60 519 q 78 669 60 603 q 138 776 96 736 q 251 815 181 815 q 331 797 294 815 q 399 750 368 779 l 399 803 l 588 803 l 588 -264 l 399 -264 m 324 118 q 359 125 339 118 q 399 144 379 132 l 399 658 q 363 678 382 671 q 322 686 343 686 q 265 649 281 686 q 249 560 249 613 l 249 260 q 255 188 249 219 q 277 137 261 156 q 324 118 293 118 z "}}}
